<?xml version="1.0" encoding="utf-8" standalone="no"?>
<!DOCTYPE svg PUBLIC "-//W3C//DTD SVG 1.1//EN"
  "http://www.w3.org/Graphics/SVG/1.1/DTD/svg11.dtd">
<!-- Created with matplotlib (https://matplotlib.org/) -->
<svg height="1440pt" version="1.1" viewBox="0 0 1440 1440" width="1440pt" xmlns="http://www.w3.org/2000/svg" xmlns:xlink="http://www.w3.org/1999/xlink">
 <metadata>
  <rdf:RDF xmlns:cc="http://creativecommons.org/ns#" xmlns:dc="http://purl.org/dc/elements/1.1/" xmlns:rdf="http://www.w3.org/1999/02/22-rdf-syntax-ns#">
   <cc:Work>
    <dc:type rdf:resource="http://purl.org/dc/dcmitype/StillImage"/>
    <dc:date>2021-05-07T19:03:59.404618</dc:date>
    <dc:format>image/svg+xml</dc:format>
    <dc:creator>
     <cc:Agent>
      <dc:title>Matplotlib v3.3.4, https://matplotlib.org/</dc:title>
     </cc:Agent>
    </dc:creator>
   </cc:Work>
  </rdf:RDF>
 </metadata>
 <defs>
  <style type="text/css">*{stroke-linecap:butt;stroke-linejoin:round;}</style>
 </defs>
 <g id="figure_1">
  <g id="patch_1">
   <path d="M 0 1440 
L 1440 1440 
L 1440 0 
L 0 0 
z
" style="fill:#ffffff;"/>
  </g>
  <g id="axes_1">
   <g id="patch_2">
    <path d="M 180 1260 
L 1296 1260 
L 1296 172.8 
L 180 172.8 
z
" style="fill:#ffffff;"/>
   </g>
   <g id="PathCollection_1">
    <defs>
     <path d="M 0 3 
C 0.795609 3 1.55874 2.683901 2.12132 2.12132 
C 2.683901 1.55874 3 0.795609 3 0 
C 3 -0.795609 2.683901 -1.55874 2.12132 -2.12132 
C 1.55874 -2.683901 0.795609 -3 0 -3 
C -0.795609 -3 -1.55874 -2.683901 -2.12132 -2.12132 
C -2.683901 -1.55874 -3 -0.795609 -3 0 
C -3 0.795609 -2.683901 1.55874 -2.12132 2.12132 
C -1.55874 2.683901 -0.795609 3 0 3 
z
" id="mba43a0b76f" style="stroke:#1f77b4;"/>
    </defs>
    <g clip-path="url(#pb2e6af9c65)">
     <use style="fill:#1f77b4;stroke:#1f77b4;" x="1103.403798" xlink:href="#mba43a0b76f" y="1152.689398"/>
     <use style="fill:#1f77b4;stroke:#1f77b4;" x="1025.072777" xlink:href="#mba43a0b76f" y="1136.96302"/>
     <use style="fill:#1f77b4;stroke:#1f77b4;" x="986.552341" xlink:href="#mba43a0b76f" y="1074.715269"/>
     <use style="fill:#1f77b4;stroke:#1f77b4;" x="1034.665258" xlink:href="#mba43a0b76f" y="1042.902654"/>
     <use style="fill:#1f77b4;stroke:#1f77b4;" x="1055.25473" xlink:href="#mba43a0b76f" y="1085.92795"/>
     <use style="fill:#1f77b4;stroke:#1f77b4;" x="1041.017846" xlink:href="#mba43a0b76f" y="1108.951198"/>
    </g>
   </g>
   <g id="PathCollection_2">
    <defs>
     <path d="M 0 3 
C 0.795609 3 1.55874 2.683901 2.12132 2.12132 
C 2.683901 1.55874 3 0.795609 3 0 
C 3 -0.795609 2.683901 -1.55874 2.12132 -2.12132 
C 1.55874 -2.683901 0.795609 -3 0 -3 
C -0.795609 -3 -1.55874 -2.683901 -2.12132 -2.12132 
C -2.683901 -1.55874 -3 -0.795609 -3 0 
C -3 0.795609 -2.683901 1.55874 -2.12132 2.12132 
C -1.55874 2.683901 -0.795609 3 0 3 
z
" id="m502f81b9ae" style="stroke:#ff7f0e;"/>
    </defs>
    <g clip-path="url(#pb2e6af9c65)">
     <use style="fill:#ff7f0e;stroke:#ff7f0e;" x="259.037185" xlink:href="#m502f81b9ae" y="625.027842"/>
    </g>
   </g>
   <g id="PathCollection_3">
    <defs>
     <path d="M 0 3 
C 0.795609 3 1.55874 2.683901 2.12132 2.12132 
C 2.683901 1.55874 3 0.795609 3 0 
C 3 -0.795609 2.683901 -1.55874 2.12132 -2.12132 
C 1.55874 -2.683901 0.795609 -3 0 -3 
C -0.795609 -3 -1.55874 -2.683901 -2.12132 -2.12132 
C -2.683901 -1.55874 -3 -0.795609 -3 0 
C -3 0.795609 -2.683901 1.55874 -2.12132 2.12132 
C -1.55874 2.683901 -0.795609 3 0 3 
z
" id="m9175601384" style="stroke:#2ca02c;"/>
    </defs>
    <g clip-path="url(#pb2e6af9c65)">
     <use style="fill:#2ca02c;stroke:#2ca02c;" x="803.851953" xlink:href="#m9175601384" y="253.153087"/>
     <use style="fill:#2ca02c;stroke:#2ca02c;" x="548.89874" xlink:href="#m9175601384" y="256.76289"/>
     <use style="fill:#2ca02c;stroke:#2ca02c;" x="1186.396766" xlink:href="#m9175601384" y="1210.581818"/>
     <use style="fill:#2ca02c;stroke:#2ca02c;" x="620.66088" xlink:href="#m9175601384" y="302.762638"/>
     <use style="fill:#2ca02c;stroke:#2ca02c;" x="590.34017" xlink:href="#m9175601384" y="223.156168"/>
     <use style="fill:#2ca02c;stroke:#2ca02c;" x="954.739892" xlink:href="#m9175601384" y="563.341609"/>
     <use style="fill:#2ca02c;stroke:#2ca02c;" x="450.92669" xlink:href="#m9175601384" y="234.532318"/>
     <use style="fill:#2ca02c;stroke:#2ca02c;" x="290.801569" xlink:href="#m9175601384" y="427.535681"/>
     <use style="fill:#2ca02c;stroke:#2ca02c;" x="299.622865" xlink:href="#m9175601384" y="426.379414"/>
     <use style="fill:#2ca02c;stroke:#2ca02c;" x="371.841835" xlink:href="#m9175601384" y="288.231155"/>
     <use style="fill:#2ca02c;stroke:#2ca02c;" x="234.213193" xlink:href="#m9175601384" y="461.333986"/>
     <use style="fill:#2ca02c;stroke:#2ca02c;" x="765.011698" xlink:href="#m9175601384" y="287.141476"/>
     <use style="fill:#2ca02c;stroke:#2ca02c;" x="343.426467" xlink:href="#m9175601384" y="477.922442"/>
     <use style="fill:#2ca02c;stroke:#2ca02c;" x="716.377668" xlink:href="#m9175601384" y="264.403225"/>
     <use style="fill:#2ca02c;stroke:#2ca02c;" x="434.658633" xlink:href="#m9175601384" y="266.107897"/>
     <use style="fill:#2ca02c;stroke:#2ca02c;" x="440.175239" xlink:href="#m9175601384" y="414.923367"/>
     <use style="fill:#2ca02c;stroke:#2ca02c;" x="697.335749" xlink:href="#m9175601384" y="222.218182"/>
    </g>
   </g>
   <g id="PathCollection_4">
    <defs>
     <path d="M 0 3 
C 0.795609 3 1.55874 2.683901 2.12132 2.12132 
C 2.683901 1.55874 3 0.795609 3 0 
C 3 -0.795609 2.683901 -1.55874 2.12132 -2.12132 
C 1.55874 -2.683901 0.795609 -3 0 -3 
C -0.795609 -3 -1.55874 -2.683901 -2.12132 -2.12132 
C -2.683901 -1.55874 -3 -0.795609 -3 0 
C -3 0.795609 -2.683901 1.55874 -2.12132 2.12132 
C -1.55874 2.683901 -0.795609 3 0 3 
z
" id="m02102a1b6c" style="stroke:#d62728;"/>
    </defs>
    <g clip-path="url(#pb2e6af9c65)">
     <use style="fill:#d62728;stroke:#d62728;" x="585.645142" xlink:href="#m02102a1b6c" y="444.709472"/>
     <use style="fill:#d62728;stroke:#d62728;" x="816.654867" xlink:href="#m02102a1b6c" y="559.25922"/>
     <use style="fill:#d62728;stroke:#d62728;" x="647.147442" xlink:href="#m02102a1b6c" y="493.863083"/>
     <use style="fill:#d62728;stroke:#d62728;" x="521.945709" xlink:href="#m02102a1b6c" y="513.989123"/>
     <use style="fill:#d62728;stroke:#d62728;" x="754.313024" xlink:href="#m02102a1b6c" y="515.324121"/>
     <use style="fill:#d62728;stroke:#d62728;" x="804.202604" xlink:href="#m02102a1b6c" y="427.042599"/>
     <use style="fill:#d62728;stroke:#d62728;" x="783.350372" xlink:href="#m02102a1b6c" y="629.796121"/>
     <use style="fill:#d62728;stroke:#d62728;" x="711.247306" xlink:href="#m02102a1b6c" y="433.495843"/>
     <use style="fill:#d62728;stroke:#d62728;" x="776.589843" xlink:href="#m02102a1b6c" y="697.00965"/>
     <use style="fill:#d62728;stroke:#d62728;" x="821.396255" xlink:href="#m02102a1b6c" y="608.604561"/>
     <use style="fill:#d62728;stroke:#d62728;" x="746.91631" xlink:href="#m02102a1b6c" y="490.920092"/>
     <use style="fill:#d62728;stroke:#d62728;" x="731.585947" xlink:href="#m02102a1b6c" y="522.687192"/>
     <use style="fill:#d62728;stroke:#d62728;" x="613.697398" xlink:href="#m02102a1b6c" y="486.398854"/>
     <use style="fill:#d62728;stroke:#d62728;" x="687.889352" xlink:href="#m02102a1b6c" y="481.525047"/>
     <use style="fill:#d62728;stroke:#d62728;" x="835.558116" xlink:href="#m02102a1b6c" y="484.502748"/>
     <use style="fill:#d62728;stroke:#d62728;" x="629.232919" xlink:href="#m02102a1b6c" y="787.302561"/>
     <use style="fill:#d62728;stroke:#d62728;" x="490.711743" xlink:href="#m02102a1b6c" y="517.64544"/>
     <use style="fill:#d62728;stroke:#d62728;" x="673.098836" xlink:href="#m02102a1b6c" y="407.672178"/>
     <use style="fill:#d62728;stroke:#d62728;" x="755.946935" xlink:href="#m02102a1b6c" y="453.171474"/>
     <use style="fill:#d62728;stroke:#d62728;" x="642.805252" xlink:href="#m02102a1b6c" y="453.56573"/>
     <use style="fill:#d62728;stroke:#d62728;" x="673.713773" xlink:href="#m02102a1b6c" y="537.910024"/>
    </g>
   </g>
   <g id="PathCollection_5">
    <defs>
     <path d="M 0 3 
C 0.795609 3 1.55874 2.683901 2.12132 2.12132 
C 2.683901 1.55874 3 0.795609 3 0 
C 3 -0.795609 2.683901 -1.55874 2.12132 -2.12132 
C 1.55874 -2.683901 0.795609 -3 0 -3 
C -0.795609 -3 -1.55874 -2.683901 -2.12132 -2.12132 
C -2.683901 -1.55874 -3 -0.795609 -3 0 
C -3 0.795609 -2.683901 1.55874 -2.12132 2.12132 
C -1.55874 2.683901 -0.795609 3 0 3 
z
" id="mb23631c61a" style="stroke:#9467bd;"/>
    </defs>
    <g clip-path="url(#pb2e6af9c65)">
     <use style="fill:#9467bd;stroke:#9467bd;" x="710.268489" xlink:href="#mb23631c61a" y="315.245803"/>
     <use style="fill:#9467bd;stroke:#9467bd;" x="719.790159" xlink:href="#mb23631c61a" y="659.78852"/>
     <use style="fill:#9467bd;stroke:#9467bd;" x="1245.272727" xlink:href="#mb23631c61a" y="1130.606694"/>
     <use style="fill:#9467bd;stroke:#9467bd;" x="604.074106" xlink:href="#mb23631c61a" y="640.248768"/>
     <use style="fill:#9467bd;stroke:#9467bd;" x="679.448744" xlink:href="#mb23631c61a" y="697.418028"/>
     <use style="fill:#9467bd;stroke:#9467bd;" x="538.893786" xlink:href="#mb23631c61a" y="566.354402"/>
     <use style="fill:#9467bd;stroke:#9467bd;" x="713.767848" xlink:href="#mb23631c61a" y="583.883016"/>
     <use style="fill:#9467bd;stroke:#9467bd;" x="733.900398" xlink:href="#mb23631c61a" y="380.302414"/>
     <use style="fill:#9467bd;stroke:#9467bd;" x="717.136868" xlink:href="#mb23631c61a" y="728.534145"/>
     <use style="fill:#9467bd;stroke:#9467bd;" x="581.771127" xlink:href="#mb23631c61a" y="692.57952"/>
     <use style="fill:#9467bd;stroke:#9467bd;" x="636.893275" xlink:href="#mb23631c61a" y="681.812406"/>
     <use style="fill:#9467bd;stroke:#9467bd;" x="589.993836" xlink:href="#mb23631c61a" y="596.693492"/>
     <use style="fill:#9467bd;stroke:#9467bd;" x="531.30785" xlink:href="#mb23631c61a" y="654.850336"/>
     <use style="fill:#9467bd;stroke:#9467bd;" x="537.836246" xlink:href="#mb23631c61a" y="763.768652"/>
     <use style="fill:#9467bd;stroke:#9467bd;" x="451.18888" xlink:href="#mb23631c61a" y="615.731579"/>
     <use style="fill:#9467bd;stroke:#9467bd;" x="488.966593" xlink:href="#mb23631c61a" y="740.789143"/>
     <use style="fill:#9467bd;stroke:#9467bd;" x="673.338886" xlink:href="#mb23631c61a" y="632.263166"/>
     <use style="fill:#9467bd;stroke:#9467bd;" x="573.265325" xlink:href="#mb23631c61a" y="625.992102"/>
     <use style="fill:#9467bd;stroke:#9467bd;" x="401.031466" xlink:href="#mb23631c61a" y="643.764752"/>
     <use style="fill:#9467bd;stroke:#9467bd;" x="550.815969" xlink:href="#mb23631c61a" y="710.171779"/>
     <use style="fill:#9467bd;stroke:#9467bd;" x="491.148058" xlink:href="#mb23631c61a" y="407.161103"/>
     <use style="fill:#9467bd;stroke:#9467bd;" x="521.182791" xlink:href="#mb23631c61a" y="294.535757"/>
     <use style="fill:#9467bd;stroke:#9467bd;" x="375.770371" xlink:href="#mb23631c61a" y="511.666439"/>
     <use style="fill:#9467bd;stroke:#9467bd;" x="552.23259" xlink:href="#mb23631c61a" y="847.768477"/>
     <use style="fill:#9467bd;stroke:#9467bd;" x="402.181238" xlink:href="#mb23631c61a" y="440.926177"/>
     <use style="fill:#9467bd;stroke:#9467bd;" x="497.390486" xlink:href="#mb23631c61a" y="629.674596"/>
     <use style="fill:#9467bd;stroke:#9467bd;" x="471.720285" xlink:href="#mb23631c61a" y="626.114382"/>
     <use style="fill:#9467bd;stroke:#9467bd;" x="476.971021" xlink:href="#mb23631c61a" y="730.118903"/>
     <use style="fill:#9467bd;stroke:#9467bd;" x="640.058144" xlink:href="#mb23631c61a" y="656.635266"/>
     <use style="fill:#9467bd;stroke:#9467bd;" x="469.172755" xlink:href="#mb23631c61a" y="582.490355"/>
     <use style="fill:#9467bd;stroke:#9467bd;" x="464.755735" xlink:href="#mb23631c61a" y="677.799186"/>
     <use style="fill:#9467bd;stroke:#9467bd;" x="523.469756" xlink:href="#mb23631c61a" y="585.387809"/>
     <use style="fill:#9467bd;stroke:#9467bd;" x="606.534122" xlink:href="#mb23631c61a" y="333.587904"/>
     <use style="fill:#9467bd;stroke:#9467bd;" x="891.086653" xlink:href="#mb23631c61a" y="577.525791"/>
     <use style="fill:#9467bd;stroke:#9467bd;" x="357.436816" xlink:href="#mb23631c61a" y="583.287428"/>
     <use style="fill:#9467bd;stroke:#9467bd;" x="354.765367" xlink:href="#mb23631c61a" y="822.15384"/>
     <use style="fill:#9467bd;stroke:#9467bd;" x="548.748427" xlink:href="#mb23631c61a" y="353.798383"/>
     <use style="fill:#9467bd;stroke:#9467bd;" x="612.827222" xlink:href="#mb23631c61a" y="399.052818"/>
     <use style="fill:#9467bd;stroke:#9467bd;" x="628.781705" xlink:href="#mb23631c61a" y="384.86885"/>
    </g>
   </g>
   <g id="PathCollection_6">
    <defs>
     <path d="M 0 3 
C 0.795609 3 1.55874 2.683901 2.12132 2.12132 
C 2.683901 1.55874 3 0.795609 3 0 
C 3 -0.795609 2.683901 -1.55874 2.12132 -2.12132 
C 1.55874 -2.683901 0.795609 -3 0 -3 
C -0.795609 -3 -1.55874 -2.683901 -2.12132 -2.12132 
C -2.683901 -1.55874 -3 -0.795609 -3 0 
C -3 0.795609 -2.683901 1.55874 -2.12132 2.12132 
C -1.55874 2.683901 -0.795609 3 0 3 
z
" id="m3dc13814c7" style="stroke:#8c564b;"/>
    </defs>
    <g clip-path="url(#pb2e6af9c65)">
     <use style="fill:#8c564b;stroke:#8c564b;" x="1072.661364" xlink:href="#m3dc13814c7" y="1013.933245"/>
     <use style="fill:#8c564b;stroke:#8c564b;" x="1152.825727" xlink:href="#m3dc13814c7" y="1046.89975"/>
     <use style="fill:#8c564b;stroke:#8c564b;" x="1144.197772" xlink:href="#m3dc13814c7" y="1044.89324"/>
     <use style="fill:#8c564b;stroke:#8c564b;" x="1106.751474" xlink:href="#m3dc13814c7" y="1049.003723"/>
     <use style="fill:#8c564b;stroke:#8c564b;" x="1151.55143" xlink:href="#m3dc13814c7" y="1081.906531"/>
     <use style="fill:#8c564b;stroke:#8c564b;" x="1209.086816" xlink:href="#m3dc13814c7" y="1079.715397"/>
     <use style="fill:#8c564b;stroke:#8c564b;" x="1190.950852" xlink:href="#m3dc13814c7" y="1041.327799"/>
     <use style="fill:#8c564b;stroke:#8c564b;" x="1125.962421" xlink:href="#m3dc13814c7" y="1029.04909"/>
    </g>
   </g>
   <g id="PathCollection_7">
    <defs>
     <path d="M 0 3 
C 0.795609 3 1.55874 2.683901 2.12132 2.12132 
C 2.683901 1.55874 3 0.795609 3 0 
C 3 -0.795609 2.683901 -1.55874 2.12132 -2.12132 
C 1.55874 -2.683901 0.795609 -3 0 -3 
C -0.795609 -3 -1.55874 -2.683901 -2.12132 -2.12132 
C -2.683901 -1.55874 -3 -0.795609 -3 0 
C -3 0.795609 -2.683901 1.55874 -2.12132 2.12132 
C -1.55874 2.683901 -0.795609 3 0 3 
z
" id="m57fc9501be" style="stroke:#e377c2;"/>
    </defs>
    <g clip-path="url(#pb2e6af9c65)">
     <use style="fill:#e377c2;stroke:#e377c2;" x="934.713568" xlink:href="#m57fc9501be" y="888.980271"/>
     <use style="fill:#e377c2;stroke:#e377c2;" x="927.565016" xlink:href="#m57fc9501be" y="849.394103"/>
     <use style="fill:#e377c2;stroke:#e377c2;" x="968.511214" xlink:href="#m57fc9501be" y="916.45009"/>
     <use style="fill:#e377c2;stroke:#e377c2;" x="886.085222" xlink:href="#m57fc9501be" y="875.377686"/>
     <use style="fill:#e377c2;stroke:#e377c2;" x="865.067077" xlink:href="#m57fc9501be" y="344.441256"/>
     <use style="fill:#e377c2;stroke:#e377c2;" x="1051.706954" xlink:href="#m57fc9501be" y="899.689547"/>
     <use style="fill:#e377c2;stroke:#e377c2;" x="1006.397934" xlink:href="#m57fc9501be" y="894.213068"/>
     <use style="fill:#e377c2;stroke:#e377c2;" x="1062.17642" xlink:href="#m57fc9501be" y="941.400647"/>
     <use style="fill:#e377c2;stroke:#e377c2;" x="1070.248947" xlink:href="#m57fc9501be" y="815.635261"/>
     <use style="fill:#e377c2;stroke:#e377c2;" x="1049.07481" xlink:href="#m57fc9501be" y="862.370973"/>
     <use style="fill:#e377c2;stroke:#e377c2;" x="931.018891" xlink:href="#m57fc9501be" y="944.240612"/>
     <use style="fill:#e377c2;stroke:#e377c2;" x="738.833185" xlink:href="#m57fc9501be" y="917.788428"/>
     <use style="fill:#e377c2;stroke:#e377c2;" x="1097.770862" xlink:href="#m57fc9501be" y="820.363632"/>
     <use style="fill:#e377c2;stroke:#e377c2;" x="985.201611" xlink:href="#m57fc9501be" y="862.471416"/>
     <use style="fill:#e377c2;stroke:#e377c2;" x="812.836142" xlink:href="#m57fc9501be" y="850.928143"/>
     <use style="fill:#e377c2;stroke:#e377c2;" x="822.793717" xlink:href="#m57fc9501be" y="834.810537"/>
     <use style="fill:#e377c2;stroke:#e377c2;" x="895.975145" xlink:href="#m57fc9501be" y="843.883502"/>
     <use style="fill:#e377c2;stroke:#e377c2;" x="863.646354" xlink:href="#m57fc9501be" y="900.968592"/>
     <use style="fill:#e377c2;stroke:#e377c2;" x="1025.255624" xlink:href="#m57fc9501be" y="817.516861"/>
     <use style="fill:#e377c2;stroke:#e377c2;" x="965.461927" xlink:href="#m57fc9501be" y="949.837767"/>
    </g>
   </g>
   <g id="PathCollection_8">
    <defs>
     <path d="M 0 3 
C 0.795609 3 1.55874 2.683901 2.12132 2.12132 
C 2.683901 1.55874 3 0.795609 3 0 
C 3 -0.795609 2.683901 -1.55874 2.12132 -2.12132 
C 1.55874 -2.683901 0.795609 -3 0 -3 
C -0.795609 -3 -1.55874 -2.683901 -2.12132 -2.12132 
C -2.683901 -1.55874 -3 -0.795609 -3 0 
C -3 0.795609 -2.683901 1.55874 -2.12132 2.12132 
C -1.55874 2.683901 -0.795609 3 0 3 
z
" id="m153ee57911" style="stroke:#7f7f7f;"/>
    </defs>
    <g clip-path="url(#pb2e6af9c65)">
     <use style="fill:#7f7f7f;stroke:#7f7f7f;" x="1197.943953" xlink:href="#m153ee57911" y="950.355943"/>
     <use style="fill:#7f7f7f;stroke:#7f7f7f;" x="1146.245438" xlink:href="#m153ee57911" y="986.842759"/>
     <use style="fill:#7f7f7f;stroke:#7f7f7f;" x="1191.283254" xlink:href="#m153ee57911" y="888.409303"/>
     <use style="fill:#7f7f7f;stroke:#7f7f7f;" x="1182.567084" xlink:href="#m153ee57911" y="917.155836"/>
     <use style="fill:#7f7f7f;stroke:#7f7f7f;" x="1176.608714" xlink:href="#m153ee57911" y="1139.426698"/>
     <use style="fill:#7f7f7f;stroke:#7f7f7f;" x="1230.189156" xlink:href="#m153ee57911" y="925.952872"/>
     <use style="fill:#7f7f7f;stroke:#7f7f7f;" x="1239.838463" xlink:href="#m153ee57911" y="885.692438"/>
     <use style="fill:#7f7f7f;stroke:#7f7f7f;" x="1242.361358" xlink:href="#m153ee57911" y="860.978269"/>
    </g>
   </g>
   <g id="PathCollection_9">
    <defs>
     <path d="M 0 3 
C 0.795609 3 1.55874 2.683901 2.12132 2.12132 
C 2.683901 1.55874 3 0.795609 3 0 
C 3 -0.795609 2.683901 -1.55874 2.12132 -2.12132 
C 1.55874 -2.683901 0.795609 -3 0 -3 
C -0.795609 -3 -1.55874 -2.683901 -2.12132 -2.12132 
C -2.683901 -1.55874 -3 -0.795609 -3 0 
C -3 0.795609 -2.683901 1.55874 -2.12132 2.12132 
C -1.55874 2.683901 -0.795609 3 0 3 
z
" id="m2fec14558f" style="stroke:#bcbd22;"/>
    </defs>
    <g clip-path="url(#pb2e6af9c65)">
     <use style="fill:#bcbd22;stroke:#bcbd22;" x="267.485312" xlink:href="#m2fec14558f" y="714.289213"/>
     <use style="fill:#bcbd22;stroke:#bcbd22;" x="286.976543" xlink:href="#m2fec14558f" y="687.785825"/>
     <use style="fill:#bcbd22;stroke:#bcbd22;" x="318.158449" xlink:href="#m2fec14558f" y="685.564922"/>
     <use style="fill:#bcbd22;stroke:#bcbd22;" x="241.126482" xlink:href="#m2fec14558f" y="716.610076"/>
     <use style="fill:#bcbd22;stroke:#bcbd22;" x="279.175636" xlink:href="#m2fec14558f" y="717.018791"/>
     <use style="fill:#bcbd22;stroke:#bcbd22;" x="271.43838" xlink:href="#m2fec14558f" y="729.739128"/>
     <use style="fill:#bcbd22;stroke:#bcbd22;" x="230.727273" xlink:href="#m2fec14558f" y="674.004151"/>
     <use style="fill:#bcbd22;stroke:#bcbd22;" x="318.870781" xlink:href="#m2fec14558f" y="647.398871"/>
    </g>
   </g>
   <g id="matplotlib.axis_1">
    <g id="xtick_1">
     <g id="line2d_1">
      <defs>
       <path d="M 0 0 
L 0 3.5 
" id="m5df4d320d8" style="stroke:#000000;stroke-width:0.8;"/>
      </defs>
      <g>
       <use style="stroke:#000000;stroke-width:0.8;" x="194.32052" xlink:href="#m5df4d320d8" y="1260"/>
      </g>
     </g>
     <g id="text_1">
      <!-- −8 -->
      <g transform="translate(186.949426 1274.598438)scale(0.1 -0.1)">
       <defs>
        <path d="M 10.59375 35.5 
L 73.1875 35.5 
L 73.1875 27.203125 
L 10.59375 27.203125 
z
" id="DejaVuSans-8722"/>
        <path d="M 31.78125 34.625 
Q 24.75 34.625 20.71875 30.859375 
Q 16.703125 27.09375 16.703125 20.515625 
Q 16.703125 13.921875 20.71875 10.15625 
Q 24.75 6.390625 31.78125 6.390625 
Q 38.8125 6.390625 42.859375 10.171875 
Q 46.921875 13.96875 46.921875 20.515625 
Q 46.921875 27.09375 42.890625 30.859375 
Q 38.875 34.625 31.78125 34.625 
z
M 21.921875 38.8125 
Q 15.578125 40.375 12.03125 44.71875 
Q 8.5 49.078125 8.5 55.328125 
Q 8.5 64.0625 14.71875 69.140625 
Q 20.953125 74.21875 31.78125 74.21875 
Q 42.671875 74.21875 48.875 69.140625 
Q 55.078125 64.0625 55.078125 55.328125 
Q 55.078125 49.078125 51.53125 44.71875 
Q 48 40.375 41.703125 38.8125 
Q 48.828125 37.15625 52.796875 32.3125 
Q 56.78125 27.484375 56.78125 20.515625 
Q 56.78125 9.90625 50.3125 4.234375 
Q 43.84375 -1.421875 31.78125 -1.421875 
Q 19.734375 -1.421875 13.25 4.234375 
Q 6.78125 9.90625 6.78125 20.515625 
Q 6.78125 27.484375 10.78125 32.3125 
Q 14.796875 37.15625 21.921875 38.8125 
z
M 18.3125 54.390625 
Q 18.3125 48.734375 21.84375 45.5625 
Q 25.390625 42.390625 31.78125 42.390625 
Q 38.140625 42.390625 41.71875 45.5625 
Q 45.3125 48.734375 45.3125 54.390625 
Q 45.3125 60.0625 41.71875 63.234375 
Q 38.140625 66.40625 31.78125 66.40625 
Q 25.390625 66.40625 21.84375 63.234375 
Q 18.3125 60.0625 18.3125 54.390625 
z
" id="DejaVuSans-56"/>
       </defs>
       <use xlink:href="#DejaVuSans-8722"/>
       <use x="83.789062" xlink:href="#DejaVuSans-56"/>
      </g>
     </g>
    </g>
    <g id="xtick_2">
     <g id="line2d_2">
      <g>
       <use style="stroke:#000000;stroke-width:0.8;" x="328.276433" xlink:href="#m5df4d320d8" y="1260"/>
      </g>
     </g>
     <g id="text_2">
      <!-- −6 -->
      <g transform="translate(320.905339 1274.598438)scale(0.1 -0.1)">
       <defs>
        <path d="M 33.015625 40.375 
Q 26.375 40.375 22.484375 35.828125 
Q 18.609375 31.296875 18.609375 23.390625 
Q 18.609375 15.53125 22.484375 10.953125 
Q 26.375 6.390625 33.015625 6.390625 
Q 39.65625 6.390625 43.53125 10.953125 
Q 47.40625 15.53125 47.40625 23.390625 
Q 47.40625 31.296875 43.53125 35.828125 
Q 39.65625 40.375 33.015625 40.375 
z
M 52.59375 71.296875 
L 52.59375 62.3125 
Q 48.875 64.0625 45.09375 64.984375 
Q 41.3125 65.921875 37.59375 65.921875 
Q 27.828125 65.921875 22.671875 59.328125 
Q 17.53125 52.734375 16.796875 39.40625 
Q 19.671875 43.65625 24.015625 45.921875 
Q 28.375 48.1875 33.59375 48.1875 
Q 44.578125 48.1875 50.953125 41.515625 
Q 57.328125 34.859375 57.328125 23.390625 
Q 57.328125 12.15625 50.6875 5.359375 
Q 44.046875 -1.421875 33.015625 -1.421875 
Q 20.359375 -1.421875 13.671875 8.265625 
Q 6.984375 17.96875 6.984375 36.375 
Q 6.984375 53.65625 15.1875 63.9375 
Q 23.390625 74.21875 37.203125 74.21875 
Q 40.921875 74.21875 44.703125 73.484375 
Q 48.484375 72.75 52.59375 71.296875 
z
" id="DejaVuSans-54"/>
       </defs>
       <use xlink:href="#DejaVuSans-8722"/>
       <use x="83.789062" xlink:href="#DejaVuSans-54"/>
      </g>
     </g>
    </g>
    <g id="xtick_3">
     <g id="line2d_3">
      <g>
       <use style="stroke:#000000;stroke-width:0.8;" x="462.232346" xlink:href="#m5df4d320d8" y="1260"/>
      </g>
     </g>
     <g id="text_3">
      <!-- −4 -->
      <g transform="translate(454.861252 1274.598438)scale(0.1 -0.1)">
       <defs>
        <path d="M 37.796875 64.3125 
L 12.890625 25.390625 
L 37.796875 25.390625 
z
M 35.203125 72.90625 
L 47.609375 72.90625 
L 47.609375 25.390625 
L 58.015625 25.390625 
L 58.015625 17.1875 
L 47.609375 17.1875 
L 47.609375 0 
L 37.796875 0 
L 37.796875 17.1875 
L 4.890625 17.1875 
L 4.890625 26.703125 
z
" id="DejaVuSans-52"/>
       </defs>
       <use xlink:href="#DejaVuSans-8722"/>
       <use x="83.789062" xlink:href="#DejaVuSans-52"/>
      </g>
     </g>
    </g>
    <g id="xtick_4">
     <g id="line2d_4">
      <g>
       <use style="stroke:#000000;stroke-width:0.8;" x="596.188259" xlink:href="#m5df4d320d8" y="1260"/>
      </g>
     </g>
     <g id="text_4">
      <!-- −2 -->
      <g transform="translate(588.817165 1274.598438)scale(0.1 -0.1)">
       <defs>
        <path d="M 19.1875 8.296875 
L 53.609375 8.296875 
L 53.609375 0 
L 7.328125 0 
L 7.328125 8.296875 
Q 12.9375 14.109375 22.625 23.890625 
Q 32.328125 33.6875 34.8125 36.53125 
Q 39.546875 41.84375 41.421875 45.53125 
Q 43.3125 49.21875 43.3125 52.78125 
Q 43.3125 58.59375 39.234375 62.25 
Q 35.15625 65.921875 28.609375 65.921875 
Q 23.96875 65.921875 18.8125 64.3125 
Q 13.671875 62.703125 7.8125 59.421875 
L 7.8125 69.390625 
Q 13.765625 71.78125 18.9375 73 
Q 24.125 74.21875 28.421875 74.21875 
Q 39.75 74.21875 46.484375 68.546875 
Q 53.21875 62.890625 53.21875 53.421875 
Q 53.21875 48.921875 51.53125 44.890625 
Q 49.859375 40.875 45.40625 35.40625 
Q 44.1875 33.984375 37.640625 27.21875 
Q 31.109375 20.453125 19.1875 8.296875 
z
" id="DejaVuSans-50"/>
       </defs>
       <use xlink:href="#DejaVuSans-8722"/>
       <use x="83.789062" xlink:href="#DejaVuSans-50"/>
      </g>
     </g>
    </g>
    <g id="xtick_5">
     <g id="line2d_5">
      <g>
       <use style="stroke:#000000;stroke-width:0.8;" x="730.144172" xlink:href="#m5df4d320d8" y="1260"/>
      </g>
     </g>
     <g id="text_5">
      <!-- 0 -->
      <g transform="translate(726.962922 1274.598438)scale(0.1 -0.1)">
       <defs>
        <path d="M 31.78125 66.40625 
Q 24.171875 66.40625 20.328125 58.90625 
Q 16.5 51.421875 16.5 36.375 
Q 16.5 21.390625 20.328125 13.890625 
Q 24.171875 6.390625 31.78125 6.390625 
Q 39.453125 6.390625 43.28125 13.890625 
Q 47.125 21.390625 47.125 36.375 
Q 47.125 51.421875 43.28125 58.90625 
Q 39.453125 66.40625 31.78125 66.40625 
z
M 31.78125 74.21875 
Q 44.046875 74.21875 50.515625 64.515625 
Q 56.984375 54.828125 56.984375 36.375 
Q 56.984375 17.96875 50.515625 8.265625 
Q 44.046875 -1.421875 31.78125 -1.421875 
Q 19.53125 -1.421875 13.0625 8.265625 
Q 6.59375 17.96875 6.59375 36.375 
Q 6.59375 54.828125 13.0625 64.515625 
Q 19.53125 74.21875 31.78125 74.21875 
z
" id="DejaVuSans-48"/>
       </defs>
       <use xlink:href="#DejaVuSans-48"/>
      </g>
     </g>
    </g>
    <g id="xtick_6">
     <g id="line2d_6">
      <g>
       <use style="stroke:#000000;stroke-width:0.8;" x="864.100084" xlink:href="#m5df4d320d8" y="1260"/>
      </g>
     </g>
     <g id="text_6">
      <!-- 2 -->
      <g transform="translate(860.918834 1274.598438)scale(0.1 -0.1)">
       <use xlink:href="#DejaVuSans-50"/>
      </g>
     </g>
    </g>
    <g id="xtick_7">
     <g id="line2d_7">
      <g>
       <use style="stroke:#000000;stroke-width:0.8;" x="998.055997" xlink:href="#m5df4d320d8" y="1260"/>
      </g>
     </g>
     <g id="text_7">
      <!-- 4 -->
      <g transform="translate(994.874747 1274.598438)scale(0.1 -0.1)">
       <use xlink:href="#DejaVuSans-52"/>
      </g>
     </g>
    </g>
    <g id="xtick_8">
     <g id="line2d_8">
      <g>
       <use style="stroke:#000000;stroke-width:0.8;" x="1132.01191" xlink:href="#m5df4d320d8" y="1260"/>
      </g>
     </g>
     <g id="text_8">
      <!-- 6 -->
      <g transform="translate(1128.83066 1274.598438)scale(0.1 -0.1)">
       <use xlink:href="#DejaVuSans-54"/>
      </g>
     </g>
    </g>
    <g id="xtick_9">
     <g id="line2d_9">
      <g>
       <use style="stroke:#000000;stroke-width:0.8;" x="1265.967823" xlink:href="#m5df4d320d8" y="1260"/>
      </g>
     </g>
     <g id="text_9">
      <!-- 8 -->
      <g transform="translate(1262.786573 1274.598438)scale(0.1 -0.1)">
       <use xlink:href="#DejaVuSans-56"/>
      </g>
     </g>
    </g>
   </g>
   <g id="matplotlib.axis_2">
    <g id="ytick_1">
     <g id="line2d_10">
      <defs>
       <path d="M 0 0 
L -3.5 0 
" id="m427be7f2b0" style="stroke:#000000;stroke-width:0.8;"/>
      </defs>
      <g>
       <use style="stroke:#000000;stroke-width:0.8;" x="180" xlink:href="#m427be7f2b0" y="1164.189386"/>
      </g>
     </g>
     <g id="text_10">
      <!-- −8 -->
      <g transform="translate(158.257812 1167.988605)scale(0.1 -0.1)">
       <use xlink:href="#DejaVuSans-8722"/>
       <use x="83.789062" xlink:href="#DejaVuSans-56"/>
      </g>
     </g>
    </g>
    <g id="ytick_2">
     <g id="line2d_11">
      <g>
       <use style="stroke:#000000;stroke-width:0.8;" x="180" xlink:href="#m427be7f2b0" y="1042.681352"/>
      </g>
     </g>
     <g id="text_11">
      <!-- −6 -->
      <g transform="translate(158.257812 1046.480571)scale(0.1 -0.1)">
       <use xlink:href="#DejaVuSans-8722"/>
       <use x="83.789062" xlink:href="#DejaVuSans-54"/>
      </g>
     </g>
    </g>
    <g id="ytick_3">
     <g id="line2d_12">
      <g>
       <use style="stroke:#000000;stroke-width:0.8;" x="180" xlink:href="#m427be7f2b0" y="921.173319"/>
      </g>
     </g>
     <g id="text_12">
      <!-- −4 -->
      <g transform="translate(158.257812 924.972538)scale(0.1 -0.1)">
       <use xlink:href="#DejaVuSans-8722"/>
       <use x="83.789062" xlink:href="#DejaVuSans-52"/>
      </g>
     </g>
    </g>
    <g id="ytick_4">
     <g id="line2d_13">
      <g>
       <use style="stroke:#000000;stroke-width:0.8;" x="180" xlink:href="#m427be7f2b0" y="799.665286"/>
      </g>
     </g>
     <g id="text_13">
      <!-- −2 -->
      <g transform="translate(158.257812 803.464504)scale(0.1 -0.1)">
       <use xlink:href="#DejaVuSans-8722"/>
       <use x="83.789062" xlink:href="#DejaVuSans-50"/>
      </g>
     </g>
    </g>
    <g id="ytick_5">
     <g id="line2d_14">
      <g>
       <use style="stroke:#000000;stroke-width:0.8;" x="180" xlink:href="#m427be7f2b0" y="678.157252"/>
      </g>
     </g>
     <g id="text_14">
      <!-- 0 -->
      <g transform="translate(166.6375 681.956471)scale(0.1 -0.1)">
       <use xlink:href="#DejaVuSans-48"/>
      </g>
     </g>
    </g>
    <g id="ytick_6">
     <g id="line2d_15">
      <g>
       <use style="stroke:#000000;stroke-width:0.8;" x="180" xlink:href="#m427be7f2b0" y="556.649219"/>
      </g>
     </g>
     <g id="text_15">
      <!-- 2 -->
      <g transform="translate(166.6375 560.448437)scale(0.1 -0.1)">
       <use xlink:href="#DejaVuSans-50"/>
      </g>
     </g>
    </g>
    <g id="ytick_7">
     <g id="line2d_16">
      <g>
       <use style="stroke:#000000;stroke-width:0.8;" x="180" xlink:href="#m427be7f2b0" y="435.141185"/>
      </g>
     </g>
     <g id="text_16">
      <!-- 4 -->
      <g transform="translate(166.6375 438.940404)scale(0.1 -0.1)">
       <use xlink:href="#DejaVuSans-52"/>
      </g>
     </g>
    </g>
    <g id="ytick_8">
     <g id="line2d_17">
      <g>
       <use style="stroke:#000000;stroke-width:0.8;" x="180" xlink:href="#m427be7f2b0" y="313.633152"/>
      </g>
     </g>
     <g id="text_17">
      <!-- 6 -->
      <g transform="translate(166.6375 317.43237)scale(0.1 -0.1)">
       <use xlink:href="#DejaVuSans-54"/>
      </g>
     </g>
    </g>
    <g id="ytick_9">
     <g id="line2d_18">
      <g>
       <use style="stroke:#000000;stroke-width:0.8;" x="180" xlink:href="#m427be7f2b0" y="192.125118"/>
      </g>
     </g>
     <g id="text_18">
      <!-- 8 -->
      <g transform="translate(166.6375 195.924337)scale(0.1 -0.1)">
       <use xlink:href="#DejaVuSans-56"/>
      </g>
     </g>
    </g>
   </g>
   <g id="patch_3">
    <path d="M 180 1260 
L 180 172.8 
" style="fill:none;stroke:#000000;stroke-linecap:square;stroke-linejoin:miter;stroke-width:0.8;"/>
   </g>
   <g id="patch_4">
    <path d="M 1296 1260 
L 1296 172.8 
" style="fill:none;stroke:#000000;stroke-linecap:square;stroke-linejoin:miter;stroke-width:0.8;"/>
   </g>
   <g id="patch_5">
    <path d="M 180 1260 
L 1296 1260 
" style="fill:none;stroke:#000000;stroke-linecap:square;stroke-linejoin:miter;stroke-width:0.8;"/>
   </g>
   <g id="patch_6">
    <path d="M 180 172.8 
L 1296 172.8 
" style="fill:none;stroke:#000000;stroke-linecap:square;stroke-linejoin:miter;stroke-width:0.8;"/>
   </g>
   <g id="legend_1">
    <g id="patch_7">
     <path d="M 1002.454687 406.64625 
L 1330.8 406.64625 
Q 1336.8 406.64625 1336.8 400.64625 
L 1336.8 139.44 
Q 1336.8 133.44 1330.8 133.44 
L 1002.454687 133.44 
Q 996.454687 133.44 996.454687 139.44 
L 996.454687 400.64625 
Q 996.454687 406.64625 1002.454687 406.64625 
z
" style="fill:#ffffff;opacity:0.8;stroke:#cccccc;stroke-linejoin:miter;"/>
    </g>
    <g id="text_19">
     <!-- Citizens from -->
     <g transform="translate(1067.85 168.235312)scale(0.3 -0.3)">
      <defs>
       <path d="M 64.40625 67.28125 
L 64.40625 56.890625 
Q 59.421875 61.53125 53.78125 63.8125 
Q 48.140625 66.109375 41.796875 66.109375 
Q 29.296875 66.109375 22.65625 58.46875 
Q 16.015625 50.828125 16.015625 36.375 
Q 16.015625 21.96875 22.65625 14.328125 
Q 29.296875 6.6875 41.796875 6.6875 
Q 48.140625 6.6875 53.78125 8.984375 
Q 59.421875 11.28125 64.40625 15.921875 
L 64.40625 5.609375 
Q 59.234375 2.09375 53.4375 0.328125 
Q 47.65625 -1.421875 41.21875 -1.421875 
Q 24.65625 -1.421875 15.125 8.703125 
Q 5.609375 18.84375 5.609375 36.375 
Q 5.609375 53.953125 15.125 64.078125 
Q 24.65625 74.21875 41.21875 74.21875 
Q 47.75 74.21875 53.53125 72.484375 
Q 59.328125 70.75 64.40625 67.28125 
z
" id="DejaVuSans-67"/>
       <path d="M 9.421875 54.6875 
L 18.40625 54.6875 
L 18.40625 0 
L 9.421875 0 
z
M 9.421875 75.984375 
L 18.40625 75.984375 
L 18.40625 64.59375 
L 9.421875 64.59375 
z
" id="DejaVuSans-105"/>
       <path d="M 18.3125 70.21875 
L 18.3125 54.6875 
L 36.8125 54.6875 
L 36.8125 47.703125 
L 18.3125 47.703125 
L 18.3125 18.015625 
Q 18.3125 11.328125 20.140625 9.421875 
Q 21.96875 7.515625 27.59375 7.515625 
L 36.8125 7.515625 
L 36.8125 0 
L 27.59375 0 
Q 17.1875 0 13.234375 3.875 
Q 9.28125 7.765625 9.28125 18.015625 
L 9.28125 47.703125 
L 2.6875 47.703125 
L 2.6875 54.6875 
L 9.28125 54.6875 
L 9.28125 70.21875 
z
" id="DejaVuSans-116"/>
       <path d="M 5.515625 54.6875 
L 48.1875 54.6875 
L 48.1875 46.484375 
L 14.40625 7.171875 
L 48.1875 7.171875 
L 48.1875 0 
L 4.296875 0 
L 4.296875 8.203125 
L 38.09375 47.515625 
L 5.515625 47.515625 
z
" id="DejaVuSans-122"/>
       <path d="M 56.203125 29.59375 
L 56.203125 25.203125 
L 14.890625 25.203125 
Q 15.484375 15.921875 20.484375 11.0625 
Q 25.484375 6.203125 34.421875 6.203125 
Q 39.59375 6.203125 44.453125 7.46875 
Q 49.3125 8.734375 54.109375 11.28125 
L 54.109375 2.78125 
Q 49.265625 0.734375 44.1875 -0.34375 
Q 39.109375 -1.421875 33.890625 -1.421875 
Q 20.796875 -1.421875 13.15625 6.1875 
Q 5.515625 13.8125 5.515625 26.8125 
Q 5.515625 40.234375 12.765625 48.109375 
Q 20.015625 56 32.328125 56 
Q 43.359375 56 49.78125 48.890625 
Q 56.203125 41.796875 56.203125 29.59375 
z
M 47.21875 32.234375 
Q 47.125 39.59375 43.09375 43.984375 
Q 39.0625 48.390625 32.421875 48.390625 
Q 24.90625 48.390625 20.390625 44.140625 
Q 15.875 39.890625 15.1875 32.171875 
z
" id="DejaVuSans-101"/>
       <path d="M 54.890625 33.015625 
L 54.890625 0 
L 45.90625 0 
L 45.90625 32.71875 
Q 45.90625 40.484375 42.875 44.328125 
Q 39.84375 48.1875 33.796875 48.1875 
Q 26.515625 48.1875 22.3125 43.546875 
Q 18.109375 38.921875 18.109375 30.90625 
L 18.109375 0 
L 9.078125 0 
L 9.078125 54.6875 
L 18.109375 54.6875 
L 18.109375 46.1875 
Q 21.34375 51.125 25.703125 53.5625 
Q 30.078125 56 35.796875 56 
Q 45.21875 56 50.046875 50.171875 
Q 54.890625 44.34375 54.890625 33.015625 
z
" id="DejaVuSans-110"/>
       <path d="M 44.28125 53.078125 
L 44.28125 44.578125 
Q 40.484375 46.53125 36.375 47.5 
Q 32.28125 48.484375 27.875 48.484375 
Q 21.1875 48.484375 17.84375 46.4375 
Q 14.5 44.390625 14.5 40.28125 
Q 14.5 37.15625 16.890625 35.375 
Q 19.28125 33.59375 26.515625 31.984375 
L 29.59375 31.296875 
Q 39.15625 29.25 43.1875 25.515625 
Q 47.21875 21.78125 47.21875 15.09375 
Q 47.21875 7.46875 41.1875 3.015625 
Q 35.15625 -1.421875 24.609375 -1.421875 
Q 20.21875 -1.421875 15.453125 -0.5625 
Q 10.6875 0.296875 5.421875 2 
L 5.421875 11.28125 
Q 10.40625 8.6875 15.234375 7.390625 
Q 20.0625 6.109375 24.8125 6.109375 
Q 31.15625 6.109375 34.5625 8.28125 
Q 37.984375 10.453125 37.984375 14.40625 
Q 37.984375 18.0625 35.515625 20.015625 
Q 33.0625 21.96875 24.703125 23.78125 
L 21.578125 24.515625 
Q 13.234375 26.265625 9.515625 29.90625 
Q 5.8125 33.546875 5.8125 39.890625 
Q 5.8125 47.609375 11.28125 51.796875 
Q 16.75 56 26.8125 56 
Q 31.78125 56 36.171875 55.265625 
Q 40.578125 54.546875 44.28125 53.078125 
z
" id="DejaVuSans-115"/>
       <path id="DejaVuSans-32"/>
       <path d="M 37.109375 75.984375 
L 37.109375 68.5 
L 28.515625 68.5 
Q 23.6875 68.5 21.796875 66.546875 
Q 19.921875 64.59375 19.921875 59.515625 
L 19.921875 54.6875 
L 34.71875 54.6875 
L 34.71875 47.703125 
L 19.921875 47.703125 
L 19.921875 0 
L 10.890625 0 
L 10.890625 47.703125 
L 2.296875 47.703125 
L 2.296875 54.6875 
L 10.890625 54.6875 
L 10.890625 58.5 
Q 10.890625 67.625 15.140625 71.796875 
Q 19.390625 75.984375 28.609375 75.984375 
z
" id="DejaVuSans-102"/>
       <path d="M 41.109375 46.296875 
Q 39.59375 47.171875 37.8125 47.578125 
Q 36.03125 48 33.890625 48 
Q 26.265625 48 22.1875 43.046875 
Q 18.109375 38.09375 18.109375 28.8125 
L 18.109375 0 
L 9.078125 0 
L 9.078125 54.6875 
L 18.109375 54.6875 
L 18.109375 46.1875 
Q 20.953125 51.171875 25.484375 53.578125 
Q 30.03125 56 36.53125 56 
Q 37.453125 56 38.578125 55.875 
Q 39.703125 55.765625 41.0625 55.515625 
z
" id="DejaVuSans-114"/>
       <path d="M 30.609375 48.390625 
Q 23.390625 48.390625 19.1875 42.75 
Q 14.984375 37.109375 14.984375 27.296875 
Q 14.984375 17.484375 19.15625 11.84375 
Q 23.34375 6.203125 30.609375 6.203125 
Q 37.796875 6.203125 41.984375 11.859375 
Q 46.1875 17.53125 46.1875 27.296875 
Q 46.1875 37.015625 41.984375 42.703125 
Q 37.796875 48.390625 30.609375 48.390625 
z
M 30.609375 56 
Q 42.328125 56 49.015625 48.375 
Q 55.71875 40.765625 55.71875 27.296875 
Q 55.71875 13.875 49.015625 6.21875 
Q 42.328125 -1.421875 30.609375 -1.421875 
Q 18.84375 -1.421875 12.171875 6.21875 
Q 5.515625 13.875 5.515625 27.296875 
Q 5.515625 40.765625 12.171875 48.375 
Q 18.84375 56 30.609375 56 
z
" id="DejaVuSans-111"/>
       <path d="M 52 44.1875 
Q 55.375 50.25 60.0625 53.125 
Q 64.75 56 71.09375 56 
Q 79.640625 56 84.28125 50.015625 
Q 88.921875 44.046875 88.921875 33.015625 
L 88.921875 0 
L 79.890625 0 
L 79.890625 32.71875 
Q 79.890625 40.578125 77.09375 44.375 
Q 74.3125 48.1875 68.609375 48.1875 
Q 61.625 48.1875 57.5625 43.546875 
Q 53.515625 38.921875 53.515625 30.90625 
L 53.515625 0 
L 44.484375 0 
L 44.484375 32.71875 
Q 44.484375 40.625 41.703125 44.40625 
Q 38.921875 48.1875 33.109375 48.1875 
Q 26.21875 48.1875 22.15625 43.53125 
Q 18.109375 38.875 18.109375 30.90625 
L 18.109375 0 
L 9.078125 0 
L 9.078125 54.6875 
L 18.109375 54.6875 
L 18.109375 46.1875 
Q 21.1875 51.21875 25.484375 53.609375 
Q 29.78125 56 35.6875 56 
Q 41.65625 56 45.828125 52.96875 
Q 50 49.953125 52 44.1875 
z
" id="DejaVuSans-109"/>
      </defs>
      <use xlink:href="#DejaVuSans-67"/>
      <use x="69.824219" xlink:href="#DejaVuSans-105"/>
      <use x="97.607422" xlink:href="#DejaVuSans-116"/>
      <use x="136.816406" xlink:href="#DejaVuSans-105"/>
      <use x="164.599609" xlink:href="#DejaVuSans-122"/>
      <use x="217.089844" xlink:href="#DejaVuSans-101"/>
      <use x="278.613281" xlink:href="#DejaVuSans-110"/>
      <use x="341.992188" xlink:href="#DejaVuSans-115"/>
      <use x="394.091797" xlink:href="#DejaVuSans-32"/>
      <use x="425.878906" xlink:href="#DejaVuSans-102"/>
      <use x="461.083984" xlink:href="#DejaVuSans-114"/>
      <use x="499.947266" xlink:href="#DejaVuSans-111"/>
      <use x="561.128906" xlink:href="#DejaVuSans-109"/>
     </g>
    </g>
    <g id="PathCollection_10">
     <defs>
      <path d="M 0 12 
C 3.182437 12 6.234958 10.735604 8.485281 8.485281 
C 10.735604 6.234958 12 3.182437 12 0 
C 12 -3.182437 10.735604 -6.234958 8.485281 -8.485281 
C 6.234958 -10.735604 3.182437 -12 0 -12 
C -3.182437 -12 -6.234958 -10.735604 -8.485281 -8.485281 
C -10.735604 -6.234958 -12 -3.182437 -12 0 
C -12 3.182437 -10.735604 6.234958 -8.485281 8.485281 
C -6.234958 10.735604 -3.182437 12 0 12 
z
" id="mfc03e76d37" style="stroke:#1f77b4;"/>
     </defs>
     <g>
      <use style="fill:#1f77b4;stroke:#1f77b4;" x="1038.454688" xlink:href="#mfc03e76d37" y="204.394687"/>
     </g>
    </g>
    <g id="text_20">
     <!-- BG -->
     <g transform="translate(1092.454688 212.269687)scale(0.3 -0.3)">
      <defs>
       <path d="M 19.671875 34.8125 
L 19.671875 8.109375 
L 35.5 8.109375 
Q 43.453125 8.109375 47.28125 11.40625 
Q 51.125 14.703125 51.125 21.484375 
Q 51.125 28.328125 47.28125 31.5625 
Q 43.453125 34.8125 35.5 34.8125 
z
M 19.671875 64.796875 
L 19.671875 42.828125 
L 34.28125 42.828125 
Q 41.5 42.828125 45.03125 45.53125 
Q 48.578125 48.25 48.578125 53.8125 
Q 48.578125 59.328125 45.03125 62.0625 
Q 41.5 64.796875 34.28125 64.796875 
z
M 9.8125 72.90625 
L 35.015625 72.90625 
Q 46.296875 72.90625 52.390625 68.21875 
Q 58.5 63.53125 58.5 54.890625 
Q 58.5 48.1875 55.375 44.234375 
Q 52.25 40.28125 46.1875 39.3125 
Q 53.46875 37.75 57.5 32.78125 
Q 61.53125 27.828125 61.53125 20.40625 
Q 61.53125 10.640625 54.890625 5.3125 
Q 48.25 0 35.984375 0 
L 9.8125 0 
z
" id="DejaVuSans-66"/>
       <path d="M 59.515625 10.40625 
L 59.515625 29.984375 
L 43.40625 29.984375 
L 43.40625 38.09375 
L 69.28125 38.09375 
L 69.28125 6.78125 
Q 63.578125 2.734375 56.6875 0.65625 
Q 49.8125 -1.421875 42 -1.421875 
Q 24.90625 -1.421875 15.25 8.5625 
Q 5.609375 18.5625 5.609375 36.375 
Q 5.609375 54.25 15.25 64.234375 
Q 24.90625 74.21875 42 74.21875 
Q 49.125 74.21875 55.546875 72.453125 
Q 61.96875 70.703125 67.390625 67.28125 
L 67.390625 56.78125 
Q 61.921875 61.421875 55.765625 63.765625 
Q 49.609375 66.109375 42.828125 66.109375 
Q 29.4375 66.109375 22.71875 58.640625 
Q 16.015625 51.171875 16.015625 36.375 
Q 16.015625 21.625 22.71875 14.15625 
Q 29.4375 6.6875 42.828125 6.6875 
Q 48.046875 6.6875 52.140625 7.59375 
Q 56.25 8.5 59.515625 10.40625 
z
" id="DejaVuSans-71"/>
      </defs>
      <use xlink:href="#DejaVuSans-66"/>
      <use x="66.853516" xlink:href="#DejaVuSans-71"/>
     </g>
    </g>
    <g id="PathCollection_11">
     <defs>
      <path d="M 0 12 
C 3.182437 12 6.234958 10.735604 8.485281 8.485281 
C 10.735604 6.234958 12 3.182437 12 0 
C 12 -3.182437 10.735604 -6.234958 8.485281 -8.485281 
C 6.234958 -10.735604 3.182437 -12 0 -12 
C -3.182437 -12 -6.234958 -10.735604 -8.485281 -8.485281 
C -10.735604 -6.234958 -12 -3.182437 -12 0 
C -12 3.182437 -10.735604 6.234958 -8.485281 8.485281 
C -6.234958 10.735604 -3.182437 12 0 12 
z
" id="me00257ab88" style="stroke:#ff7f0e;"/>
     </defs>
     <g>
      <use style="fill:#ff7f0e;stroke:#ff7f0e;" x="1038.454688" xlink:href="#me00257ab88" y="248.429062"/>
     </g>
    </g>
    <g id="text_21">
     <!-- DE -->
     <g transform="translate(1092.454688 256.304062)scale(0.3 -0.3)">
      <defs>
       <path d="M 19.671875 64.796875 
L 19.671875 8.109375 
L 31.59375 8.109375 
Q 46.6875 8.109375 53.6875 14.9375 
Q 60.6875 21.78125 60.6875 36.53125 
Q 60.6875 51.171875 53.6875 57.984375 
Q 46.6875 64.796875 31.59375 64.796875 
z
M 9.8125 72.90625 
L 30.078125 72.90625 
Q 51.265625 72.90625 61.171875 64.09375 
Q 71.09375 55.28125 71.09375 36.53125 
Q 71.09375 17.671875 61.125 8.828125 
Q 51.171875 0 30.078125 0 
L 9.8125 0 
z
" id="DejaVuSans-68"/>
       <path d="M 9.8125 72.90625 
L 55.90625 72.90625 
L 55.90625 64.59375 
L 19.671875 64.59375 
L 19.671875 43.015625 
L 54.390625 43.015625 
L 54.390625 34.71875 
L 19.671875 34.71875 
L 19.671875 8.296875 
L 56.78125 8.296875 
L 56.78125 0 
L 9.8125 0 
z
" id="DejaVuSans-69"/>
      </defs>
      <use xlink:href="#DejaVuSans-68"/>
      <use x="77.001953" xlink:href="#DejaVuSans-69"/>
     </g>
    </g>
    <g id="PathCollection_12">
     <defs>
      <path d="M 0 12 
C 3.182437 12 6.234958 10.735604 8.485281 8.485281 
C 10.735604 6.234958 12 3.182437 12 0 
C 12 -3.182437 10.735604 -6.234958 8.485281 -8.485281 
C 6.234958 -10.735604 3.182437 -12 0 -12 
C -3.182437 -12 -6.234958 -10.735604 -8.485281 -8.485281 
C -10.735604 -6.234958 -12 -3.182437 -12 0 
C -12 3.182437 -10.735604 6.234958 -8.485281 8.485281 
C -6.234958 10.735604 -3.182437 12 0 12 
z
" id="m99655b9229" style="stroke:#2ca02c;"/>
     </defs>
     <g>
      <use style="fill:#2ca02c;stroke:#2ca02c;" x="1038.454688" xlink:href="#m99655b9229" y="292.463437"/>
     </g>
    </g>
    <g id="text_22">
     <!-- ES -->
     <g transform="translate(1092.454688 300.338437)scale(0.3 -0.3)">
      <defs>
       <path d="M 53.515625 70.515625 
L 53.515625 60.890625 
Q 47.90625 63.578125 42.921875 64.890625 
Q 37.9375 66.21875 33.296875 66.21875 
Q 25.25 66.21875 20.875 63.09375 
Q 16.5 59.96875 16.5 54.203125 
Q 16.5 49.359375 19.40625 46.890625 
Q 22.3125 44.4375 30.421875 42.921875 
L 36.375 41.703125 
Q 47.40625 39.59375 52.65625 34.296875 
Q 57.90625 29 57.90625 20.125 
Q 57.90625 9.515625 50.796875 4.046875 
Q 43.703125 -1.421875 29.984375 -1.421875 
Q 24.8125 -1.421875 18.96875 -0.25 
Q 13.140625 0.921875 6.890625 3.21875 
L 6.890625 13.375 
Q 12.890625 10.015625 18.65625 8.296875 
Q 24.421875 6.59375 29.984375 6.59375 
Q 38.421875 6.59375 43.015625 9.90625 
Q 47.609375 13.234375 47.609375 19.390625 
Q 47.609375 24.75 44.3125 27.78125 
Q 41.015625 30.8125 33.5 32.328125 
L 27.484375 33.5 
Q 16.453125 35.6875 11.515625 40.375 
Q 6.59375 45.0625 6.59375 53.421875 
Q 6.59375 63.09375 13.40625 68.65625 
Q 20.21875 74.21875 32.171875 74.21875 
Q 37.3125 74.21875 42.625 73.28125 
Q 47.953125 72.359375 53.515625 70.515625 
z
" id="DejaVuSans-83"/>
      </defs>
      <use xlink:href="#DejaVuSans-69"/>
      <use x="63.183594" xlink:href="#DejaVuSans-83"/>
     </g>
    </g>
    <g id="PathCollection_13">
     <defs>
      <path d="M 0 12 
C 3.182437 12 6.234958 10.735604 8.485281 8.485281 
C 10.735604 6.234958 12 3.182437 12 0 
C 12 -3.182437 10.735604 -6.234958 8.485281 -8.485281 
C 6.234958 -10.735604 3.182437 -12 0 -12 
C -3.182437 -12 -6.234958 -10.735604 -8.485281 -8.485281 
C -10.735604 -6.234958 -12 -3.182437 -12 0 
C -12 3.182437 -10.735604 6.234958 -8.485281 8.485281 
C -6.234958 10.735604 -3.182437 12 0 12 
z
" id="mce4cde21ea" style="stroke:#d62728;"/>
     </defs>
     <g>
      <use style="fill:#d62728;stroke:#d62728;" x="1038.454688" xlink:href="#mce4cde21ea" y="336.497812"/>
     </g>
    </g>
    <g id="text_23">
     <!-- FR -->
     <g transform="translate(1092.454688 344.372812)scale(0.3 -0.3)">
      <defs>
       <path d="M 9.8125 72.90625 
L 51.703125 72.90625 
L 51.703125 64.59375 
L 19.671875 64.59375 
L 19.671875 43.109375 
L 48.578125 43.109375 
L 48.578125 34.8125 
L 19.671875 34.8125 
L 19.671875 0 
L 9.8125 0 
z
" id="DejaVuSans-70"/>
       <path d="M 44.390625 34.1875 
Q 47.5625 33.109375 50.5625 29.59375 
Q 53.5625 26.078125 56.59375 19.921875 
L 66.609375 0 
L 56 0 
L 46.6875 18.703125 
Q 43.0625 26.03125 39.671875 28.421875 
Q 36.28125 30.8125 30.421875 30.8125 
L 19.671875 30.8125 
L 19.671875 0 
L 9.8125 0 
L 9.8125 72.90625 
L 32.078125 72.90625 
Q 44.578125 72.90625 50.734375 67.671875 
Q 56.890625 62.453125 56.890625 51.90625 
Q 56.890625 45.015625 53.6875 40.46875 
Q 50.484375 35.9375 44.390625 34.1875 
z
M 19.671875 64.796875 
L 19.671875 38.921875 
L 32.078125 38.921875 
Q 39.203125 38.921875 42.84375 42.21875 
Q 46.484375 45.515625 46.484375 51.90625 
Q 46.484375 58.296875 42.84375 61.546875 
Q 39.203125 64.796875 32.078125 64.796875 
z
" id="DejaVuSans-82"/>
      </defs>
      <use xlink:href="#DejaVuSans-70"/>
      <use x="57.519531" xlink:href="#DejaVuSans-82"/>
     </g>
    </g>
    <g id="PathCollection_14">
     <defs>
      <path d="M 0 12 
C 3.182437 12 6.234958 10.735604 8.485281 8.485281 
C 10.735604 6.234958 12 3.182437 12 0 
C 12 -3.182437 10.735604 -6.234958 8.485281 -8.485281 
C 6.234958 -10.735604 3.182437 -12 0 -12 
C -3.182437 -12 -6.234958 -10.735604 -8.485281 -8.485281 
C -10.735604 -6.234958 -12 -3.182437 -12 0 
C -12 3.182437 -10.735604 6.234958 -8.485281 8.485281 
C -6.234958 10.735604 -3.182437 12 0 12 
z
" id="mb9a21d4ce8" style="stroke:#9467bd;"/>
     </defs>
     <g>
      <use style="fill:#9467bd;stroke:#9467bd;" x="1038.454688" xlink:href="#mb9a21d4ce8" y="380.532187"/>
     </g>
    </g>
    <g id="text_24">
     <!-- GB -->
     <g transform="translate(1092.454688 388.407187)scale(0.3 -0.3)">
      <use xlink:href="#DejaVuSans-71"/>
      <use x="77.490234" xlink:href="#DejaVuSans-66"/>
     </g>
    </g>
    <g id="PathCollection_15">
     <defs>
      <path d="M 0 12 
C 3.182437 12 6.234958 10.735604 8.485281 8.485281 
C 10.735604 6.234958 12 3.182437 12 0 
C 12 -3.182437 10.735604 -6.234958 8.485281 -8.485281 
C 6.234958 -10.735604 3.182437 -12 0 -12 
C -3.182437 -12 -6.234958 -10.735604 -8.485281 -8.485281 
C -10.735604 -6.234958 -12 -3.182437 -12 0 
C -12 3.182437 -10.735604 6.234958 -8.485281 8.485281 
C -6.234958 10.735604 -3.182437 12 0 12 
z
" id="m98288b587b" style="stroke:#8c564b;"/>
     </defs>
     <g>
      <use style="fill:#8c564b;stroke:#8c564b;" x="1226.282813" xlink:href="#m98288b587b" y="204.394687"/>
     </g>
    </g>
    <g id="text_25">
     <!-- HU -->
     <g transform="translate(1280.282813 212.269687)scale(0.3 -0.3)">
      <defs>
       <path d="M 9.8125 72.90625 
L 19.671875 72.90625 
L 19.671875 43.015625 
L 55.515625 43.015625 
L 55.515625 72.90625 
L 65.375 72.90625 
L 65.375 0 
L 55.515625 0 
L 55.515625 34.71875 
L 19.671875 34.71875 
L 19.671875 0 
L 9.8125 0 
z
" id="DejaVuSans-72"/>
       <path d="M 8.6875 72.90625 
L 18.609375 72.90625 
L 18.609375 28.609375 
Q 18.609375 16.890625 22.84375 11.734375 
Q 27.09375 6.59375 36.625 6.59375 
Q 46.09375 6.59375 50.34375 11.734375 
Q 54.59375 16.890625 54.59375 28.609375 
L 54.59375 72.90625 
L 64.5 72.90625 
L 64.5 27.390625 
Q 64.5 13.140625 57.4375 5.859375 
Q 50.390625 -1.421875 36.625 -1.421875 
Q 22.796875 -1.421875 15.734375 5.859375 
Q 8.6875 13.140625 8.6875 27.390625 
z
" id="DejaVuSans-85"/>
      </defs>
      <use xlink:href="#DejaVuSans-72"/>
      <use x="75.195312" xlink:href="#DejaVuSans-85"/>
     </g>
    </g>
    <g id="PathCollection_16">
     <defs>
      <path d="M 0 12 
C 3.182437 12 6.234958 10.735604 8.485281 8.485281 
C 10.735604 6.234958 12 3.182437 12 0 
C 12 -3.182437 10.735604 -6.234958 8.485281 -8.485281 
C 6.234958 -10.735604 3.182437 -12 0 -12 
C -3.182437 -12 -6.234958 -10.735604 -8.485281 -8.485281 
C -10.735604 -6.234958 -12 -3.182437 -12 0 
C -12 3.182437 -10.735604 6.234958 -8.485281 8.485281 
C -6.234958 10.735604 -3.182437 12 0 12 
z
" id="m5cb05d0695" style="stroke:#e377c2;"/>
     </defs>
     <g>
      <use style="fill:#e377c2;stroke:#e377c2;" x="1226.282813" xlink:href="#m5cb05d0695" y="248.429062"/>
     </g>
    </g>
    <g id="text_26">
     <!-- IT -->
     <g transform="translate(1280.282813 256.304062)scale(0.3 -0.3)">
      <defs>
       <path d="M 9.8125 72.90625 
L 19.671875 72.90625 
L 19.671875 0 
L 9.8125 0 
z
" id="DejaVuSans-73"/>
       <path d="M -0.296875 72.90625 
L 61.375 72.90625 
L 61.375 64.59375 
L 35.5 64.59375 
L 35.5 0 
L 25.59375 0 
L 25.59375 64.59375 
L -0.296875 64.59375 
z
" id="DejaVuSans-84"/>
      </defs>
      <use xlink:href="#DejaVuSans-73"/>
      <use x="29.492188" xlink:href="#DejaVuSans-84"/>
     </g>
    </g>
    <g id="PathCollection_17">
     <defs>
      <path d="M 0 12 
C 3.182437 12 6.234958 10.735604 8.485281 8.485281 
C 10.735604 6.234958 12 3.182437 12 0 
C 12 -3.182437 10.735604 -6.234958 8.485281 -8.485281 
C 6.234958 -10.735604 3.182437 -12 0 -12 
C -3.182437 -12 -6.234958 -10.735604 -8.485281 -8.485281 
C -10.735604 -6.234958 -12 -3.182437 -12 0 
C -12 3.182437 -10.735604 6.234958 -8.485281 8.485281 
C -6.234958 10.735604 -3.182437 12 0 12 
z
" id="md305eb0c75" style="stroke:#7f7f7f;"/>
     </defs>
     <g>
      <use style="fill:#7f7f7f;stroke:#7f7f7f;" x="1226.282813" xlink:href="#md305eb0c75" y="292.463437"/>
     </g>
    </g>
    <g id="text_27">
     <!-- RU -->
     <g transform="translate(1280.282813 300.338437)scale(0.3 -0.3)">
      <use xlink:href="#DejaVuSans-82"/>
      <use x="69.482422" xlink:href="#DejaVuSans-85"/>
     </g>
    </g>
    <g id="PathCollection_18">
     <defs>
      <path d="M 0 12 
C 3.182437 12 6.234958 10.735604 8.485281 8.485281 
C 10.735604 6.234958 12 3.182437 12 0 
C 12 -3.182437 10.735604 -6.234958 8.485281 -8.485281 
C 6.234958 -10.735604 3.182437 -12 0 -12 
C -3.182437 -12 -6.234958 -10.735604 -8.485281 -8.485281 
C -10.735604 -6.234958 -12 -3.182437 -12 0 
C -12 3.182437 -10.735604 6.234958 -8.485281 8.485281 
C -6.234958 10.735604 -3.182437 12 0 12 
z
" id="m23795a983f" style="stroke:#bcbd22;"/>
     </defs>
     <g>
      <use style="fill:#bcbd22;stroke:#bcbd22;" x="1226.282813" xlink:href="#m23795a983f" y="336.497812"/>
     </g>
    </g>
    <g id="text_28">
     <!-- SE -->
     <g transform="translate(1280.282813 344.372812)scale(0.3 -0.3)">
      <use xlink:href="#DejaVuSans-83"/>
      <use x="63.476562" xlink:href="#DejaVuSans-69"/>
     </g>
    </g>
   </g>
  </g>
 </g>
 <defs>
  <clipPath id="pb2e6af9c65">
   <rect height="1087.2" width="1116" x="180" y="172.8"/>
  </clipPath>
 </defs>
</svg>
