<?xml version="1.0" encoding="utf-8" standalone="no"?>
<!DOCTYPE svg PUBLIC "-//W3C//DTD SVG 1.1//EN"
  "http://www.w3.org/Graphics/SVG/1.1/DTD/svg11.dtd">
<!-- Created with matplotlib (https://matplotlib.org/) -->
<svg height="360pt" version="1.1" viewBox="0 0 360 360" width="360pt" xmlns="http://www.w3.org/2000/svg" xmlns:xlink="http://www.w3.org/1999/xlink">
 <metadata>
  <rdf:RDF xmlns:cc="http://creativecommons.org/ns#" xmlns:dc="http://purl.org/dc/elements/1.1/" xmlns:rdf="http://www.w3.org/1999/02/22-rdf-syntax-ns#">
   <cc:Work>
    <dc:type rdf:resource="http://purl.org/dc/dcmitype/StillImage"/>
    <dc:date>2021-06-07T10:47:46.689188</dc:date>
    <dc:format>image/svg+xml</dc:format>
    <dc:creator>
     <cc:Agent>
      <dc:title>Matplotlib v3.3.4, https://matplotlib.org/</dc:title>
     </cc:Agent>
    </dc:creator>
   </cc:Work>
  </rdf:RDF>
 </metadata>
 <defs>
  <style type="text/css">*{stroke-linecap:butt;stroke-linejoin:round;}</style>
 </defs>
 <g id="figure_1">
  <g id="patch_1">
   <path d="M 0 360 
L 360 360 
L 360 0 
L 0 0 
z
" style="fill:#ffffff;"/>
  </g>
  <g id="axes_1">
   <g id="PathCollection_1">
    <defs>
     <path d="M 0 3 
C 0.795609 3 1.55874 2.683901 2.12132 2.12132 
C 2.683901 1.55874 3 0.795609 3 0 
C 3 -0.795609 2.683901 -1.55874 2.12132 -2.12132 
C 1.55874 -2.683901 0.795609 -3 0 -3 
C -0.795609 -3 -1.55874 -2.683901 -2.12132 -2.12132 
C -2.683901 -1.55874 -3 -0.795609 -3 0 
C -3 0.795609 -2.683901 1.55874 -2.12132 2.12132 
C -1.55874 2.683901 -0.795609 3 0 3 
z
" id="m9b1ae0fdc5" style="stroke:#1f77b4;"/>
    </defs>
    <g clip-path="url(#pef088da212)">
     <use style="fill:#1f77b4;stroke:#1f77b4;" x="180.481322" xlink:href="#m9b1ae0fdc5" y="285.558653"/>
     <use style="fill:#1f77b4;stroke:#1f77b4;" x="179.402664" xlink:href="#m9b1ae0fdc5" y="285.206327"/>
     <use style="fill:#1f77b4;stroke:#1f77b4;" x="186.797674" xlink:href="#m9b1ae0fdc5" y="290.581718"/>
     <use style="fill:#1f77b4;stroke:#1f77b4;" x="181.364933" xlink:href="#m9b1ae0fdc5" y="287.065117"/>
     <use style="fill:#1f77b4;stroke:#1f77b4;" x="184.140235" xlink:href="#m9b1ae0fdc5" y="279.757089"/>
    </g>
   </g>
   <g id="PathCollection_2">
    <defs>
     <path d="M 0 3 
C 0.795609 3 1.55874 2.683901 2.12132 2.12132 
C 2.683901 1.55874 3 0.795609 3 0 
C 3 -0.795609 2.683901 -1.55874 2.12132 -2.12132 
C 1.55874 -2.683901 0.795609 -3 0 -3 
C -0.795609 -3 -1.55874 -2.683901 -2.12132 -2.12132 
C -2.683901 -1.55874 -3 -0.795609 -3 0 
C -3 0.795609 -2.683901 1.55874 -2.12132 2.12132 
C -1.55874 2.683901 -0.795609 3 0 3 
z
" id="m5aaca07722" style="stroke:#ff7f0e;"/>
    </defs>
    <g clip-path="url(#pef088da212)">
     <use style="fill:#ff7f0e;stroke:#ff7f0e;" x="187.424557" xlink:href="#m5aaca07722" y="264.831443"/>
     <use style="fill:#ff7f0e;stroke:#ff7f0e;" x="186.685809" xlink:href="#m5aaca07722" y="262.474551"/>
     <use style="fill:#ff7f0e;stroke:#ff7f0e;" x="187.722504" xlink:href="#m5aaca07722" y="268.175489"/>
     <use style="fill:#ff7f0e;stroke:#ff7f0e;" x="182.308273" xlink:href="#m5aaca07722" y="259.047118"/>
     <use style="fill:#ff7f0e;stroke:#ff7f0e;" x="183.402547" xlink:href="#m5aaca07722" y="255.470008"/>
    </g>
   </g>
   <g id="PathCollection_3">
    <defs>
     <path d="M 0 3 
C 0.795609 3 1.55874 2.683901 2.12132 2.12132 
C 2.683901 1.55874 3 0.795609 3 0 
C 3 -0.795609 2.683901 -1.55874 2.12132 -2.12132 
C 1.55874 -2.683901 0.795609 -3 0 -3 
C -0.795609 -3 -1.55874 -2.683901 -2.12132 -2.12132 
C -2.683901 -1.55874 -3 -0.795609 -3 0 
C -3 0.795609 -2.683901 1.55874 -2.12132 2.12132 
C -1.55874 2.683901 -0.795609 3 0 3 
z
" id="m6feda4fbc5" style="stroke:#2ca02c;"/>
    </defs>
    <g clip-path="url(#pef088da212)">
     <use style="fill:#2ca02c;stroke:#2ca02c;" x="180.831408" xlink:href="#m6feda4fbc5" y="235.700192"/>
     <use style="fill:#2ca02c;stroke:#2ca02c;" x="187.290888" xlink:href="#m6feda4fbc5" y="235.879808"/>
     <use style="fill:#2ca02c;stroke:#2ca02c;" x="180.875133" xlink:href="#m6feda4fbc5" y="233.65638"/>
     <use style="fill:#2ca02c;stroke:#2ca02c;" x="182.145308" xlink:href="#m6feda4fbc5" y="241.086505"/>
     <use style="fill:#2ca02c;stroke:#2ca02c;" x="183.717799" xlink:href="#m6feda4fbc5" y="239.132166"/>
    </g>
   </g>
   <g id="PathCollection_4">
    <defs>
     <path d="M 0 3 
C 0.795609 3 1.55874 2.683901 2.12132 2.12132 
C 2.683901 1.55874 3 0.795609 3 0 
C 3 -0.795609 2.683901 -1.55874 2.12132 -2.12132 
C 1.55874 -2.683901 0.795609 -3 0 -3 
C -0.795609 -3 -1.55874 -2.683901 -2.12132 -2.12132 
C -2.683901 -1.55874 -3 -0.795609 -3 0 
C -3 0.795609 -2.683901 1.55874 -2.12132 2.12132 
C -1.55874 2.683901 -0.795609 3 0 3 
z
" id="m2e7464dbab" style="stroke:#d62728;"/>
    </defs>
    <g clip-path="url(#pef088da212)">
     <use style="fill:#d62728;stroke:#d62728;" x="188.613353" xlink:href="#m2e7464dbab" y="208.140102"/>
     <use style="fill:#d62728;stroke:#d62728;" x="190.712461" xlink:href="#m2e7464dbab" y="214.089326"/>
     <use style="fill:#d62728;stroke:#d62728;" x="173.77451" xlink:href="#m2e7464dbab" y="217.327006"/>
     <use style="fill:#d62728;stroke:#d62728;" x="185.066764" xlink:href="#m2e7464dbab" y="210.638822"/>
     <use style="fill:#d62728;stroke:#d62728;" x="184.452672" xlink:href="#m2e7464dbab" y="211.186867"/>
    </g>
   </g>
   <g id="PathCollection_5">
    <defs>
     <path d="M 0 3 
C 0.795609 3 1.55874 2.683901 2.12132 2.12132 
C 2.683901 1.55874 3 0.795609 3 0 
C 3 -0.795609 2.683901 -1.55874 2.12132 -2.12132 
C 1.55874 -2.683901 0.795609 -3 0 -3 
C -0.795609 -3 -1.55874 -2.683901 -2.12132 -2.12132 
C -2.683901 -1.55874 -3 -0.795609 -3 0 
C -3 0.795609 -2.683901 1.55874 -2.12132 2.12132 
C -1.55874 2.683901 -0.795609 3 0 3 
z
" id="mc7f5b1986d" style="stroke:#9467bd;"/>
    </defs>
    <g clip-path="url(#pef088da212)">
     <use style="fill:#9467bd;stroke:#9467bd;" x="188.012816" xlink:href="#mc7f5b1986d" y="184.425204"/>
     <use style="fill:#9467bd;stroke:#9467bd;" x="183.208646" xlink:href="#mc7f5b1986d" y="191.556378"/>
     <use style="fill:#9467bd;stroke:#9467bd;" x="178.547384" xlink:href="#mc7f5b1986d" y="189.073047"/>
     <use style="fill:#9467bd;stroke:#9467bd;" x="187.350066" xlink:href="#mc7f5b1986d" y="180.482903"/>
     <use style="fill:#9467bd;stroke:#9467bd;" x="186.661213" xlink:href="#mc7f5b1986d" y="187.127264"/>
    </g>
   </g>
   <g id="PathCollection_6">
    <defs>
     <path d="M 0 3 
C 0.795609 3 1.55874 2.683901 2.12132 2.12132 
C 2.683901 1.55874 3 0.795609 3 0 
C 3 -0.795609 2.683901 -1.55874 2.12132 -2.12132 
C 1.55874 -2.683901 0.795609 -3 0 -3 
C -0.795609 -3 -1.55874 -2.683901 -2.12132 -2.12132 
C -2.683901 -1.55874 -3 -0.795609 -3 0 
C -3 0.795609 -2.683901 1.55874 -2.12132 2.12132 
C -1.55874 2.683901 -0.795609 3 0 3 
z
" id="m4fa4320605" style="stroke:#8c564b;"/>
    </defs>
    <g clip-path="url(#pef088da212)">
     <use style="fill:#8c564b;stroke:#8c564b;" x="184.661372" xlink:href="#m4fa4320605" y="162.975303"/>
     <use style="fill:#8c564b;stroke:#8c564b;" x="181.28362" xlink:href="#m4fa4320605" y="166.95205"/>
     <use style="fill:#8c564b;stroke:#8c564b;" x="185.732507" xlink:href="#m4fa4320605" y="171.110143"/>
     <use style="fill:#8c564b;stroke:#8c564b;" x="179.83898" xlink:href="#m4fa4320605" y="176.935812"/>
     <use style="fill:#8c564b;stroke:#8c564b;" x="183.335683" xlink:href="#m4fa4320605" y="160.903609"/>
    </g>
   </g>
   <g id="PathCollection_7">
    <defs>
     <path d="M 0 3 
C 0.795609 3 1.55874 2.683901 2.12132 2.12132 
C 2.683901 1.55874 3 0.795609 3 0 
C 3 -0.795609 2.683901 -1.55874 2.12132 -2.12132 
C 1.55874 -2.683901 0.795609 -3 0 -3 
C -0.795609 -3 -1.55874 -2.683901 -2.12132 -2.12132 
C -2.683901 -1.55874 -3 -0.795609 -3 0 
C -3 0.795609 -2.683901 1.55874 -2.12132 2.12132 
C -1.55874 2.683901 -0.795609 3 0 3 
z
" id="m5bc1a5694a" style="stroke:#e377c2;"/>
    </defs>
    <g clip-path="url(#pef088da212)">
     <use style="fill:#e377c2;stroke:#e377c2;" x="184.640561" xlink:href="#m5bc1a5694a" y="142.942152"/>
     <use style="fill:#e377c2;stroke:#e377c2;" x="188.186186" xlink:href="#m5bc1a5694a" y="143.136352"/>
     <use style="fill:#e377c2;stroke:#e377c2;" x="183.024913" xlink:href="#m5bc1a5694a" y="136.732354"/>
     <use style="fill:#e377c2;stroke:#e377c2;" x="184.413364" xlink:href="#m5bc1a5694a" y="141.650535"/>
     <use style="fill:#e377c2;stroke:#e377c2;" x="182.20917" xlink:href="#m5bc1a5694a" y="140.263744"/>
    </g>
   </g>
   <g id="PathCollection_8">
    <defs>
     <path d="M 0 3 
C 0.795609 3 1.55874 2.683901 2.12132 2.12132 
C 2.683901 1.55874 3 0.795609 3 0 
C 3 -0.795609 2.683901 -1.55874 2.12132 -2.12132 
C 1.55874 -2.683901 0.795609 -3 0 -3 
C -0.795609 -3 -1.55874 -2.683901 -2.12132 -2.12132 
C -2.683901 -1.55874 -3 -0.795609 -3 0 
C -3 0.795609 -2.683901 1.55874 -2.12132 2.12132 
C -1.55874 2.683901 -0.795609 3 0 3 
z
" id="m79f1dba8d0" style="stroke:#7f7f7f;"/>
    </defs>
    <g clip-path="url(#pef088da212)">
     <use style="fill:#7f7f7f;stroke:#7f7f7f;" x="186.733723" xlink:href="#m79f1dba8d0" y="119.932362"/>
     <use style="fill:#7f7f7f;stroke:#7f7f7f;" x="181.415403" xlink:href="#m79f1dba8d0" y="118.692063"/>
     <use style="fill:#7f7f7f;stroke:#7f7f7f;" x="194.493348" xlink:href="#m79f1dba8d0" y="124.217803"/>
     <use style="fill:#7f7f7f;stroke:#7f7f7f;" x="187.408502" xlink:href="#m79f1dba8d0" y="121.665775"/>
     <use style="fill:#7f7f7f;stroke:#7f7f7f;" x="187.056033" xlink:href="#m79f1dba8d0" y="120.865914"/>
    </g>
   </g>
   <g id="PathCollection_9">
    <defs>
     <path d="M 0 3 
C 0.795609 3 1.55874 2.683901 2.12132 2.12132 
C 2.683901 1.55874 3 0.795609 3 0 
C 3 -0.795609 2.683901 -1.55874 2.12132 -2.12132 
C 1.55874 -2.683901 0.795609 -3 0 -3 
C -0.795609 -3 -1.55874 -2.683901 -2.12132 -2.12132 
C -2.683901 -1.55874 -3 -0.795609 -3 0 
C -3 0.795609 -2.683901 1.55874 -2.12132 2.12132 
C -1.55874 2.683901 -0.795609 3 0 3 
z
" id="m422882f35f" style="stroke:#bcbd22;"/>
    </defs>
    <g clip-path="url(#pef088da212)">
     <use style="fill:#bcbd22;stroke:#bcbd22;" x="180.05318" xlink:href="#m422882f35f" y="98.527007"/>
     <use style="fill:#bcbd22;stroke:#bcbd22;" x="190.613277" xlink:href="#m422882f35f" y="92.755065"/>
     <use style="fill:#bcbd22;stroke:#bcbd22;" x="176.617027" xlink:href="#m422882f35f" y="100.724876"/>
     <use style="fill:#bcbd22;stroke:#bcbd22;" x="179.284282" xlink:href="#m422882f35f" y="100.626885"/>
     <use style="fill:#bcbd22;stroke:#bcbd22;" x="185.620561" xlink:href="#m422882f35f" y="94.443224"/>
    </g>
   </g>
   <g id="PathCollection_10">
    <defs>
     <path d="M 0 3 
C 0.795609 3 1.55874 2.683901 2.12132 2.12132 
C 2.683901 1.55874 3 0.795609 3 0 
C 3 -0.795609 2.683901 -1.55874 2.12132 -2.12132 
C 1.55874 -2.683901 0.795609 -3 0 -3 
C -0.795609 -3 -1.55874 -2.683901 -2.12132 -2.12132 
C -2.683901 -1.55874 -3 -0.795609 -3 0 
C -3 0.795609 -2.683901 1.55874 -2.12132 2.12132 
C -1.55874 2.683901 -0.795609 3 0 3 
z
" id="meba6f780fb" style="stroke:#17becf;"/>
    </defs>
    <g clip-path="url(#pef088da212)">
     <use style="fill:#17becf;stroke:#17becf;" x="186.913932" xlink:href="#meba6f780fb" y="73.877535"/>
     <use style="fill:#17becf;stroke:#17becf;" x="189.673193" xlink:href="#meba6f780fb" y="65.871449"/>
     <use style="fill:#17becf;stroke:#17becf;" x="188.844469" xlink:href="#meba6f780fb" y="66.578628"/>
     <use style="fill:#17becf;stroke:#17becf;" x="180.561229" xlink:href="#meba6f780fb" y="78.806555"/>
     <use style="fill:#17becf;stroke:#17becf;" x="179.449658" xlink:href="#meba6f780fb" y="76.133685"/>
    </g>
   </g>
   <g id="patch_2">
    <path clip-path="url(#pef088da212)" d="M 184.5 302.645455 
C 186.994081 302.645455 189.386347 300.663637 191.149928 297.136474 
C 192.91351 293.609311 193.904419 288.824779 193.904419 283.836617 
C 193.904419 278.848455 192.91351 274.063924 191.149928 270.536761 
C 189.386347 267.009598 186.994081 265.02778 184.5 265.02778 
C 182.005919 265.02778 179.613653 267.009598 177.850072 270.536761 
C 176.08649 274.063924 175.095581 278.848455 175.095581 283.836617 
C 175.095581 288.824779 176.08649 293.609311 177.850072 297.136474 
C 179.613653 300.663637 182.005919 302.645455 184.5 302.645455 
z
" style="fill:none;stroke:#1f77b4;stroke-linejoin:miter;stroke-width:2;"/>
   </g>
   <g id="patch_3">
    <path clip-path="url(#pef088da212)" d="M 195.555557 275.54224 
C 197.573311 274.076256 198.343811 271.066793 197.697364 267.176651 
C 197.050917 263.286509 195.040303 258.8333 192.108334 254.797792 
C 189.176366 250.762284 185.562427 247.473959 182.062445 245.657031 
C 178.562464 243.840104 175.462197 243.642918 173.444443 245.108902 
C 171.426689 246.574886 170.656189 249.584349 171.302636 253.474491 
C 171.949083 257.364633 173.959697 261.817842 176.891666 265.853349 
C 179.823634 269.888857 183.437573 273.177183 186.937555 274.99411 
C 190.437536 276.811038 193.537803 277.008224 195.555557 275.54224 
z
" style="fill:none;stroke:#ff7f0e;stroke-linejoin:miter;stroke-width:2;"/>
   </g>
   <g id="patch_4">
    <path clip-path="url(#pef088da212)" d="M 202.388267 242.626775 
C 203.158981 240.254763 202.013411 237.367167 199.203856 234.599948 
C 196.394301 231.832729 192.150149 229.411817 187.406125 227.870391 
C 182.662101 226.328964 177.805534 225.792873 173.906026 226.380185 
C 170.006518 226.967497 167.382446 228.630262 166.611733 231.002274 
C 165.841019 233.374286 166.986589 236.261881 169.796144 239.0291 
C 172.605699 241.796319 176.849851 244.217231 181.593875 245.758658 
C 186.337899 247.300085 191.194466 247.836176 195.093974 247.248863 
C 198.993482 246.661551 201.617554 244.998787 202.388267 242.626775 
z
" style="fill:none;stroke:#2ca02c;stroke-linejoin:miter;stroke-width:2;"/>
   </g>
   <g id="patch_5">
    <path clip-path="url(#pef088da212)" d="M 202.388267 207.491227 
C 201.617554 205.119215 198.993482 203.456451 195.093974 202.869139 
C 191.194466 202.281826 186.337899 202.817917 181.593875 204.359344 
C 176.849851 205.900771 172.605699 208.321683 169.796144 211.088902 
C 166.986589 213.856121 165.841019 216.743716 166.611733 219.115728 
C 167.382446 221.48774 170.006518 223.150504 173.906026 223.737817 
C 177.805534 224.325129 182.662101 223.789038 187.406125 222.247611 
C 192.150149 220.706184 196.394301 218.285273 199.203856 215.518054 
C 202.013411 212.750834 203.158981 209.863239 202.388267 207.491227 
z
" style="fill:none;stroke:#d62728;stroke-linejoin:miter;stroke-width:2;"/>
   </g>
   <g id="patch_6">
    <path clip-path="url(#pef088da212)" d="M 195.555557 174.575762 
C 193.537803 173.109778 190.437536 173.306964 186.937555 175.123892 
C 183.437573 176.940819 179.823634 180.229145 176.891666 184.264653 
C 173.959697 188.30016 171.949083 192.753369 171.302636 196.643511 
C 170.656189 200.533653 171.426689 203.543116 173.444443 205.0091 
C 175.462197 206.475084 178.562464 206.277898 182.062445 204.460971 
C 185.562427 202.644043 189.176366 199.355717 192.108334 195.32021 
C 195.040303 191.284702 197.050917 186.831493 197.697364 182.941351 
C 198.343811 179.051209 197.573311 176.041746 195.555557 174.575762 
z
" style="fill:none;stroke:#9467bd;stroke-linejoin:miter;stroke-width:2;"/>
   </g>
   <g id="patch_7">
    <path clip-path="url(#pef088da212)" d="M 184.5 147.472547 
C 182.005919 147.472547 179.613653 149.454365 177.850072 152.981528 
C 176.08649 156.508691 175.095581 161.293223 175.095581 166.281385 
C 175.095581 171.269547 176.08649 176.054078 177.850072 179.581241 
C 179.613653 183.108404 182.005919 185.090222 184.5 185.090222 
C 186.994081 185.090222 189.386347 183.108404 191.149928 179.581241 
C 192.91351 176.054078 193.904419 171.269547 193.904419 166.281385 
C 193.904419 161.293223 192.91351 156.508691 191.149928 152.981528 
C 189.386347 149.454365 186.994081 147.472547 184.5 147.472547 
z
" style="fill:none;stroke:#8c564b;stroke-linejoin:miter;stroke-width:2;"/>
   </g>
   <g id="patch_8">
    <path clip-path="url(#pef088da212)" d="M 173.444443 127.553669 
C 171.426689 129.019653 170.656189 132.029116 171.302636 135.919258 
C 171.949083 139.8094 173.959697 144.262609 176.891666 148.298117 
C 179.823634 152.333624 183.437573 155.62195 186.937555 157.438878 
C 190.437536 159.255805 193.537803 159.452991 195.555557 157.987007 
C 197.573311 156.521023 198.343811 153.51156 197.697364 149.621418 
C 197.050917 145.731276 195.040303 141.278067 192.108334 137.242559 
C 189.176366 133.207052 185.562427 129.918726 182.062445 128.101799 
C 178.562464 126.284871 175.462197 126.087685 173.444443 127.553669 
z
" style="fill:none;stroke:#e377c2;stroke-linejoin:miter;stroke-width:2;"/>
   </g>
   <g id="patch_9">
    <path clip-path="url(#pef088da212)" d="M 166.611733 113.447041 
C 165.841019 115.819053 166.986589 118.706648 169.796144 121.473867 
C 172.605699 124.241086 176.849851 126.661998 181.593875 128.203425 
C 186.337899 129.744852 191.194466 130.280943 195.093974 129.693631 
C 198.993482 129.106318 201.617554 127.443554 202.388267 125.071542 
C 203.158981 122.69953 202.013411 119.811935 199.203856 117.044716 
C 196.394301 114.277497 192.150149 111.856585 187.406125 110.315158 
C 182.662101 108.773731 177.805534 108.23764 173.906026 108.824952 
C 170.006518 109.412265 167.382446 111.075029 166.611733 113.447041 
z
" style="fill:none;stroke:#7f7f7f;stroke-linejoin:miter;stroke-width:2;"/>
   </g>
   <g id="patch_10">
    <path clip-path="url(#pef088da212)" d="M 166.611733 101.560495 
C 167.382446 103.932507 170.006518 105.595272 173.906026 106.182584 
C 177.805534 106.769897 182.662101 106.233805 187.406125 104.692379 
C 192.150149 103.150952 196.394301 100.73004 199.203856 97.962821 
C 202.013411 95.195602 203.158981 92.308007 202.388267 89.935995 
C 201.617554 87.563983 198.993482 85.901218 195.093974 85.313906 
C 191.194466 84.726593 186.337899 85.262685 181.593875 86.804111 
C 176.849851 88.345538 172.605699 90.76645 169.796144 93.533669 
C 166.986589 96.300888 165.841019 99.188483 166.611733 101.560495 
z
" style="fill:none;stroke:#bcbd22;stroke-linejoin:miter;stroke-width:2;"/>
   </g>
   <g id="patch_11">
    <path clip-path="url(#pef088da212)" d="M 173.444443 87.453867 
C 175.462197 88.919851 178.562464 88.722666 182.062445 86.905738 
C 185.562427 85.08881 189.176366 81.800485 192.108334 77.764977 
C 195.040303 73.729469 197.050917 69.27626 197.697364 65.386118 
C 198.343811 61.495976 197.573311 58.486513 195.555557 57.020529 
C 193.537803 55.554545 190.437536 55.751731 186.937555 57.568659 
C 183.437573 59.385587 179.823634 62.673912 176.891666 66.70942 
C 173.959697 70.744928 171.949083 75.198136 171.302636 79.088279 
C 170.656189 82.978421 171.426689 85.987883 173.444443 87.453867 
z
" style="fill:none;stroke:#17becf;stroke-linejoin:miter;stroke-width:2;"/>
   </g>
   <g id="legend_1">
    <g id="patch_12">
     <path d="M 215.477367 228.766471 
L 296.148963 228.766471 
Q 298.548963 228.766471 298.548963 226.366471 
L 298.548963 51.6 
Q 298.548963 49.2 296.148963 49.2 
L 215.477367 49.2 
Q 213.077367 49.2 213.077367 51.6 
L 213.077367 226.366471 
Q 213.077367 228.766471 215.477367 228.766471 
z
" style="fill:#ffffff;opacity:0.8;stroke:#cccccc;stroke-linejoin:miter;"/>
    </g>
    <g id="patch_13">
     <path d="M 229.877367 66.918125 
C 230.938179 66.918125 231.955686 66.075195 232.705794 64.574979 
C 233.455901 63.074764 233.877367 61.03975 233.877367 58.918125 
C 233.877367 56.7965 233.455901 54.761486 232.705794 53.261271 
C 231.955686 51.761055 230.938179 50.918125 229.877367 50.918125 
C 228.816554 50.918125 227.799047 51.761055 227.048939 53.261271 
C 226.298832 54.761486 225.877367 56.7965 225.877367 58.918125 
C 225.877367 61.03975 226.298832 63.074764 227.048939 64.574979 
C 227.799047 66.075195 228.816554 66.918125 229.877367 66.918125 
z
" style="fill:none;stroke:#1f77b4;stroke-linejoin:miter;stroke-width:2;"/>
    </g>
    <g id="text_1">
     <!-- d=0.0 -->
     <g transform="translate(251.477367 63.118125)scale(0.12 -0.12)">
      <defs>
       <path d="M 29.203125 67.890625 
L 29.203125 65.296875 
C 35.09375 65.296875 36 64.703125 36 60.046875 
L 36 37.046875 
C 35.59375 37.546875 31.5 44 23.40625 44 
C 13.203125 44 3.296875 34.8125 3.296875 21.5 
C 3.296875 8.265625 12.59375 -1 22.40625 -1 
C 30.90625 -1 35.296875 5.640625 35.796875 6.34375 
L 35.796875 -1 
L 47.90625 -0.203125 
L 47.90625 2.40625 
C 42 2.40625 41.09375 3.015625 41.09375 7.859375 
L 41.09375 69 
z
M 35.796875 11.90625 
C 35.796875 8.875 34 6.140625 31.703125 4.125 
C 28.296875 1.09375 24.90625 0.59375 23 0.59375 
C 20.09375 0.59375 9.703125 2.109375 9.703125 21.390625 
C 9.703125 41.1875 21.296875 42.390625 23.90625 42.390625 
C 28.5 42.390625 32.203125 39.765625 34.5 36.140625 
C 35.796875 34.015625 35.796875 33.703125 35.796875 31.890625 
z
" id="CMR17-100"/>
       <path d="M 64.296875 32 
C 65.796875 32 67.296875 32 67.296875 33.6875 
C 67.296875 35.5 65.59375 35.5 63.90625 35.5 
L 8 35.5 
C 6.296875 35.5 4.59375 35.5 4.59375 33.6875 
C 4.59375 32 6.09375 32 7.59375 32 
z
M 63.90625 14.484375 
C 65.59375 14.484375 67.296875 14.484375 67.296875 16.296875 
C 67.296875 18 65.796875 18 64.296875 18 
L 7.59375 18 
C 6.09375 18 4.59375 18 4.59375 16.296875 
C 4.59375 14.484375 6.296875 14.484375 8 14.484375 
z
" id="CMR17-61"/>
       <path d="M 42 31.84375 
C 42 37.96875 41.90625 48.421875 37.703125 56.453125 
C 34 63.484375 28.09375 66 22.90625 66 
C 18.09375 66 12 63.78125 8.203125 56.5625 
C 4.203125 49.015625 3.796875 39.671875 3.796875 31.84375 
C 3.796875 26.109375 3.90625 17.375 7 9.734375 
C 11.296875 -0.609375 19 -2 22.90625 -2 
C 27.5 -2 34.5 -0.109375 38.59375 9.4375 
C 41.59375 16.375 42 24.5 42 31.84375 
z
M 22.90625 -0.40625 
C 16.5 -0.40625 12.703125 5.125 11.296875 12.75 
C 10.203125 18.6875 10.203125 27.328125 10.203125 32.953125 
C 10.203125 40.6875 10.203125 47.109375 11.5 53.234375 
C 13.40625 61.78125 19 64.390625 22.90625 64.390625 
C 27 64.390625 32.296875 61.671875 34.203125 53.4375 
C 35.5 47.71875 35.59375 40.984375 35.59375 32.953125 
C 35.59375 26.421875 35.59375 18.375 34.40625 12.453125 
C 32.296875 1.5 26.40625 -0.40625 22.90625 -0.40625 
z
" id="CMR17-48"/>
       <path d="M 16.59375 4.09375 
C 16.59375 6.59375 14.59375 8.1875 12.5 8.1875 
C 10.5 8.1875 8.40625 6.59375 8.40625 4.09375 
C 8.40625 1.59375 10.40625 0 12.5 0 
C 14.5 0 16.59375 1.59375 16.59375 4.09375 
z
" id="CMR17-46"/>
      </defs>
      <use transform="scale(0.996264)" xlink:href="#CMR17-100"/>
      <use transform="translate(50.89537 0)scale(0.996264)" xlink:href="#CMR17-61"/>
      <use transform="translate(122.610158 0)scale(0.996264)" xlink:href="#CMR17-48"/>
      <use transform="translate(168.300635 0)scale(0.996264)" xlink:href="#CMR17-46"/>
      <use transform="translate(193.171694 0)scale(0.996264)" xlink:href="#CMR17-48"/>
     </g>
    </g>
    <g id="patch_14">
     <path d="M 234.579649 83.004011 
C 235.437864 82.380481 235.765582 81.10046 235.490628 79.445858 
C 235.215673 77.791257 234.360494 75.897165 233.113435 74.180734 
C 231.866375 72.464303 230.329251 71.065673 228.840597 70.292876 
C 227.351942 69.520079 226.0333 69.436209 225.175085 70.059739 
C 224.316869 70.683269 223.989151 71.96329 224.264105 73.617892 
C 224.53906 75.272493 225.394239 77.166585 226.641299 78.883016 
C 227.888358 80.599447 229.425482 81.998077 230.914136 82.770874 
C 232.402791 83.543671 233.721433 83.627541 234.579649 83.004011 
z
" style="fill:none;stroke:#ff7f0e;stroke-linejoin:miter;stroke-width:2;"/>
    </g>
    <g id="text_2">
     <!-- d=36.0 -->
     <g transform="translate(251.477367 80.731875)scale(0.12 -0.12)">
      <defs>
       <path d="M 22.09375 34 
C 31 34 34.90625 26.140625 34.90625 17.09375 
C 34.90625 5.03125 28.5 0.390625 22.703125 0.390625 
C 17.40625 0.390625 8.796875 3.015625 6.09375 10.796875 
C 6.59375 10.59375 7.09375 10.59375 7.59375 10.59375 
C 10 10.59375 11.796875 12.1875 11.796875 14.796875 
C 11.796875 17.6875 9.59375 19 7.59375 19 
C 5.90625 19 3.296875 18.1875 3.296875 14.484375 
C 3.296875 5.234375 12.296875 -2 22.90625 -2 
C 34 -2 42.5 6.75 42.5 16.984375 
C 42.5 26.84375 34.5 34 25 35.09375 
C 32.59375 36.671875 39.90625 43.375 39.90625 52.390625 
C 39.90625 60.25 32 66 23 66 
C 13.90625 66 5.90625 60.34375 5.90625 52.296875 
C 5.90625 48.796875 8.5 48.1875 9.796875 48.1875 
C 11.90625 48.1875 13.703125 49.484375 13.703125 52.09375 
C 13.703125 54.6875 11.90625 56 9.796875 56 
C 9.40625 56 8.90625 56 8.5 55.796875 
C 11.40625 62.484375 19.296875 63.6875 22.796875 63.6875 
C 26.296875 63.6875 32.90625 61.96875 32.90625 52.296875 
C 32.90625 49.484375 32.5 44.546875 29.09375 40.21875 
C 26.09375 36.390625 22.703125 36.1875 19.40625 35.890625 
C 18.90625 35.890625 16.59375 35.6875 16.203125 35.6875 
C 15.5 35.59375 15.09375 35.5 15.09375 34.796875 
C 15.09375 34.09375 15.203125 34 17.203125 34 
z
" id="CMR17-51"/>
       <path d="M 10.59375 34.34375 
C 10.59375 58 21.796875 63.6875 28.296875 63.6875 
C 30.40625 63.6875 35.5 63.265625 37.5 59.09375 
C 35.90625 59.09375 32.90625 59.09375 32.90625 55.59375 
C 32.90625 52.890625 35.09375 52 36.5 52 
C 37.40625 52 40.09375 52.390625 40.09375 55.796875 
C 40.09375 62.296875 35.09375 66 28.203125 66 
C 16.296875 66 3.796875 53.296875 3.796875 31.421875 
C 3.796875 4.015625 15.09375 -2 23.09375 -2 
C 32.796875 -2 42 6.734375 42 20.234375 
C 42 32.828125 33.90625 42 23.703125 42 
C 17.59375 42 13.09375 37.96875 10.59375 30.921875 
z
M 23.09375 0.390625 
C 10.796875 0.390625 10.796875 18.9375 10.796875 22.65625 
C 10.796875 29.90625 14.203125 40.390625 23.5 40.390625 
C 25.203125 40.390625 30.09375 40.390625 33.40625 33.4375 
C 35.203125 29.515625 35.203125 25.375 35.203125 20.34375 
C 35.203125 14.90625 35.203125 10.875 33.09375 6.84375 
C 30.90625 2.703125 27.703125 0.390625 23.09375 0.390625 
z
" id="CMR17-54"/>
      </defs>
      <use transform="scale(0.996264)" xlink:href="#CMR17-100"/>
      <use transform="translate(50.89537 0)scale(0.996264)" xlink:href="#CMR17-61"/>
      <use transform="translate(122.610158 0)scale(0.996264)" xlink:href="#CMR17-51"/>
      <use transform="translate(168.300635 0)scale(0.996264)" xlink:href="#CMR17-54"/>
      <use transform="translate(213.991112 0)scale(0.996264)" xlink:href="#CMR17-46"/>
      <use transform="translate(238.862171 0)scale(0.996264)" xlink:href="#CMR17-48"/>
     </g>
    </g>
    <g id="patch_15">
     <path d="M 237.485819 96.617761 
C 237.813628 95.608868 237.32638 94.380682 236.131387 93.203695 
C 234.936393 92.026708 233.13122 90.997017 231.113435 90.341399 
C 229.095649 89.685781 227.029996 89.457764 225.371411 89.707567 
C 223.712825 89.95737 222.596723 90.664596 222.268914 91.673489 
C 221.941105 92.682382 222.428353 93.910568 223.623346 95.087555 
C 224.81834 96.264542 226.623513 97.294233 228.641299 97.949851 
C 230.659084 98.605469 232.724737 98.833486 234.383323 98.583683 
C 236.041908 98.33388 237.15801 97.626654 237.485819 96.617761 
z
" style="fill:none;stroke:#2ca02c;stroke-linejoin:miter;stroke-width:2;"/>
    </g>
    <g id="text_3">
     <!-- d=72.0 -->
     <g transform="translate(251.477367 98.345625)scale(0.12 -0.12)">
      <defs>
       <path d="M 45.09375 61.796875 
L 45.09375 64 
L 21.59375 64 
C 9.90625 64 9.703125 65.09375 9.296875 67 
L 7.5 67 
L 4.59375 48.5 
L 6.40625 48.5 
C 6.703125 50.40625 7.40625 55.5 8.59375 57.390625 
C 9.203125 58.1875 16.59375 58.1875 18.296875 58.1875 
L 40.296875 58.1875 
L 29.203125 41.71875 
C 21.796875 30.640625 16.703125 15.671875 16.703125 2.59375 
C 16.703125 1.390625 16.703125 -2 20.296875 -2 
C 23.90625 -2 23.90625 1.390625 23.90625 2.6875 
L 23.90625 7.28125 
C 23.90625 23.65625 26.703125 34.4375 31.296875 41.3125 
z
" id="CMR17-55"/>
       <path d="M 41.703125 15.46875 
L 39.90625 15.46875 
C 38.90625 8.390625 38.09375 7.1875 37.703125 6.59375 
C 37.203125 5.796875 30 5.796875 28.59375 5.796875 
L 9.40625 5.796875 
C 13 9.6875 20 16.765625 28.5 24.9375 
C 34.59375 30.71875 41.703125 37.5 41.703125 47.390625 
C 41.703125 59.1875 32.296875 66 21.796875 66 
C 10.796875 66 4.09375 56.296875 4.09375 47.296875 
C 4.09375 43.390625 7 42.890625 8.203125 42.890625 
C 9.203125 42.890625 12.203125 43.484375 12.203125 46.984375 
C 12.203125 50.09375 9.59375 51 8.203125 51 
C 7.59375 51 7 50.890625 6.59375 50.6875 
C 8.5 59.1875 14.296875 63.390625 20.40625 63.390625 
C 29.09375 63.390625 34.796875 56.5 34.796875 47.390625 
C 34.796875 38.703125 29.703125 31.21875 24 24.734375 
L 4.09375 2.296875 
L 4.09375 0 
L 39.296875 0 
z
" id="CMR17-50"/>
      </defs>
      <use transform="scale(0.996264)" xlink:href="#CMR17-100"/>
      <use transform="translate(50.89537 0)scale(0.996264)" xlink:href="#CMR17-61"/>
      <use transform="translate(122.610158 0)scale(0.996264)" xlink:href="#CMR17-55"/>
      <use transform="translate(168.300635 0)scale(0.996264)" xlink:href="#CMR17-50"/>
      <use transform="translate(213.991112 0)scale(0.996264)" xlink:href="#CMR17-46"/>
      <use transform="translate(238.862171 0)scale(0.996264)" xlink:href="#CMR17-48"/>
     </g>
    </g>
    <g id="patch_16">
     <path d="M 237.485819 109.287239 
C 237.15801 108.278346 236.041908 107.57112 234.383323 107.321317 
C 232.724737 107.071514 230.659084 107.299531 228.641299 107.955149 
C 226.623513 108.610767 224.81834 109.640458 223.623346 110.817445 
C 222.428353 111.994432 221.941105 113.222618 222.268914 114.231511 
C 222.596723 115.240404 223.712825 115.94763 225.371411 116.197433 
C 227.029996 116.447236 229.095649 116.219219 231.113435 115.563601 
C 233.13122 114.907983 234.936393 113.878292 236.131387 112.701305 
C 237.32638 111.524318 237.813628 110.296132 237.485819 109.287239 
z
" style="fill:none;stroke:#d62728;stroke-linejoin:miter;stroke-width:2;"/>
    </g>
    <g id="text_4">
     <!-- d=108.0 -->
     <g transform="translate(251.477367 115.959375)scale(0.12 -0.12)">
      <defs>
       <path d="M 26.59375 63.796875 
C 26.59375 65.890625 26.5 66 25.09375 66 
C 21.203125 61.359375 15.296875 59.890625 9.703125 59.6875 
C 9.40625 59.6875 8.90625 59.6875 8.796875 59.5 
C 8.703125 59.296875 8.703125 59.09375 8.703125 57 
C 11.796875 57 17 57.59375 21 59.984375 
L 21 7.296875 
C 21 3.796875 20.796875 2.59375 12.203125 2.59375 
L 9.203125 2.59375 
L 9.203125 0 
C 14 0.09375 19 0.1875 23.796875 0.1875 
C 28.59375 0.1875 33.59375 0.09375 38.40625 0 
L 38.40625 2.59375 
L 35.40625 2.59375 
C 26.796875 2.59375 26.59375 3.6875 26.59375 7.296875 
z
" id="CMR17-49"/>
       <path d="M 27.203125 35.765625 
C 33.5 38.96875 39.90625 43.796875 39.90625 51.53125 
C 39.90625 60.6875 31.09375 66 23 66 
C 13.90625 66 5.90625 59.375 5.90625 50.234375 
C 5.90625 47.71875 6.5 43.390625 10.40625 39.578125 
C 11.40625 38.578125 15.59375 35.5625 18.296875 33.65625 
C 13.796875 31.34375 3.296875 25.8125 3.296875 14.765625 
C 3.296875 4.40625 13.09375 -2 22.796875 -2 
C 33.5 -2 42.5 5.71875 42.5 15.96875 
C 42.5 25.109375 36.40625 29.328125 32.40625 32.046875 
z
M 14.09375 44.609375 
C 13.296875 45.109375 9.296875 48.21875 9.296875 52.9375 
C 9.296875 59.078125 15.59375 63.6875 22.796875 63.6875 
C 30.703125 63.6875 36.5 58.0625 36.5 51.53125 
C 36.5 42.1875 26.09375 36.859375 25.59375 36.859375 
C 25.5 36.859375 25.40625 36.859375 24.59375 37.46875 
z
M 32.5 24 
C 34 22.90625 38.796875 19.578125 38.796875 13.453125 
C 38.796875 6.015625 31.40625 0.390625 23 0.390625 
C 13.90625 0.390625 7 6.921875 7 14.859375 
C 7 22.796875 13.09375 29.4375 20 32.546875 
z
" id="CMR17-56"/>
      </defs>
      <use transform="scale(0.996264)" xlink:href="#CMR17-100"/>
      <use transform="translate(50.89537 0)scale(0.996264)" xlink:href="#CMR17-61"/>
      <use transform="translate(122.610158 0)scale(0.996264)" xlink:href="#CMR17-49"/>
      <use transform="translate(168.300635 0)scale(0.996264)" xlink:href="#CMR17-48"/>
      <use transform="translate(213.991112 0)scale(0.996264)" xlink:href="#CMR17-56"/>
      <use transform="translate(259.68159 0)scale(0.996264)" xlink:href="#CMR17-46"/>
      <use transform="translate(284.552648 0)scale(0.996264)" xlink:href="#CMR17-48"/>
     </g>
    </g>
    <g id="patch_17">
     <path d="M 234.579649 122.900989 
C 233.721433 122.277459 232.402791 122.361329 230.914136 123.134126 
C 229.425482 123.906923 227.888358 125.305553 226.641299 127.021984 
C 225.394239 128.738415 224.53906 130.632507 224.264105 132.287108 
C 223.989151 133.94171 224.316869 135.221731 225.175085 135.845261 
C 226.0333 136.468791 227.351942 136.384921 228.840597 135.612124 
C 230.329251 134.839327 231.866375 133.440697 233.113435 131.724266 
C 234.360494 130.007835 235.215673 128.113743 235.490628 126.459142 
C 235.765582 124.80454 235.437864 123.524519 234.579649 122.900989 
z
" style="fill:none;stroke:#9467bd;stroke-linejoin:miter;stroke-width:2;"/>
    </g>
    <g id="text_5">
     <!-- d=144.0 -->
     <g transform="translate(251.477367 133.573125)scale(0.12 -0.12)">
      <defs>
       <path d="M 33.59375 64.796875 
C 33.59375 66.890625 33.5 67 31.703125 67 
L 2 19.59375 
L 2 17 
L 27.796875 17 
L 27.796875 7.1875 
C 27.796875 3.59375 27.59375 2.59375 20.59375 2.59375 
L 18.703125 2.59375 
L 18.703125 0 
C 21.90625 0.1875 27.296875 0.1875 30.703125 0.1875 
C 34.09375 0.1875 39.5 0.1875 42.703125 0 
L 42.703125 2.59375 
L 40.796875 2.59375 
C 33.796875 2.59375 33.59375 3.59375 33.59375 7.1875 
L 33.59375 17 
L 43.796875 17 
L 43.796875 19.59375 
L 33.59375 19.59375 
z
M 28.09375 58.171875 
L 28.09375 19.59375 
L 4 19.59375 
z
" id="CMR17-52"/>
      </defs>
      <use transform="scale(0.996264)" xlink:href="#CMR17-100"/>
      <use transform="translate(50.89537 0)scale(0.996264)" xlink:href="#CMR17-61"/>
      <use transform="translate(122.610158 0)scale(0.996264)" xlink:href="#CMR17-49"/>
      <use transform="translate(168.300635 0)scale(0.996264)" xlink:href="#CMR17-52"/>
      <use transform="translate(213.991112 0)scale(0.996264)" xlink:href="#CMR17-52"/>
      <use transform="translate(259.68159 0)scale(0.996264)" xlink:href="#CMR17-46"/>
      <use transform="translate(284.552648 0)scale(0.996264)" xlink:href="#CMR17-48"/>
     </g>
    </g>
    <g id="patch_18">
     <path d="M 229.877367 138.986875 
C 228.816554 138.986875 227.799047 139.829805 227.048939 141.330021 
C 226.298832 142.830236 225.877367 144.86525 225.877367 146.986875 
C 225.877367 149.1085 226.298832 151.143514 227.048939 152.643729 
C 227.799047 154.143945 228.816554 154.986875 229.877367 154.986875 
C 230.938179 154.986875 231.955686 154.143945 232.705794 152.643729 
C 233.455901 151.143514 233.877367 149.1085 233.877367 146.986875 
C 233.877367 144.86525 233.455901 142.830236 232.705794 141.330021 
C 231.955686 139.829805 230.938179 138.986875 229.877367 138.986875 
z
" style="fill:none;stroke:#8c564b;stroke-linejoin:miter;stroke-width:2;"/>
    </g>
    <g id="text_6">
     <!-- d=180.0 -->
     <g transform="translate(251.477367 151.186875)scale(0.12 -0.12)">
      <use transform="scale(0.996264)" xlink:href="#CMR17-100"/>
      <use transform="translate(50.89537 0)scale(0.996264)" xlink:href="#CMR17-61"/>
      <use transform="translate(122.610158 0)scale(0.996264)" xlink:href="#CMR17-49"/>
      <use transform="translate(168.300635 0)scale(0.996264)" xlink:href="#CMR17-56"/>
      <use transform="translate(213.991112 0)scale(0.996264)" xlink:href="#CMR17-48"/>
      <use transform="translate(259.68159 0)scale(0.996264)" xlink:href="#CMR17-46"/>
      <use transform="translate(284.552648 0)scale(0.996264)" xlink:href="#CMR17-48"/>
     </g>
    </g>
    <g id="patch_19">
     <path d="M 225.175085 158.128489 
C 224.316869 158.752019 223.989151 160.03204 224.264105 161.686642 
C 224.53906 163.341243 225.394239 165.235335 226.641299 166.951766 
C 227.888358 168.668197 229.425482 170.066827 230.914136 170.839624 
C 232.402791 171.612421 233.721433 171.696291 234.579649 171.072761 
C 235.437864 170.449231 235.765582 169.16921 235.490628 167.514608 
C 235.215673 165.860007 234.360494 163.965915 233.113435 162.249484 
C 231.866375 160.533053 230.329251 159.134423 228.840597 158.361626 
C 227.351942 157.588829 226.0333 157.504959 225.175085 158.128489 
z
" style="fill:none;stroke:#e377c2;stroke-linejoin:miter;stroke-width:2;"/>
    </g>
    <g id="text_7">
     <!-- d=216.0 -->
     <g transform="translate(251.477367 168.800625)scale(0.12 -0.12)">
      <use transform="scale(0.996264)" xlink:href="#CMR17-100"/>
      <use transform="translate(50.89537 0)scale(0.996264)" xlink:href="#CMR17-61"/>
      <use transform="translate(122.610158 0)scale(0.996264)" xlink:href="#CMR17-50"/>
      <use transform="translate(168.300635 0)scale(0.996264)" xlink:href="#CMR17-49"/>
      <use transform="translate(213.991112 0)scale(0.996264)" xlink:href="#CMR17-54"/>
      <use transform="translate(259.68159 0)scale(0.996264)" xlink:href="#CMR17-46"/>
      <use transform="translate(284.552648 0)scale(0.996264)" xlink:href="#CMR17-48"/>
     </g>
    </g>
    <g id="patch_20">
     <path d="M 222.268914 179.742239 
C 221.941105 180.751132 222.428353 181.979318 223.623346 183.156305 
C 224.81834 184.333292 226.623513 185.362983 228.641299 186.018601 
C 230.659084 186.674219 232.724737 186.902236 234.383323 186.652433 
C 236.041908 186.40263 237.15801 185.695404 237.485819 184.686511 
C 237.813628 183.677618 237.32638 182.449432 236.131387 181.272445 
C 234.936393 180.095458 233.13122 179.065767 231.113435 178.410149 
C 229.095649 177.754531 227.029996 177.526514 225.371411 177.776317 
C 223.712825 178.02612 222.596723 178.733346 222.268914 179.742239 
z
" style="fill:none;stroke:#7f7f7f;stroke-linejoin:miter;stroke-width:2;"/>
    </g>
    <g id="text_8">
     <!-- d=252.0 -->
     <g transform="translate(251.477367 186.414375)scale(0.12 -0.12)">
      <defs>
       <path d="M 11.40625 58.59375 
C 12.40625 58.1875 16.5 56.890625 20.703125 56.890625 
C 30 56.890625 35.09375 61.890625 38 64.6875 
C 38 65.484375 38 66 37.40625 66 
C 37.296875 66 37.09375 66 36.296875 65.59375 
C 32.796875 64.09375 28.703125 63 23.703125 63 
C 20.703125 63 16.203125 63.359375 11.296875 65.484375 
C 10.203125 66 10 66 9.90625 66 
C 9.40625 66 9.296875 65.890625 9.296875 63.90625 
L 9.296875 34.859375 
C 9.296875 33.015625 9.296875 32.5 10.296875 32.5 
C 10.796875 32.5 11 32.703125 11.5 33.421875 
C 14.703125 38.046875 19.09375 40 24.09375 40 
C 27.59375 40 35.09375 37.734375 35.09375 20.203125 
C 35.09375 16.984375 35.09375 11.1875 32.09375 6.59375 
C 29.59375 2.484375 25.703125 0.390625 21.40625 0.390625 
C 14.796875 0.390625 8.09375 4.984375 6.296875 12.6875 
C 6.703125 12.59375 7.5 12.390625 7.90625 12.390625 
C 9.203125 12.390625 11.703125 13.09375 11.703125 16.1875 
C 11.703125 18.890625 9.796875 20 7.90625 20 
C 5.59375 20 4.09375 18.59375 4.09375 15.796875 
C 4.09375 7.09375 11 -2 21.59375 -2 
C 31.90625 -2 41.703125 6.890625 41.703125 19.796875 
C 41.703125 32.09375 33.90625 41.59375 24.203125 41.59375 
C 19.09375 41.59375 14.796875 39.6875 11.40625 36 
z
" id="CMR17-53"/>
      </defs>
      <use transform="scale(0.996264)" xlink:href="#CMR17-100"/>
      <use transform="translate(50.89537 0)scale(0.996264)" xlink:href="#CMR17-61"/>
      <use transform="translate(122.610158 0)scale(0.996264)" xlink:href="#CMR17-50"/>
      <use transform="translate(168.300635 0)scale(0.996264)" xlink:href="#CMR17-53"/>
      <use transform="translate(213.991112 0)scale(0.996264)" xlink:href="#CMR17-50"/>
      <use transform="translate(259.68159 0)scale(0.996264)" xlink:href="#CMR17-46"/>
      <use transform="translate(284.552648 0)scale(0.996264)" xlink:href="#CMR17-48"/>
     </g>
    </g>
    <g id="patch_21">
     <path d="M 222.268914 202.300261 
C 222.596723 203.309154 223.712825 204.01638 225.371411 204.266183 
C 227.029996 204.515986 229.095649 204.287969 231.113435 203.632351 
C 233.13122 202.976733 234.936393 201.947042 236.131387 200.770055 
C 237.32638 199.593068 237.813628 198.364882 237.485819 197.355989 
C 237.15801 196.347096 236.041908 195.63987 234.383323 195.390067 
C 232.724737 195.140264 230.659084 195.368281 228.641299 196.023899 
C 226.623513 196.679517 224.81834 197.709208 223.623346 198.886195 
C 222.428353 200.063182 221.941105 201.291368 222.268914 202.300261 
z
" style="fill:none;stroke:#bcbd22;stroke-linejoin:miter;stroke-width:2;"/>
    </g>
    <g id="text_9">
     <!-- d=288.0 -->
     <g transform="translate(251.477367 204.028125)scale(0.12 -0.12)">
      <use transform="scale(0.996264)" xlink:href="#CMR17-100"/>
      <use transform="translate(50.89537 0)scale(0.996264)" xlink:href="#CMR17-61"/>
      <use transform="translate(122.610158 0)scale(0.996264)" xlink:href="#CMR17-50"/>
      <use transform="translate(168.300635 0)scale(0.996264)" xlink:href="#CMR17-56"/>
      <use transform="translate(213.991112 0)scale(0.996264)" xlink:href="#CMR17-56"/>
      <use transform="translate(259.68159 0)scale(0.996264)" xlink:href="#CMR17-46"/>
      <use transform="translate(284.552648 0)scale(0.996264)" xlink:href="#CMR17-48"/>
     </g>
    </g>
    <g id="patch_22">
     <path d="M 225.175085 223.914011 
C 226.0333 224.537541 227.351942 224.453671 228.840597 223.680874 
C 230.329251 222.908077 231.866375 221.509447 233.113435 219.793016 
C 234.360494 218.076585 235.215673 216.182493 235.490628 214.527892 
C 235.765582 212.87329 235.437864 211.593269 234.579649 210.969739 
C 233.721433 210.346209 232.402791 210.430079 230.914136 211.202876 
C 229.425482 211.975673 227.888358 213.374303 226.641299 215.090734 
C 225.394239 216.807165 224.53906 218.701257 224.264105 220.355858 
C 223.989151 222.01046 224.316869 223.290481 225.175085 223.914011 
z
" style="fill:none;stroke:#17becf;stroke-linejoin:miter;stroke-width:2;"/>
    </g>
    <g id="text_10">
     <!-- d=324.0 -->
     <g transform="translate(251.477367 221.641875)scale(0.12 -0.12)">
      <use transform="scale(0.996264)" xlink:href="#CMR17-100"/>
      <use transform="translate(50.89537 0)scale(0.996264)" xlink:href="#CMR17-61"/>
      <use transform="translate(122.610158 0)scale(0.996264)" xlink:href="#CMR17-51"/>
      <use transform="translate(168.300635 0)scale(0.996264)" xlink:href="#CMR17-50"/>
      <use transform="translate(213.991112 0)scale(0.996264)" xlink:href="#CMR17-52"/>
      <use transform="translate(259.68159 0)scale(0.996264)" xlink:href="#CMR17-46"/>
      <use transform="translate(284.552648 0)scale(0.996264)" xlink:href="#CMR17-48"/>
     </g>
    </g>
   </g>
  </g>
 </g>
 <defs>
  <clipPath id="pef088da212">
   <rect height="271.8" width="41.049757" x="163.975121" y="43.2"/>
  </clipPath>
 </defs>
</svg>
