<?xml version="1.0" encoding="utf-8" standalone="no"?>
<!DOCTYPE svg PUBLIC "-//W3C//DTD SVG 1.1//EN"
  "http://www.w3.org/Graphics/SVG/1.1/DTD/svg11.dtd">
<!-- Created with matplotlib (https://matplotlib.org/) -->
<svg height="720pt" version="1.1" viewBox="0 0 1440 720" width="1440pt" xmlns="http://www.w3.org/2000/svg" xmlns:xlink="http://www.w3.org/1999/xlink">
 <metadata>
  <rdf:RDF xmlns:cc="http://creativecommons.org/ns#" xmlns:dc="http://purl.org/dc/elements/1.1/" xmlns:rdf="http://www.w3.org/1999/02/22-rdf-syntax-ns#">
   <cc:Work>
    <dc:type rdf:resource="http://purl.org/dc/dcmitype/StillImage"/>
    <dc:date>2021-08-08T22:08:55.412445</dc:date>
    <dc:format>image/svg+xml</dc:format>
    <dc:creator>
     <cc:Agent>
      <dc:title>Matplotlib v3.3.4, https://matplotlib.org/</dc:title>
     </cc:Agent>
    </dc:creator>
   </cc:Work>
  </rdf:RDF>
 </metadata>
 <defs>
  <style type="text/css">*{stroke-linecap:butt;stroke-linejoin:round;}</style>
 </defs>
 <g id="figure_1">
  <g id="patch_1">
   <path d="M 0 720 
L 1440 720 
L 1440 0 
L 0 0 
z
" style="fill:#ffffff;"/>
  </g>
  <g id="axes_1">
   <g id="patch_2">
    <path d="M 205.843988 630 
L 661.428739 630 
L 661.428739 86.4 
L 205.843988 86.4 
z
" style="fill:#ffffff;"/>
   </g>
   <g id="PathCollection_1">
    <defs>
     <path d="M 0 3 
C 0.795609 3 1.55874 2.683901 2.12132 2.12132 
C 2.683901 1.55874 3 0.795609 3 0 
C 3 -0.795609 2.683901 -1.55874 2.12132 -2.12132 
C 1.55874 -2.683901 0.795609 -3 0 -3 
C -0.795609 -3 -1.55874 -2.683901 -2.12132 -2.12132 
C -2.683901 -1.55874 -3 -0.795609 -3 0 
C -3 0.795609 -2.683901 1.55874 -2.12132 2.12132 
C -1.55874 2.683901 -0.795609 3 0 3 
z
" id="m2bd8631ba2" style="stroke:#1f77b4;"/>
    </defs>
    <g clip-path="url(#p85b00e7eee)">
     <use style="fill:#1f77b4;stroke:#1f77b4;" x="383.349729" xlink:href="#m2bd8631ba2" y="633.297786"/>
     <use style="fill:#1f77b4;stroke:#1f77b4;" x="372.043806" xlink:href="#m2bd8631ba2" y="533.429617"/>
     <use style="fill:#1f77b4;stroke:#1f77b4;" x="348.103714" xlink:href="#m2bd8631ba2" y="546.210093"/>
     <use style="fill:#1f77b4;stroke:#1f77b4;" x="328.406216" xlink:href="#m2bd8631ba2" y="578.405458"/>
     <use style="fill:#1f77b4;stroke:#1f77b4;" x="438.174513" xlink:href="#m2bd8631ba2" y="449.257745"/>
     <use style="fill:#1f77b4;stroke:#1f77b4;" x="406.38493" xlink:href="#m2bd8631ba2" y="514.149996"/>
     <use style="fill:#1f77b4;stroke:#1f77b4;" x="422.012489" xlink:href="#m2bd8631ba2" y="460.51239"/>
     <use style="fill:#1f77b4;stroke:#1f77b4;" x="394.93005" xlink:href="#m2bd8631ba2" y="530.446536"/>
     <use style="fill:#1f77b4;stroke:#1f77b4;" x="472.758671" xlink:href="#m2bd8631ba2" y="498.982917"/>
     <use style="fill:#1f77b4;stroke:#1f77b4;" x="340.474118" xlink:href="#m2bd8631ba2" y="575.379708"/>
     <use style="fill:#1f77b4;stroke:#1f77b4;" x="346.571634" xlink:href="#m2bd8631ba2" y="546.617836"/>
     <use style="fill:#1f77b4;stroke:#1f77b4;" x="295.875431" xlink:href="#m2bd8631ba2" y="557.772531"/>
     <use style="fill:#1f77b4;stroke:#1f77b4;" x="379.73774" xlink:href="#m2bd8631ba2" y="475.900164"/>
     <use style="fill:#1f77b4;stroke:#1f77b4;" x="448.317502" xlink:href="#m2bd8631ba2" y="415.165714"/>
     <use style="fill:#1f77b4;stroke:#1f77b4;" x="491.513127" xlink:href="#m2bd8631ba2" y="404.297832"/>
     <use style="fill:#1f77b4;stroke:#1f77b4;" x="363.879846" xlink:href="#m2bd8631ba2" y="536.155072"/>
     <use style="fill:#1f77b4;stroke:#1f77b4;" x="455.049507" xlink:href="#m2bd8631ba2" y="481.332498"/>
     <use style="fill:#1f77b4;stroke:#1f77b4;" x="421.023448" xlink:href="#m2bd8631ba2" y="449.787618"/>
     <use style="fill:#1f77b4;stroke:#1f77b4;" x="381.328932" xlink:href="#m2bd8631ba2" y="535.861277"/>
     <use style="fill:#1f77b4;stroke:#1f77b4;" x="473.723137" xlink:href="#m2bd8631ba2" y="410.406628"/>
     <use style="fill:#1f77b4;stroke:#1f77b4;" x="505.390635" xlink:href="#m2bd8631ba2" y="421.289847"/>
     <use style="fill:#1f77b4;stroke:#1f77b4;" x="446.443087" xlink:href="#m2bd8631ba2" y="435.240401"/>
     <use style="fill:#1f77b4;stroke:#1f77b4;" x="401.927376" xlink:href="#m2bd8631ba2" y="489.694442"/>
     <use style="fill:#1f77b4;stroke:#1f77b4;" x="420.195337" xlink:href="#m2bd8631ba2" y="511.679273"/>
     <use style="fill:#1f77b4;stroke:#1f77b4;" x="369.873335" xlink:href="#m2bd8631ba2" y="488.176769"/>
     <use style="fill:#1f77b4;stroke:#1f77b4;" x="412.796585" xlink:href="#m2bd8631ba2" y="472.76005"/>
     <use style="fill:#1f77b4;stroke:#1f77b4;" x="410.36579" xlink:href="#m2bd8631ba2" y="461.242351"/>
     <use style="fill:#1f77b4;stroke:#1f77b4;" x="372.663533" xlink:href="#m2bd8631ba2" y="504.338652"/>
     <use style="fill:#1f77b4;stroke:#1f77b4;" x="375.390279" xlink:href="#m2bd8631ba2" y="474.623868"/>
     <use style="fill:#1f77b4;stroke:#1f77b4;" x="446.420421" xlink:href="#m2bd8631ba2" y="473.313772"/>
     <use style="fill:#1f77b4;stroke:#1f77b4;" x="441.491559" xlink:href="#m2bd8631ba2" y="444.864342"/>
     <use style="fill:#1f77b4;stroke:#1f77b4;" x="465.217953" xlink:href="#m2bd8631ba2" y="465.477187"/>
     <use style="fill:#1f77b4;stroke:#1f77b4;" x="364.507255" xlink:href="#m2bd8631ba2" y="502.384758"/>
     <use style="fill:#1f77b4;stroke:#1f77b4;" x="440.211415" xlink:href="#m2bd8631ba2" y="562.478164"/>
     <use style="fill:#1f77b4;stroke:#1f77b4;" x="489.676877" xlink:href="#m2bd8631ba2" y="456.167359"/>
     <use style="fill:#1f77b4;stroke:#1f77b4;" x="490.862845" xlink:href="#m2bd8631ba2" y="431.470671"/>
     <use style="fill:#1f77b4;stroke:#1f77b4;" x="334.89005" xlink:href="#m2bd8631ba2" y="583.898818"/>
     <use style="fill:#1f77b4;stroke:#1f77b4;" x="447.259327" xlink:href="#m2bd8631ba2" y="435.993698"/>
     <use style="fill:#1f77b4;stroke:#1f77b4;" x="416.453258" xlink:href="#m2bd8631ba2" y="487.217491"/>
     <use style="fill:#1f77b4;stroke:#1f77b4;" x="457.139642" xlink:href="#m2bd8631ba2" y="450.84623"/>
     <use style="fill:#1f77b4;stroke:#1f77b4;" x="433.70993" xlink:href="#m2bd8631ba2" y="541.722765"/>
     <use style="fill:#1f77b4;stroke:#1f77b4;" x="485.039295" xlink:href="#m2bd8631ba2" y="384.590962"/>
     <use style="fill:#1f77b4;stroke:#1f77b4;" x="388.085131" xlink:href="#m2bd8631ba2" y="537.740764"/>
     <use style="fill:#1f77b4;stroke:#1f77b4;" x="477.390967" xlink:href="#m2bd8631ba2" y="437.094562"/>
     <use style="fill:#1f77b4;stroke:#1f77b4;" x="488.961463" xlink:href="#m2bd8631ba2" y="430.982188"/>
     <use style="fill:#1f77b4;stroke:#1f77b4;" x="335.614183" xlink:href="#m2bd8631ba2" y="567.654291"/>
     <use style="fill:#1f77b4;stroke:#1f77b4;" x="366.590386" xlink:href="#m2bd8631ba2" y="549.20445"/>
     <use style="fill:#1f77b4;stroke:#1f77b4;" x="378.808405" xlink:href="#m2bd8631ba2" y="480.182163"/>
     <use style="fill:#1f77b4;stroke:#1f77b4;" x="496.34471" xlink:href="#m2bd8631ba2" y="423.859609"/>
     <use style="fill:#1f77b4;stroke:#1f77b4;" x="425.128816" xlink:href="#m2bd8631ba2" y="472.84544"/>
     <use style="fill:#1f77b4;stroke:#1f77b4;" x="330.807864" xlink:href="#m2bd8631ba2" y="552.914715"/>
     <use style="fill:#1f77b4;stroke:#1f77b4;" x="503.237811" xlink:href="#m2bd8631ba2" y="414.264614"/>
     <use style="fill:#1f77b4;stroke:#1f77b4;" x="483.891815" xlink:href="#m2bd8631ba2" y="456.498112"/>
     <use style="fill:#1f77b4;stroke:#1f77b4;" x="337.665781" xlink:href="#m2bd8631ba2" y="607.806972"/>
     <use style="fill:#1f77b4;stroke:#1f77b4;" x="422.689396" xlink:href="#m2bd8631ba2" y="510.501874"/>
     <use style="fill:#1f77b4;stroke:#1f77b4;" x="371.976503" xlink:href="#m2bd8631ba2" y="523.464807"/>
     <use style="fill:#1f77b4;stroke:#1f77b4;" x="416.959651" xlink:href="#m2bd8631ba2" y="493.663018"/>
     <use style="fill:#1f77b4;stroke:#1f77b4;" x="380.567773" xlink:href="#m2bd8631ba2" y="560.269003"/>
     <use style="fill:#1f77b4;stroke:#1f77b4;" x="478.882625" xlink:href="#m2bd8631ba2" y="468.484321"/>
     <use style="fill:#1f77b4;stroke:#1f77b4;" x="359.266295" xlink:href="#m2bd8631ba2" y="559.034074"/>
     <use style="fill:#1f77b4;stroke:#1f77b4;" x="482.391199" xlink:href="#m2bd8631ba2" y="440.341593"/>
     <use style="fill:#1f77b4;stroke:#1f77b4;" x="296.589882" xlink:href="#m2bd8631ba2" y="615.138387"/>
     <use style="fill:#1f77b4;stroke:#1f77b4;" x="370.566704" xlink:href="#m2bd8631ba2" y="520.937613"/>
     <use style="fill:#1f77b4;stroke:#1f77b4;" x="434.973305" xlink:href="#m2bd8631ba2" y="497.423095"/>
     <use style="fill:#1f77b4;stroke:#1f77b4;" x="445.409703" xlink:href="#m2bd8631ba2" y="475.040926"/>
     <use style="fill:#1f77b4;stroke:#1f77b4;" x="488.990148" xlink:href="#m2bd8631ba2" y="327.469144"/>
     <use style="fill:#1f77b4;stroke:#1f77b4;" x="372.913834" xlink:href="#m2bd8631ba2" y="530.912117"/>
     <use style="fill:#1f77b4;stroke:#1f77b4;" x="446.419446" xlink:href="#m2bd8631ba2" y="489.400479"/>
     <use style="fill:#1f77b4;stroke:#1f77b4;" x="377.003319" xlink:href="#m2bd8631ba2" y="537.528452"/>
     <use style="fill:#1f77b4;stroke:#1f77b4;" x="422.180072" xlink:href="#m2bd8631ba2" y="534.75363"/>
     <use style="fill:#1f77b4;stroke:#1f77b4;" x="367.496163" xlink:href="#m2bd8631ba2" y="469.793678"/>
     <use style="fill:#1f77b4;stroke:#1f77b4;" x="422.748258" xlink:href="#m2bd8631ba2" y="456.933168"/>
     <use style="fill:#1f77b4;stroke:#1f77b4;" x="400.793604" xlink:href="#m2bd8631ba2" y="468.108081"/>
     <use style="fill:#1f77b4;stroke:#1f77b4;" x="366.610316" xlink:href="#m2bd8631ba2" y="539.145313"/>
     <use style="fill:#1f77b4;stroke:#1f77b4;" x="445.571277" xlink:href="#m2bd8631ba2" y="452.234415"/>
     <use style="fill:#1f77b4;stroke:#1f77b4;" x="430.892068" xlink:href="#m2bd8631ba2" y="498.862626"/>
     <use style="fill:#1f77b4;stroke:#1f77b4;" x="391.207503" xlink:href="#m2bd8631ba2" y="501.457267"/>
     <use style="fill:#1f77b4;stroke:#1f77b4;" x="469.396543" xlink:href="#m2bd8631ba2" y="442.473519"/>
     <use style="fill:#1f77b4;stroke:#1f77b4;" x="258.783061" xlink:href="#m2bd8631ba2" y="620.302245"/>
     <use style="fill:#1f77b4;stroke:#1f77b4;" x="372.78514" xlink:href="#m2bd8631ba2" y="446.465884"/>
     <use style="fill:#1f77b4;stroke:#1f77b4;" x="489.060623" xlink:href="#m2bd8631ba2" y="506.345024"/>
     <use style="fill:#1f77b4;stroke:#1f77b4;" x="546.147155" xlink:href="#m2bd8631ba2" y="415.448836"/>
     <use style="fill:#1f77b4;stroke:#1f77b4;" x="391.613518" xlink:href="#m2bd8631ba2" y="481.838094"/>
     <use style="fill:#1f77b4;stroke:#1f77b4;" x="513.006125" xlink:href="#m2bd8631ba2" y="355.469889"/>
     <use style="fill:#1f77b4;stroke:#1f77b4;" x="480.165387" xlink:href="#m2bd8631ba2" y="418.711066"/>
     <use style="fill:#1f77b4;stroke:#1f77b4;" x="390.828091" xlink:href="#m2bd8631ba2" y="501.836432"/>
     <use style="fill:#1f77b4;stroke:#1f77b4;" x="418.706086" xlink:href="#m2bd8631ba2" y="483.187754"/>
     <use style="fill:#1f77b4;stroke:#1f77b4;" x="475.299172" xlink:href="#m2bd8631ba2" y="422.808024"/>
     <use style="fill:#1f77b4;stroke:#1f77b4;" x="355.817708" xlink:href="#m2bd8631ba2" y="519.404432"/>
     <use style="fill:#1f77b4;stroke:#1f77b4;" x="269.793725" xlink:href="#m2bd8631ba2" y="599.883432"/>
     <use style="fill:#1f77b4;stroke:#1f77b4;" x="355.70681" xlink:href="#m2bd8631ba2" y="493.477525"/>
     <use style="fill:#1f77b4;stroke:#1f77b4;" x="432.595124" xlink:href="#m2bd8631ba2" y="520.89109"/>
     <use style="fill:#1f77b4;stroke:#1f77b4;" x="513.744085" xlink:href="#m2bd8631ba2" y="349.105109"/>
     <use style="fill:#1f77b4;stroke:#1f77b4;" x="378.193536" xlink:href="#m2bd8631ba2" y="499.815954"/>
     <use style="fill:#1f77b4;stroke:#1f77b4;" x="432.989337" xlink:href="#m2bd8631ba2" y="462.765363"/>
     <use style="fill:#1f77b4;stroke:#1f77b4;" x="320.244362" xlink:href="#m2bd8631ba2" y="575.86333"/>
     <use style="fill:#1f77b4;stroke:#1f77b4;" x="486.591758" xlink:href="#m2bd8631ba2" y="436.578118"/>
     <use style="fill:#1f77b4;stroke:#1f77b4;" x="370.751603" xlink:href="#m2bd8631ba2" y="575.674346"/>
     <use style="fill:#1f77b4;stroke:#1f77b4;" x="594.203991" xlink:href="#m2bd8631ba2" y="394.742373"/>
     <use style="fill:#1f77b4;stroke:#1f77b4;" x="476.246171" xlink:href="#m2bd8631ba2" y="403.455082"/>
    </g>
   </g>
   <g id="PathCollection_2">
    <defs>
     <path d="M 0 3 
C 0.795609 3 1.55874 2.683901 2.12132 2.12132 
C 2.683901 1.55874 3 0.795609 3 0 
C 3 -0.795609 2.683901 -1.55874 2.12132 -2.12132 
C 1.55874 -2.683901 0.795609 -3 0 -3 
C -0.795609 -3 -1.55874 -2.683901 -2.12132 -2.12132 
C -2.683901 -1.55874 -3 -0.795609 -3 0 
C -3 0.795609 -2.683901 1.55874 -2.12132 2.12132 
C -1.55874 2.683901 -0.795609 3 0 3 
z
" id="md65d13ad7a" style="stroke:#ff7f0e;"/>
    </defs>
    <g clip-path="url(#p85b00e7eee)">
     <use style="fill:#ff7f0e;stroke:#ff7f0e;" x="220.246558" xlink:href="#md65d13ad7a" y="280.131477"/>
     <use style="fill:#ff7f0e;stroke:#ff7f0e;" x="354.632091" xlink:href="#md65d13ad7a" y="270.991873"/>
     <use style="fill:#ff7f0e;stroke:#ff7f0e;" x="335.870229" xlink:href="#md65d13ad7a" y="237.823009"/>
     <use style="fill:#ff7f0e;stroke:#ff7f0e;" x="291.109096" xlink:href="#md65d13ad7a" y="209.196552"/>
     <use style="fill:#ff7f0e;stroke:#ff7f0e;" x="472.557585" xlink:href="#md65d13ad7a" y="365.626324"/>
     <use style="fill:#ff7f0e;stroke:#ff7f0e;" x="382.825524" xlink:href="#md65d13ad7a" y="318.629624"/>
     <use style="fill:#ff7f0e;stroke:#ff7f0e;" x="456.338772" xlink:href="#md65d13ad7a" y="343.072112"/>
     <use style="fill:#ff7f0e;stroke:#ff7f0e;" x="360.077029" xlink:href="#md65d13ad7a" y="302.131685"/>
     <use style="fill:#ff7f0e;stroke:#ff7f0e;" x="407.429834" xlink:href="#md65d13ad7a" y="409.341449"/>
     <use style="fill:#ff7f0e;stroke:#ff7f0e;" x="295.945234" xlink:href="#md65d13ad7a" y="225.706061"/>
     <use style="fill:#ff7f0e;stroke:#ff7f0e;" x="335.224323" xlink:href="#md65d13ad7a" y="235.725591"/>
     <use style="fill:#ff7f0e;stroke:#ff7f0e;" x="317.013068" xlink:href="#md65d13ad7a" y="166.466468"/>
     <use style="fill:#ff7f0e;stroke:#ff7f0e;" x="432.920678" xlink:href="#md65d13ad7a" y="284.943083"/>
     <use style="fill:#ff7f0e;stroke:#ff7f0e;" x="519.295508" xlink:href="#md65d13ad7a" y="381.446166"/>
     <use style="fill:#ff7f0e;stroke:#ff7f0e;" x="536.656712" xlink:href="#md65d13ad7a" y="440.542308"/>
     <use style="fill:#ff7f0e;stroke:#ff7f0e;" x="350.442651" xlink:href="#md65d13ad7a" y="259.781354"/>
     <use style="fill:#ff7f0e;stroke:#ff7f0e;" x="430.212807" xlink:href="#md65d13ad7a" y="386.475397"/>
     <use style="fill:#ff7f0e;stroke:#ff7f0e;" x="470.784207" xlink:href="#md65d13ad7a" y="342.39508"/>
     <use style="fill:#ff7f0e;stroke:#ff7f0e;" x="351.91507" xlink:href="#md65d13ad7a" y="283.401159"/>
     <use style="fill:#ff7f0e;stroke:#ff7f0e;" x="527.297897" xlink:href="#md65d13ad7a" y="416.103136"/>
     <use style="fill:#ff7f0e;stroke:#ff7f0e;" x="514.528232" xlink:href="#md65d13ad7a" y="458.26621"/>
     <use style="fill:#ff7f0e;stroke:#ff7f0e;" x="492.026924" xlink:href="#md65d13ad7a" y="377.674033"/>
     <use style="fill:#ff7f0e;stroke:#ff7f0e;" x="415.629577" xlink:href="#md65d13ad7a" y="314.107014"/>
     <use style="fill:#ff7f0e;stroke:#ff7f0e;" x="387.018288" xlink:href="#md65d13ad7a" y="337.461856"/>
     <use style="fill:#ff7f0e;stroke:#ff7f0e;" x="415.707552" xlink:href="#md65d13ad7a" y="270.844093"/>
     <use style="fill:#ff7f0e;stroke:#ff7f0e;" x="439.204751" xlink:href="#md65d13ad7a" y="329.852071"/>
     <use style="fill:#ff7f0e;stroke:#ff7f0e;" x="454.633876" xlink:href="#md65d13ad7a" y="327.273768"/>
     <use style="fill:#ff7f0e;stroke:#ff7f0e;" x="394.018828" xlink:href="#md65d13ad7a" y="273.6224"/>
     <use style="fill:#ff7f0e;stroke:#ff7f0e;" x="434.379156" xlink:href="#md65d13ad7a" y="279.141322"/>
     <use style="fill:#ff7f0e;stroke:#ff7f0e;" x="440.527333" xlink:href="#md65d13ad7a" y="375.297692"/>
     <use style="fill:#ff7f0e;stroke:#ff7f0e;" x="478.704482" xlink:href="#md65d13ad7a" y="370.38365"/>
     <use style="fill:#ff7f0e;stroke:#ff7f0e;" x="452.285237" xlink:href="#md65d13ad7a" y="401.206116"/>
     <use style="fill:#ff7f0e;stroke:#ff7f0e;" x="396.159167" xlink:href="#md65d13ad7a" y="262.710564"/>
     <use style="fill:#ff7f0e;stroke:#ff7f0e;" x="319.540686" xlink:href="#md65d13ad7a" y="361.405986"/>
     <use style="fill:#ff7f0e;stroke:#ff7f0e;" x="466.384652" xlink:href="#md65d13ad7a" y="434.862931"/>
     <use style="fill:#ff7f0e;stroke:#ff7f0e;" x="499.862557" xlink:href="#md65d13ad7a" y="437.988627"/>
     <use style="fill:#ff7f0e;stroke:#ff7f0e;" x="284.07822" xlink:href="#md65d13ad7a" y="217.628169"/>
     <use style="fill:#ff7f0e;stroke:#ff7f0e;" x="491.058301" xlink:href="#md65d13ad7a" y="378.731672"/>
     <use style="fill:#ff7f0e;stroke:#ff7f0e;" x="419.874844" xlink:href="#md65d13ad7a" y="333.907385"/>
     <use style="fill:#ff7f0e;stroke:#ff7f0e;" x="471.577427" xlink:href="#md65d13ad7a" y="391.180768"/>
     <use style="fill:#ff7f0e;stroke:#ff7f0e;" x="347.213968" xlink:href="#md65d13ad7a" y="353.890783"/>
     <use style="fill:#ff7f0e;stroke:#ff7f0e;" x="562.913453" xlink:href="#md65d13ad7a" y="432.999908"/>
     <use style="fill:#ff7f0e;stroke:#ff7f0e;" x="349.789114" xlink:href="#md65d13ad7a" y="292.423826"/>
     <use style="fill:#ff7f0e;stroke:#ff7f0e;" x="491.425663" xlink:href="#md65d13ad7a" y="419.420025"/>
     <use style="fill:#ff7f0e;stroke:#ff7f0e;" x="500.406139" xlink:href="#md65d13ad7a" y="435.446905"/>
     <use style="fill:#ff7f0e;stroke:#ff7f0e;" x="306.095246" xlink:href="#md65d13ad7a" y="219.608452"/>
     <use style="fill:#ff7f0e;stroke:#ff7f0e;" x="332.959005" xlink:href="#md65d13ad7a" y="262.643675"/>
     <use style="fill:#ff7f0e;stroke:#ff7f0e;" x="427.071574" xlink:href="#md65d13ad7a" y="283.422249"/>
     <use style="fill:#ff7f0e;stroke:#ff7f0e;" x="510.495046" xlink:href="#md65d13ad7a" y="445.872333"/>
     <use style="fill:#ff7f0e;stroke:#ff7f0e;" x="439.849035" xlink:href="#md65d13ad7a" y="346.527435"/>
     <use style="fill:#ff7f0e;stroke:#ff7f0e;" x="325.735942" xlink:href="#md65d13ad7a" y="214.015505"/>
     <use style="fill:#ff7f0e;stroke:#ff7f0e;" x="523.897956" xlink:href="#md65d13ad7a" y="455.787113"/>
     <use style="fill:#ff7f0e;stroke:#ff7f0e;" x="465.580859" xlink:href="#md65d13ad7a" y="427.017654"/>
     <use style="fill:#ff7f0e;stroke:#ff7f0e;" x="251.910967" xlink:href="#md65d13ad7a" y="219.909663"/>
     <use style="fill:#ff7f0e;stroke:#ff7f0e;" x="388.7645" xlink:href="#md65d13ad7a" y="340.90787"/>
     <use style="fill:#ff7f0e;stroke:#ff7f0e;" x="368.106386" xlink:href="#md65d13ad7a" y="271.514767"/>
     <use style="fill:#ff7f0e;stroke:#ff7f0e;" x="411.187798" xlink:href="#md65d13ad7a" y="334.195228"/>
     <use style="fill:#ff7f0e;stroke:#ff7f0e;" x="318.854188" xlink:href="#md65d13ad7a" y="280.867863"/>
     <use style="fill:#ff7f0e;stroke:#ff7f0e;" x="449.05965" xlink:href="#md65d13ad7a" y="419.503739"/>
     <use style="fill:#ff7f0e;stroke:#ff7f0e;" x="319.212183" xlink:href="#md65d13ad7a" y="252.131482"/>
     <use style="fill:#ff7f0e;stroke:#ff7f0e;" x="487.341779" xlink:href="#md65d13ad7a" y="425.983311"/>
     <use style="fill:#ff7f0e;stroke:#ff7f0e;" x="239.463798" xlink:href="#md65d13ad7a" y="163.898553"/>
     <use style="fill:#ff7f0e;stroke:#ff7f0e;" x="371.437821" xlink:href="#md65d13ad7a" y="269.763567"/>
     <use style="fill:#ff7f0e;stroke:#ff7f0e;" x="407.211715" xlink:href="#md65d13ad7a" y="358.328912"/>
     <use style="fill:#ff7f0e;stroke:#ff7f0e;" x="438.128909" xlink:href="#md65d13ad7a" y="373.824181"/>
     <use style="fill:#ff7f0e;stroke:#ff7f0e;" x="640.420064" xlink:href="#md65d13ad7a" y="441.863097"/>
     <use style="fill:#ff7f0e;stroke:#ff7f0e;" x="358.090874" xlink:href="#md65d13ad7a" y="272.323779"/>
     <use style="fill:#ff7f0e;stroke:#ff7f0e;" x="418.768329" xlink:href="#md65d13ad7a" y="374.305278"/>
     <use style="fill:#ff7f0e;stroke:#ff7f0e;" x="349.393544" xlink:href="#md65d13ad7a" y="277.447604"/>
     <use style="fill:#ff7f0e;stroke:#ff7f0e;" x="355.930099" xlink:href="#md65d13ad7a" y="338.724816"/>
     <use style="fill:#ff7f0e;stroke:#ff7f0e;" x="440.426138" xlink:href="#md65d13ad7a" y="268.761295"/>
     <use style="fill:#ff7f0e;stroke:#ff7f0e;" x="461.225373" xlink:href="#md65d13ad7a" y="344.28783"/>
     <use style="fill:#ff7f0e;stroke:#ff7f0e;" x="444.757524" xlink:href="#md65d13ad7a" y="313.903397"/>
     <use style="fill:#ff7f0e;stroke:#ff7f0e;" x="346.566263" xlink:href="#md65d13ad7a" y="263.290372"/>
     <use style="fill:#ff7f0e;stroke:#ff7f0e;" x="468.987041" xlink:href="#md65d13ad7a" y="375.447826"/>
     <use style="fill:#ff7f0e;stroke:#ff7f0e;" x="405.013156" xlink:href="#md65d13ad7a" y="352.719926"/>
     <use style="fill:#ff7f0e;stroke:#ff7f0e;" x="399.058687" xlink:href="#md65d13ad7a" y="298.882569"/>
     <use style="fill:#ff7f0e;stroke:#ff7f0e;" x="483.657533" xlink:href="#md65d13ad7a" y="408.27534"/>
     <use style="fill:#ff7f0e;stroke:#ff7f0e;" x="230.149882" xlink:href="#md65d13ad7a" y="112.442752"/>
     <use style="fill:#ff7f0e;stroke:#ff7f0e;" x="472.305257" xlink:href="#md65d13ad7a" y="277.352402"/>
     <use style="fill:#ff7f0e;stroke:#ff7f0e;" x="398.476174" xlink:href="#md65d13ad7a" y="430.937958"/>
     <use style="fill:#ff7f0e;stroke:#ff7f0e;" x="524.939797" xlink:href="#md65d13ad7a" y="513.753504"/>
     <use style="fill:#ff7f0e;stroke:#ff7f0e;" x="425.620672" xlink:href="#md65d13ad7a" y="300.640476"/>
     <use style="fill:#ff7f0e;stroke:#ff7f0e;" x="604.025758" xlink:href="#md65d13ad7a" y="472.622091"/>
     <use style="fill:#ff7f0e;stroke:#ff7f0e;" x="516.462184" xlink:href="#md65d13ad7a" y="424.305316"/>
     <use style="fill:#ff7f0e;stroke:#ff7f0e;" x="398.522451" xlink:href="#md65d13ad7a" y="298.346015"/>
     <use style="fill:#ff7f0e;stroke:#ff7f0e;" x="425.464278" xlink:href="#md65d13ad7a" y="337.202839"/>
     <use style="fill:#ff7f0e;stroke:#ff7f0e;" x="510.620818" xlink:href="#md65d13ad7a" y="417.470843"/>
     <use style="fill:#ff7f0e;stroke:#ff7f0e;" x="372.60293" xlink:href="#md65d13ad7a" y="249.908474"/>
     <use style="fill:#ff7f0e;stroke:#ff7f0e;" x="258.446812" xlink:href="#md65d13ad7a" y="128.593814"/>
     <use style="fill:#ff7f0e;stroke:#ff7f0e;" x="407.664936" xlink:href="#md65d13ad7a" y="251.355818"/>
     <use style="fill:#ff7f0e;stroke:#ff7f0e;" x="375.322292" xlink:href="#md65d13ad7a" y="353.666321"/>
     <use style="fill:#ff7f0e;stroke:#ff7f0e;" x="612.68025" xlink:href="#md65d13ad7a" y="474.01239"/>
     <use style="fill:#ff7f0e;stroke:#ff7f0e;" x="400.476949" xlink:href="#md65d13ad7a" y="281.380946"/>
     <use style="fill:#ff7f0e;stroke:#ff7f0e;" x="453.967671" xlink:href="#md65d13ad7a" y="357.780637"/>
     <use style="fill:#ff7f0e;stroke:#ff7f0e;" x="294.04474" xlink:href="#md65d13ad7a" y="198.313415"/>
     <use style="fill:#ff7f0e;stroke:#ff7f0e;" x="492.691065" xlink:href="#md65d13ad7a" y="431.89687"/>
     <use style="fill:#ff7f0e;stroke:#ff7f0e;" x="297.412089" xlink:href="#md65d13ad7a" y="266.641356"/>
     <use style="fill:#ff7f0e;stroke:#ff7f0e;" x="555.908203" xlink:href="#md65d13ad7a" y="580.031089"/>
     <use style="fill:#ff7f0e;stroke:#ff7f0e;" x="536.856029" xlink:href="#md65d13ad7a" y="419.944084"/>
    </g>
   </g>
   <g id="PathCollection_3">
    <defs>
     <path d="M 0 7.071068 
C 1.875269 7.071068 3.673985 6.326016 5 5 
C 6.326016 3.673985 7.071068 1.875269 7.071068 0 
C 7.071068 -1.875269 6.326016 -3.673985 5 -5 
C 3.673985 -6.326016 1.875269 -7.071068 0 -7.071068 
C -1.875269 -7.071068 -3.673985 -6.326016 -5 -5 
C -6.326016 -3.673985 -7.071068 -1.875269 -7.071068 0 
C -7.071068 1.875269 -6.326016 3.673985 -5 5 
C -3.673985 6.326016 -1.875269 7.071068 0 7.071068 
z
" id="m8d5e169810" style="stroke:#ff7f0e;"/>
    </defs>
    <g clip-path="url(#p85b00e7eee)">
     <use style="fill:#ff7f0e;stroke:#ff7f0e;" x="422.110244" xlink:href="#m8d5e169810" y="485.822496"/>
    </g>
   </g>
   <g id="PathCollection_4">
    <defs>
     <path d="M 0 7.071068 
C 1.875269 7.071068 3.673985 6.326016 5 5 
C 6.326016 3.673985 7.071068 1.875269 7.071068 0 
C 7.071068 -1.875269 6.326016 -3.673985 5 -5 
C 3.673985 -6.326016 1.875269 -7.071068 0 -7.071068 
C -1.875269 -7.071068 -3.673985 -6.326016 -5 -5 
C -6.326016 -3.673985 -7.071068 -1.875269 -7.071068 0 
C -7.071068 1.875269 -6.326016 3.673985 -5 5 
C -3.673985 6.326016 -1.875269 7.071068 0 7.071068 
z
" id="m97f5cab3be" style="stroke:#1f77b4;"/>
    </defs>
    <g clip-path="url(#p85b00e7eee)">
     <use style="fill:#1f77b4;stroke:#1f77b4;" x="422.110244" xlink:href="#m97f5cab3be" y="341.644992"/>
    </g>
   </g>
   <g id="patch_3">
    <path clip-path="url(#p85b00e7eee)" d="M 457.426376 521.138628 
C 484.463538 494.101466 506.675837 464.446906 519.171272 438.70602 
C 531.666708 412.965135 533.425083 393.239553 524.059135 383.873605 
C 514.693187 374.507658 494.967606 376.266032 469.22672 388.761468 
C 443.485834 401.256903 413.831274 423.469202 386.794113 450.506364 
C 359.756951 477.543526 337.544651 507.198086 325.049216 532.938972 
C 312.553781 558.679857 310.795406 578.405439 320.161353 587.771387 
C 329.527301 597.137334 349.252883 595.37896 374.993768 582.883524 
C 400.734654 570.388089 430.389214 548.17579 457.426376 521.138628 
z
" style="fill:none;stroke:#1f77b4;stroke-dasharray:14.8,6.4;stroke-dashoffset:0;stroke-linejoin:miter;stroke-width:4;"/>
   </g>
   <g id="patch_4">
    <path clip-path="url(#p85b00e7eee)" d="M 376.517314 387.237922 
C 414.753635 425.474243 456.233002 457.345692 491.820065 475.832953 
C 527.407128 494.320213 554.196362 497.913882 566.287748 485.822496 
C 578.379135 473.73111 574.785466 446.941876 556.298205 411.354813 
C 537.810944 375.76775 505.939495 334.288383 467.703174 296.052062 
C 429.466853 257.815741 387.987487 225.944292 352.400423 207.457031 
C 316.81336 188.969771 290.024127 185.376102 277.93274 197.467488 
C 265.841354 209.558874 269.435023 236.348108 287.922283 271.935171 
C 306.409544 307.522234 338.280993 349.001601 376.517314 387.237922 
z
" style="fill:none;stroke:#ff7f0e;stroke-dasharray:14.8,6.4;stroke-dashoffset:0;stroke-linejoin:miter;stroke-width:4;"/>
   </g>
   <g id="matplotlib.axis_1">
    <g id="xtick_1">
     <g id="line2d_1">
      <defs>
       <path d="M 0 0 
L 0 3.5 
" id="m2cdd12185a" style="stroke:#000000;stroke-width:0.8;"/>
      </defs>
      <g>
       <use style="stroke:#000000;stroke-width:0.8;" x="205.843988" xlink:href="#m2cdd12185a" y="630"/>
      </g>
     </g>
     <g id="text_1">
      <!-- $\mathdefault{0}$ -->
      <g transform="translate(202.917493 645.30218)scale(0.12 -0.12)">
       <defs>
        <path d="M 42 31.84375 
C 42 37.96875 41.90625 48.421875 37.703125 56.453125 
C 34 63.484375 28.09375 66 22.90625 66 
C 18.09375 66 12 63.78125 8.203125 56.5625 
C 4.203125 49.015625 3.796875 39.671875 3.796875 31.84375 
C 3.796875 26.109375 3.90625 17.375 7 9.734375 
C 11.296875 -0.609375 19 -2 22.90625 -2 
C 27.5 -2 34.5 -0.109375 38.59375 9.4375 
C 41.59375 16.375 42 24.5 42 31.84375 
z
M 22.90625 -0.40625 
C 16.5 -0.40625 12.703125 5.125 11.296875 12.75 
C 10.203125 18.6875 10.203125 27.328125 10.203125 32.953125 
C 10.203125 40.6875 10.203125 47.109375 11.5 53.234375 
C 13.40625 61.78125 19 64.390625 22.90625 64.390625 
C 27 64.390625 32.296875 61.671875 34.203125 53.4375 
C 35.5 47.71875 35.59375 40.984375 35.59375 32.953125 
C 35.59375 26.421875 35.59375 18.375 34.40625 12.453125 
C 32.296875 1.5 26.40625 -0.40625 22.90625 -0.40625 
z
" id="CMR17-48"/>
       </defs>
       <use transform="scale(0.996264)" xlink:href="#CMR17-48"/>
      </g>
     </g>
    </g>
    <g id="xtick_2">
     <g id="line2d_2">
      <g>
       <use style="stroke:#000000;stroke-width:0.8;" x="277.93274" xlink:href="#m2cdd12185a" y="630"/>
      </g>
     </g>
     <g id="text_2">
      <!-- $\mathdefault{5}$ -->
      <g transform="translate(275.006245 645.30218)scale(0.12 -0.12)">
       <defs>
        <path d="M 11.40625 58.59375 
C 12.40625 58.1875 16.5 56.890625 20.703125 56.890625 
C 30 56.890625 35.09375 61.890625 38 64.6875 
C 38 65.484375 38 66 37.40625 66 
C 37.296875 66 37.09375 66 36.296875 65.59375 
C 32.796875 64.09375 28.703125 63 23.703125 63 
C 20.703125 63 16.203125 63.359375 11.296875 65.484375 
C 10.203125 66 10 66 9.90625 66 
C 9.40625 66 9.296875 65.890625 9.296875 63.90625 
L 9.296875 34.859375 
C 9.296875 33.015625 9.296875 32.5 10.296875 32.5 
C 10.796875 32.5 11 32.703125 11.5 33.421875 
C 14.703125 38.046875 19.09375 40 24.09375 40 
C 27.59375 40 35.09375 37.734375 35.09375 20.203125 
C 35.09375 16.984375 35.09375 11.1875 32.09375 6.59375 
C 29.59375 2.484375 25.703125 0.390625 21.40625 0.390625 
C 14.796875 0.390625 8.09375 4.984375 6.296875 12.6875 
C 6.703125 12.59375 7.5 12.390625 7.90625 12.390625 
C 9.203125 12.390625 11.703125 13.09375 11.703125 16.1875 
C 11.703125 18.890625 9.796875 20 7.90625 20 
C 5.59375 20 4.09375 18.59375 4.09375 15.796875 
C 4.09375 7.09375 11 -2 21.59375 -2 
C 31.90625 -2 41.703125 6.890625 41.703125 19.796875 
C 41.703125 32.09375 33.90625 41.59375 24.203125 41.59375 
C 19.09375 41.59375 14.796875 39.6875 11.40625 36 
z
" id="CMR17-53"/>
       </defs>
       <use transform="scale(0.996264)" xlink:href="#CMR17-53"/>
      </g>
     </g>
    </g>
    <g id="xtick_3">
     <g id="line2d_3">
      <g>
       <use style="stroke:#000000;stroke-width:0.8;" x="350.021492" xlink:href="#m2cdd12185a" y="630"/>
      </g>
     </g>
     <g id="text_3">
      <!-- $\mathdefault{10}$ -->
      <g transform="translate(344.168502 645.30218)scale(0.12 -0.12)">
       <defs>
        <path d="M 26.59375 63.796875 
C 26.59375 65.890625 26.5 66 25.09375 66 
C 21.203125 61.359375 15.296875 59.890625 9.703125 59.6875 
C 9.40625 59.6875 8.90625 59.6875 8.796875 59.5 
C 8.703125 59.296875 8.703125 59.09375 8.703125 57 
C 11.796875 57 17 57.59375 21 59.984375 
L 21 7.296875 
C 21 3.796875 20.796875 2.59375 12.203125 2.59375 
L 9.203125 2.59375 
L 9.203125 0 
C 14 0.09375 19 0.1875 23.796875 0.1875 
C 28.59375 0.1875 33.59375 0.09375 38.40625 0 
L 38.40625 2.59375 
L 35.40625 2.59375 
C 26.796875 2.59375 26.59375 3.6875 26.59375 7.296875 
z
" id="CMR17-49"/>
       </defs>
       <use transform="scale(0.996264)" xlink:href="#CMR17-49"/>
       <use transform="translate(45.690477 0)scale(0.996264)" xlink:href="#CMR17-48"/>
      </g>
     </g>
    </g>
    <g id="xtick_4">
     <g id="line2d_4">
      <g>
       <use style="stroke:#000000;stroke-width:0.8;" x="422.110244" xlink:href="#m2cdd12185a" y="630"/>
      </g>
     </g>
     <g id="text_4">
      <!-- $\mathdefault{15}$ -->
      <g transform="translate(416.257254 645.30218)scale(0.12 -0.12)">
       <use transform="scale(0.996264)" xlink:href="#CMR17-49"/>
       <use transform="translate(45.690477 0)scale(0.996264)" xlink:href="#CMR17-53"/>
      </g>
     </g>
    </g>
    <g id="xtick_5">
     <g id="line2d_5">
      <g>
       <use style="stroke:#000000;stroke-width:0.8;" x="494.198996" xlink:href="#m2cdd12185a" y="630"/>
      </g>
     </g>
     <g id="text_5">
      <!-- $\mathdefault{20}$ -->
      <g transform="translate(488.346006 645.30218)scale(0.12 -0.12)">
       <defs>
        <path d="M 41.703125 15.46875 
L 39.90625 15.46875 
C 38.90625 8.390625 38.09375 7.1875 37.703125 6.59375 
C 37.203125 5.796875 30 5.796875 28.59375 5.796875 
L 9.40625 5.796875 
C 13 9.6875 20 16.765625 28.5 24.9375 
C 34.59375 30.71875 41.703125 37.5 41.703125 47.390625 
C 41.703125 59.1875 32.296875 66 21.796875 66 
C 10.796875 66 4.09375 56.296875 4.09375 47.296875 
C 4.09375 43.390625 7 42.890625 8.203125 42.890625 
C 9.203125 42.890625 12.203125 43.484375 12.203125 46.984375 
C 12.203125 50.09375 9.59375 51 8.203125 51 
C 7.59375 51 7 50.890625 6.59375 50.6875 
C 8.5 59.1875 14.296875 63.390625 20.40625 63.390625 
C 29.09375 63.390625 34.796875 56.5 34.796875 47.390625 
C 34.796875 38.703125 29.703125 31.21875 24 24.734375 
L 4.09375 2.296875 
L 4.09375 0 
L 39.296875 0 
z
" id="CMR17-50"/>
       </defs>
       <use transform="scale(0.996264)" xlink:href="#CMR17-50"/>
       <use transform="translate(45.690477 0)scale(0.996264)" xlink:href="#CMR17-48"/>
      </g>
     </g>
    </g>
    <g id="xtick_6">
     <g id="line2d_6">
      <g>
       <use style="stroke:#000000;stroke-width:0.8;" x="566.287748" xlink:href="#m2cdd12185a" y="630"/>
      </g>
     </g>
     <g id="text_6">
      <!-- $\mathdefault{25}$ -->
      <g transform="translate(560.434758 645.30218)scale(0.12 -0.12)">
       <use transform="scale(0.996264)" xlink:href="#CMR17-50"/>
       <use transform="translate(45.690477 0)scale(0.996264)" xlink:href="#CMR17-53"/>
      </g>
     </g>
    </g>
    <g id="xtick_7">
     <g id="line2d_7">
      <g>
       <use style="stroke:#000000;stroke-width:0.8;" x="638.3765" xlink:href="#m2cdd12185a" y="630"/>
      </g>
     </g>
     <g id="text_7">
      <!-- $\mathdefault{30}$ -->
      <g transform="translate(632.52351 645.30218)scale(0.12 -0.12)">
       <defs>
        <path d="M 22.09375 34 
C 31 34 34.90625 26.140625 34.90625 17.09375 
C 34.90625 5.03125 28.5 0.390625 22.703125 0.390625 
C 17.40625 0.390625 8.796875 3.015625 6.09375 10.796875 
C 6.59375 10.59375 7.09375 10.59375 7.59375 10.59375 
C 10 10.59375 11.796875 12.1875 11.796875 14.796875 
C 11.796875 17.6875 9.59375 19 7.59375 19 
C 5.90625 19 3.296875 18.1875 3.296875 14.484375 
C 3.296875 5.234375 12.296875 -2 22.90625 -2 
C 34 -2 42.5 6.75 42.5 16.984375 
C 42.5 26.84375 34.5 34 25 35.09375 
C 32.59375 36.671875 39.90625 43.375 39.90625 52.390625 
C 39.90625 60.25 32 66 23 66 
C 13.90625 66 5.90625 60.34375 5.90625 52.296875 
C 5.90625 48.796875 8.5 48.1875 9.796875 48.1875 
C 11.90625 48.1875 13.703125 49.484375 13.703125 52.09375 
C 13.703125 54.6875 11.90625 56 9.796875 56 
C 9.40625 56 8.90625 56 8.5 55.796875 
C 11.40625 62.484375 19.296875 63.6875 22.796875 63.6875 
C 26.296875 63.6875 32.90625 61.96875 32.90625 52.296875 
C 32.90625 49.484375 32.5 44.546875 29.09375 40.21875 
C 26.09375 36.390625 22.703125 36.1875 19.40625 35.890625 
C 18.90625 35.890625 16.59375 35.6875 16.203125 35.6875 
C 15.5 35.59375 15.09375 35.5 15.09375 34.796875 
C 15.09375 34.09375 15.203125 34 17.203125 34 
z
" id="CMR17-51"/>
       </defs>
       <use transform="scale(0.996264)" xlink:href="#CMR17-51"/>
       <use transform="translate(45.690477 0)scale(0.996264)" xlink:href="#CMR17-48"/>
      </g>
     </g>
    </g>
   </g>
   <g id="matplotlib.axis_2">
    <g id="ytick_1">
     <g id="line2d_8">
      <defs>
       <path d="M 0 0 
L -3.5 0 
" id="m0b6e3642ad" style="stroke:#000000;stroke-width:0.8;"/>
      </defs>
      <g>
       <use style="stroke:#000000;stroke-width:0.8;" x="205.843988" xlink:href="#m0b6e3642ad" y="630"/>
      </g>
     </g>
     <g id="text_8">
      <!-- $\mathdefault{0}$ -->
      <g transform="translate(192.990998 634.15109)scale(0.12 -0.12)">
       <use transform="scale(0.996264)" xlink:href="#CMR17-48"/>
      </g>
     </g>
    </g>
    <g id="ytick_2">
     <g id="line2d_9">
      <g>
       <use style="stroke:#000000;stroke-width:0.8;" x="205.843988" xlink:href="#m0b6e3642ad" y="557.911248"/>
      </g>
     </g>
     <g id="text_9">
      <!-- $\mathdefault{5}$ -->
      <g transform="translate(192.990998 562.062338)scale(0.12 -0.12)">
       <use transform="scale(0.996264)" xlink:href="#CMR17-53"/>
      </g>
     </g>
    </g>
    <g id="ytick_3">
     <g id="line2d_10">
      <g>
       <use style="stroke:#000000;stroke-width:0.8;" x="205.843988" xlink:href="#m0b6e3642ad" y="485.822496"/>
      </g>
     </g>
     <g id="text_10">
      <!-- $\mathdefault{10}$ -->
      <g transform="translate(187.138008 489.973586)scale(0.12 -0.12)">
       <use transform="scale(0.996264)" xlink:href="#CMR17-49"/>
       <use transform="translate(45.690477 0)scale(0.996264)" xlink:href="#CMR17-48"/>
      </g>
     </g>
    </g>
    <g id="ytick_4">
     <g id="line2d_11">
      <g>
       <use style="stroke:#000000;stroke-width:0.8;" x="205.843988" xlink:href="#m0b6e3642ad" y="413.733744"/>
      </g>
     </g>
     <g id="text_11">
      <!-- $\mathdefault{15}$ -->
      <g transform="translate(187.138008 417.884834)scale(0.12 -0.12)">
       <use transform="scale(0.996264)" xlink:href="#CMR17-49"/>
       <use transform="translate(45.690477 0)scale(0.996264)" xlink:href="#CMR17-53"/>
      </g>
     </g>
    </g>
    <g id="ytick_5">
     <g id="line2d_12">
      <g>
       <use style="stroke:#000000;stroke-width:0.8;" x="205.843988" xlink:href="#m0b6e3642ad" y="341.644992"/>
      </g>
     </g>
     <g id="text_12">
      <!-- $\mathdefault{20}$ -->
      <g transform="translate(187.138008 345.796082)scale(0.12 -0.12)">
       <use transform="scale(0.996264)" xlink:href="#CMR17-50"/>
       <use transform="translate(45.690477 0)scale(0.996264)" xlink:href="#CMR17-48"/>
      </g>
     </g>
    </g>
    <g id="ytick_6">
     <g id="line2d_13">
      <g>
       <use style="stroke:#000000;stroke-width:0.8;" x="205.843988" xlink:href="#m0b6e3642ad" y="269.55624"/>
      </g>
     </g>
     <g id="text_13">
      <!-- $\mathdefault{25}$ -->
      <g transform="translate(187.138008 273.70733)scale(0.12 -0.12)">
       <use transform="scale(0.996264)" xlink:href="#CMR17-50"/>
       <use transform="translate(45.690477 0)scale(0.996264)" xlink:href="#CMR17-53"/>
      </g>
     </g>
    </g>
    <g id="ytick_7">
     <g id="line2d_14">
      <g>
       <use style="stroke:#000000;stroke-width:0.8;" x="205.843988" xlink:href="#m0b6e3642ad" y="197.467488"/>
      </g>
     </g>
     <g id="text_14">
      <!-- $\mathdefault{30}$ -->
      <g transform="translate(187.138008 201.618578)scale(0.12 -0.12)">
       <use transform="scale(0.996264)" xlink:href="#CMR17-51"/>
       <use transform="translate(45.690477 0)scale(0.996264)" xlink:href="#CMR17-48"/>
      </g>
     </g>
    </g>
    <g id="ytick_8">
     <g id="line2d_15">
      <g>
       <use style="stroke:#000000;stroke-width:0.8;" x="205.843988" xlink:href="#m0b6e3642ad" y="125.378736"/>
      </g>
     </g>
     <g id="text_15">
      <!-- $\mathdefault{35}$ -->
      <g transform="translate(187.138008 129.529826)scale(0.12 -0.12)">
       <use transform="scale(0.996264)" xlink:href="#CMR17-51"/>
       <use transform="translate(45.690477 0)scale(0.996264)" xlink:href="#CMR17-53"/>
      </g>
     </g>
    </g>
   </g>
   <g id="patch_5">
    <path d="M 205.843988 630 
L 205.843988 86.4 
" style="fill:none;stroke:#000000;stroke-linecap:square;stroke-linejoin:miter;stroke-width:0.8;"/>
   </g>
   <g id="patch_6">
    <path d="M 661.428739 630 
L 661.428739 86.4 
" style="fill:none;stroke:#000000;stroke-linecap:square;stroke-linejoin:miter;stroke-width:0.8;"/>
   </g>
   <g id="patch_7">
    <path d="M 205.843988 630 
L 661.428739 630 
" style="fill:none;stroke:#000000;stroke-linecap:square;stroke-linejoin:miter;stroke-width:0.8;"/>
   </g>
   <g id="patch_8">
    <path d="M 205.843988 86.4 
L 661.428739 86.4 
" style="fill:none;stroke:#000000;stroke-linecap:square;stroke-linejoin:miter;stroke-width:0.8;"/>
   </g>
  </g>
  <g id="axes_2">
   <g id="patch_9">
    <path d="M 788.727273 630 
L 1296 630 
L 1296 86.4 
L 788.727273 86.4 
z
" style="fill:#ffffff;"/>
   </g>
   <g id="PolyCollection_1">
    <defs>
     <path d="M 811.785124 -466.35406 
L 811.785124 -608.890909 
L 877.664699 -562.468045 
L 943.544274 -553.204788 
L 1009.423849 -544.62524 
L 1075.303424 -548.493463 
L 1141.182999 -542.364144 
L 1207.062574 -551.645549 
L 1272.942149 -539.310821 
L 1272.942149 -497.83521 
L 1272.942149 -497.83521 
L 1207.062574 -510.408891 
L 1141.182999 -502.286671 
L 1075.303424 -494.025914 
L 1009.423849 -497.747654 
L 943.544274 -497.389116 
L 877.664699 -465.738055 
L 811.785124 -466.35406 
z
" id="m07f552c80f" style="stroke:#9467bd;stroke-opacity:0.3;"/>
    </defs>
    <g clip-path="url(#p69b2b66a8f)">
     <use style="fill:#9467bd;fill-opacity:0.3;stroke:#9467bd;stroke-opacity:0.3;" x="0" xlink:href="#m07f552c80f" y="720"/>
    </g>
   </g>
   <g id="matplotlib.axis_3">
    <g id="xtick_8">
     <g id="line2d_16">
      <g>
       <use style="stroke:#000000;stroke-width:0.8;" x="811.785124" xlink:href="#m2cdd12185a" y="630"/>
      </g>
     </g>
     <g id="text_16">
      <!-- $\mathdefault{50}$ -->
      <g transform="translate(805.932134 645.30218)scale(0.12 -0.12)">
       <use transform="scale(0.996264)" xlink:href="#CMR17-53"/>
       <use transform="translate(45.690477 0)scale(0.996264)" xlink:href="#CMR17-48"/>
      </g>
     </g>
    </g>
    <g id="xtick_9">
     <g id="line2d_17">
      <g>
       <use style="stroke:#000000;stroke-width:0.8;" x="877.664699" xlink:href="#m2cdd12185a" y="630"/>
      </g>
     </g>
     <g id="text_17">
      <!-- $\mathdefault{100}$ -->
      <g transform="translate(868.885214 645.30218)scale(0.12 -0.12)">
       <use transform="scale(0.996264)" xlink:href="#CMR17-49"/>
       <use transform="translate(45.690477 0)scale(0.996264)" xlink:href="#CMR17-48"/>
       <use transform="translate(91.380954 0)scale(0.996264)" xlink:href="#CMR17-48"/>
      </g>
     </g>
    </g>
    <g id="xtick_10">
     <g id="line2d_18">
      <g>
       <use style="stroke:#000000;stroke-width:0.8;" x="943.544274" xlink:href="#m2cdd12185a" y="630"/>
      </g>
     </g>
     <g id="text_18">
      <!-- $\mathdefault{150}$ -->
      <g transform="translate(934.764789 645.30218)scale(0.12 -0.12)">
       <use transform="scale(0.996264)" xlink:href="#CMR17-49"/>
       <use transform="translate(45.690477 0)scale(0.996264)" xlink:href="#CMR17-53"/>
       <use transform="translate(91.380954 0)scale(0.996264)" xlink:href="#CMR17-48"/>
      </g>
     </g>
    </g>
    <g id="xtick_11">
     <g id="line2d_19">
      <g>
       <use style="stroke:#000000;stroke-width:0.8;" x="1009.423849" xlink:href="#m2cdd12185a" y="630"/>
      </g>
     </g>
     <g id="text_19">
      <!-- $\mathdefault{200}$ -->
      <g transform="translate(1000.644364 645.30218)scale(0.12 -0.12)">
       <use transform="scale(0.996264)" xlink:href="#CMR17-50"/>
       <use transform="translate(45.690477 0)scale(0.996264)" xlink:href="#CMR17-48"/>
       <use transform="translate(91.380954 0)scale(0.996264)" xlink:href="#CMR17-48"/>
      </g>
     </g>
    </g>
    <g id="xtick_12">
     <g id="line2d_20">
      <g>
       <use style="stroke:#000000;stroke-width:0.8;" x="1075.303424" xlink:href="#m2cdd12185a" y="630"/>
      </g>
     </g>
     <g id="text_20">
      <!-- $\mathdefault{250}$ -->
      <g transform="translate(1066.523938 645.30218)scale(0.12 -0.12)">
       <use transform="scale(0.996264)" xlink:href="#CMR17-50"/>
       <use transform="translate(45.690477 0)scale(0.996264)" xlink:href="#CMR17-53"/>
       <use transform="translate(91.380954 0)scale(0.996264)" xlink:href="#CMR17-48"/>
      </g>
     </g>
    </g>
    <g id="xtick_13">
     <g id="line2d_21">
      <g>
       <use style="stroke:#000000;stroke-width:0.8;" x="1141.182999" xlink:href="#m2cdd12185a" y="630"/>
      </g>
     </g>
     <g id="text_21">
      <!-- $\mathdefault{300}$ -->
      <g transform="translate(1132.403513 645.30218)scale(0.12 -0.12)">
       <use transform="scale(0.996264)" xlink:href="#CMR17-51"/>
       <use transform="translate(45.690477 0)scale(0.996264)" xlink:href="#CMR17-48"/>
       <use transform="translate(91.380954 0)scale(0.996264)" xlink:href="#CMR17-48"/>
      </g>
     </g>
    </g>
    <g id="xtick_14">
     <g id="line2d_22">
      <g>
       <use style="stroke:#000000;stroke-width:0.8;" x="1207.062574" xlink:href="#m2cdd12185a" y="630"/>
      </g>
     </g>
     <g id="text_22">
      <!-- $\mathdefault{350}$ -->
      <g transform="translate(1198.283088 645.30218)scale(0.12 -0.12)">
       <use transform="scale(0.996264)" xlink:href="#CMR17-51"/>
       <use transform="translate(45.690477 0)scale(0.996264)" xlink:href="#CMR17-53"/>
       <use transform="translate(91.380954 0)scale(0.996264)" xlink:href="#CMR17-48"/>
      </g>
     </g>
    </g>
    <g id="xtick_15">
     <g id="line2d_23">
      <g>
       <use style="stroke:#000000;stroke-width:0.8;" x="1272.942149" xlink:href="#m2cdd12185a" y="630"/>
      </g>
     </g>
     <g id="text_23">
      <!-- $\mathdefault{400}$ -->
      <g transform="translate(1264.162663 645.30218)scale(0.12 -0.12)">
       <defs>
        <path d="M 33.59375 64.796875 
C 33.59375 66.890625 33.5 67 31.703125 67 
L 2 19.59375 
L 2 17 
L 27.796875 17 
L 27.796875 7.1875 
C 27.796875 3.59375 27.59375 2.59375 20.59375 2.59375 
L 18.703125 2.59375 
L 18.703125 0 
C 21.90625 0.1875 27.296875 0.1875 30.703125 0.1875 
C 34.09375 0.1875 39.5 0.1875 42.703125 0 
L 42.703125 2.59375 
L 40.796875 2.59375 
C 33.796875 2.59375 33.59375 3.59375 33.59375 7.1875 
L 33.59375 17 
L 43.796875 17 
L 43.796875 19.59375 
L 33.59375 19.59375 
z
M 28.09375 58.171875 
L 28.09375 19.59375 
L 4 19.59375 
z
" id="CMR17-52"/>
       </defs>
       <use transform="scale(0.996264)" xlink:href="#CMR17-52"/>
       <use transform="translate(45.690477 0)scale(0.996264)" xlink:href="#CMR17-48"/>
       <use transform="translate(91.380954 0)scale(0.996264)" xlink:href="#CMR17-48"/>
      </g>
     </g>
    </g>
   </g>
   <g id="matplotlib.axis_4">
    <g id="ytick_9">
     <g id="line2d_24">
      <g>
       <use style="stroke:#000000;stroke-width:0.8;" x="788.727273" xlink:href="#m0b6e3642ad" y="606.150179"/>
      </g>
     </g>
     <g id="text_24">
      <!-- $\mathdefault{6}$ -->
      <g transform="translate(775.874282 610.301269)scale(0.12 -0.12)">
       <defs>
        <path d="M 10.59375 34.34375 
C 10.59375 58 21.796875 63.6875 28.296875 63.6875 
C 30.40625 63.6875 35.5 63.265625 37.5 59.09375 
C 35.90625 59.09375 32.90625 59.09375 32.90625 55.59375 
C 32.90625 52.890625 35.09375 52 36.5 52 
C 37.40625 52 40.09375 52.390625 40.09375 55.796875 
C 40.09375 62.296875 35.09375 66 28.203125 66 
C 16.296875 66 3.796875 53.296875 3.796875 31.421875 
C 3.796875 4.015625 15.09375 -2 23.09375 -2 
C 32.796875 -2 42 6.734375 42 20.234375 
C 42 32.828125 33.90625 42 23.703125 42 
C 17.59375 42 13.09375 37.96875 10.59375 30.921875 
z
M 23.09375 0.390625 
C 10.796875 0.390625 10.796875 18.9375 10.796875 22.65625 
C 10.796875 29.90625 14.203125 40.390625 23.5 40.390625 
C 25.203125 40.390625 30.09375 40.390625 33.40625 33.4375 
C 35.203125 29.515625 35.203125 25.375 35.203125 20.34375 
C 35.203125 14.90625 35.203125 10.875 33.09375 6.84375 
C 30.90625 2.703125 27.703125 0.390625 23.09375 0.390625 
z
" id="CMR17-54"/>
       </defs>
       <use transform="scale(0.996264)" xlink:href="#CMR17-54"/>
      </g>
     </g>
    </g>
    <g id="ytick_10">
     <g id="line2d_25">
      <g>
       <use style="stroke:#000000;stroke-width:0.8;" x="788.727273" xlink:href="#m0b6e3642ad" y="534.682413"/>
      </g>
     </g>
     <g id="text_25">
      <!-- $\mathdefault{7}$ -->
      <g transform="translate(775.874282 538.833502)scale(0.12 -0.12)">
       <defs>
        <path d="M 45.09375 61.796875 
L 45.09375 64 
L 21.59375 64 
C 9.90625 64 9.703125 65.09375 9.296875 67 
L 7.5 67 
L 4.59375 48.5 
L 6.40625 48.5 
C 6.703125 50.40625 7.40625 55.5 8.59375 57.390625 
C 9.203125 58.1875 16.59375 58.1875 18.296875 58.1875 
L 40.296875 58.1875 
L 29.203125 41.71875 
C 21.796875 30.640625 16.703125 15.671875 16.703125 2.59375 
C 16.703125 1.390625 16.703125 -2 20.296875 -2 
C 23.90625 -2 23.90625 1.390625 23.90625 2.6875 
L 23.90625 7.28125 
C 23.90625 23.65625 26.703125 34.4375 31.296875 41.3125 
z
" id="CMR17-55"/>
       </defs>
       <use transform="scale(0.996264)" xlink:href="#CMR17-55"/>
      </g>
     </g>
    </g>
    <g id="ytick_11">
     <g id="line2d_26">
      <g>
       <use style="stroke:#000000;stroke-width:0.8;" x="788.727273" xlink:href="#m0b6e3642ad" y="463.214646"/>
      </g>
     </g>
     <g id="text_26">
      <!-- $\mathdefault{8}$ -->
      <g transform="translate(775.874282 467.365736)scale(0.12 -0.12)">
       <defs>
        <path d="M 27.203125 35.765625 
C 33.5 38.96875 39.90625 43.796875 39.90625 51.53125 
C 39.90625 60.6875 31.09375 66 23 66 
C 13.90625 66 5.90625 59.375 5.90625 50.234375 
C 5.90625 47.71875 6.5 43.390625 10.40625 39.578125 
C 11.40625 38.578125 15.59375 35.5625 18.296875 33.65625 
C 13.796875 31.34375 3.296875 25.8125 3.296875 14.765625 
C 3.296875 4.40625 13.09375 -2 22.796875 -2 
C 33.5 -2 42.5 5.71875 42.5 15.96875 
C 42.5 25.109375 36.40625 29.328125 32.40625 32.046875 
z
M 14.09375 44.609375 
C 13.296875 45.109375 9.296875 48.21875 9.296875 52.9375 
C 9.296875 59.078125 15.59375 63.6875 22.796875 63.6875 
C 30.703125 63.6875 36.5 58.0625 36.5 51.53125 
C 36.5 42.1875 26.09375 36.859375 25.59375 36.859375 
C 25.5 36.859375 25.40625 36.859375 24.59375 37.46875 
z
M 32.5 24 
C 34 22.90625 38.796875 19.578125 38.796875 13.453125 
C 38.796875 6.015625 31.40625 0.390625 23 0.390625 
C 13.90625 0.390625 7 6.921875 7 14.859375 
C 7 22.796875 13.09375 29.4375 20 32.546875 
z
" id="CMR17-56"/>
       </defs>
       <use transform="scale(0.996264)" xlink:href="#CMR17-56"/>
      </g>
     </g>
    </g>
    <g id="ytick_12">
     <g id="line2d_27">
      <g>
       <use style="stroke:#000000;stroke-width:0.8;" x="788.727273" xlink:href="#m0b6e3642ad" y="391.746879"/>
      </g>
     </g>
     <g id="text_27">
      <!-- $\mathdefault{9}$ -->
      <g transform="translate(775.874282 395.897969)scale(0.12 -0.12)">
       <defs>
        <path d="M 35.203125 29.234375 
C 35.203125 7 26.09375 0.390625 18.59375 0.390625 
C 16.296875 0.390625 10.703125 0.671875 8.40625 4.390625 
C 11 4 12.90625 5.390625 12.90625 7.890625 
C 12.90625 10.59375 10.703125 11.5 9.296875 11.5 
C 8.40625 11.5 5.703125 11.09375 5.703125 7.6875 
C 5.703125 1.0625 11.59375 -2 18.796875 -2 
C 30.296875 -2 42 10.390625 42 32.65625 
C 42 60.265625 30.796875 66 23.203125 66 
C 13.296875 66 3.796875 57.25 3.796875 43.75 
C 3.796875 31.25 11.90625 22 22.09375 22 
C 30.5 22 34.203125 29.84375 35.203125 33.15625 
z
M 22.296875 23.59375 
C 19.59375 23.59375 15.796875 24.09375 12.703125 30.140625 
C 10.59375 34.078125 10.59375 38.703125 10.59375 43.640625 
C 10.59375 49.59375 10.59375 53.71875 13.40625 58.15625 
C 14.796875 60.265625 17.40625 63.6875 23.203125 63.6875 
C 35 63.6875 35 45.453125 35 41.421875 
C 35 34.265625 31.796875 23.59375 22.296875 23.59375 
z
" id="CMR17-57"/>
       </defs>
       <use transform="scale(0.996264)" xlink:href="#CMR17-57"/>
      </g>
     </g>
    </g>
    <g id="ytick_13">
     <g id="line2d_28">
      <g>
       <use style="stroke:#000000;stroke-width:0.8;" x="788.727273" xlink:href="#m0b6e3642ad" y="320.279112"/>
      </g>
     </g>
     <g id="text_28">
      <!-- $\mathdefault{10}$ -->
      <g transform="translate(770.021292 324.430202)scale(0.12 -0.12)">
       <use transform="scale(0.996264)" xlink:href="#CMR17-49"/>
       <use transform="translate(45.690477 0)scale(0.996264)" xlink:href="#CMR17-48"/>
      </g>
     </g>
    </g>
    <g id="ytick_14">
     <g id="line2d_29">
      <g>
       <use style="stroke:#000000;stroke-width:0.8;" x="788.727273" xlink:href="#m0b6e3642ad" y="248.811345"/>
      </g>
     </g>
     <g id="text_29">
      <!-- $\mathdefault{11}$ -->
      <g transform="translate(770.021292 252.962435)scale(0.12 -0.12)">
       <use transform="scale(0.996264)" xlink:href="#CMR17-49"/>
       <use transform="translate(45.690477 0)scale(0.996264)" xlink:href="#CMR17-49"/>
      </g>
     </g>
    </g>
    <g id="ytick_15">
     <g id="line2d_30">
      <g>
       <use style="stroke:#000000;stroke-width:0.8;" x="788.727273" xlink:href="#m0b6e3642ad" y="177.343578"/>
      </g>
     </g>
     <g id="text_30">
      <!-- $\mathdefault{12}$ -->
      <g transform="translate(770.021292 181.494668)scale(0.12 -0.12)">
       <use transform="scale(0.996264)" xlink:href="#CMR17-49"/>
       <use transform="translate(45.690477 0)scale(0.996264)" xlink:href="#CMR17-50"/>
      </g>
     </g>
    </g>
    <g id="ytick_16">
     <g id="line2d_31">
      <g>
       <use style="stroke:#000000;stroke-width:0.8;" x="788.727273" xlink:href="#m0b6e3642ad" y="105.875812"/>
      </g>
     </g>
     <g id="text_31">
      <!-- $\mathdefault{13}$ -->
      <g transform="translate(770.021292 110.026901)scale(0.12 -0.12)">
       <use transform="scale(0.996264)" xlink:href="#CMR17-49"/>
       <use transform="translate(45.690477 0)scale(0.996264)" xlink:href="#CMR17-51"/>
      </g>
     </g>
    </g>
   </g>
   <g id="line2d_32">
    <path clip-path="url(#p69b2b66a8f)" d="M 811.785124 320.279112 
L 877.664699 320.279112 
L 943.544274 320.279112 
L 1009.423849 320.279112 
L 1075.303424 320.279112 
L 1141.182999 320.279112 
L 1207.062574 320.279112 
L 1272.942149 320.279112 
" style="fill:none;stroke:#d62728;stroke-linecap:square;stroke-width:1.5;"/>
   </g>
   <g id="line2d_33">
    <path clip-path="url(#p69b2b66a8f)" d="M 811.785124 201.064143 
L 877.664699 201.064143 
L 943.544274 201.064143 
L 1009.423849 201.064143 
L 1075.303424 201.064143 
L 1141.182999 201.064143 
L 1207.062574 201.064143 
L 1272.942149 201.064143 
" style="fill:none;stroke:#d62728;stroke-dasharray:5.55,2.4;stroke-dashoffset:0;stroke-width:1.5;"/>
   </g>
   <g id="line2d_34">
    <path clip-path="url(#p69b2b66a8f)" d="M 811.785124 605.290909 
L 877.664699 605.290909 
L 943.544274 605.290909 
L 1009.423849 605.290909 
L 1075.303424 605.290909 
L 1141.182999 605.290909 
L 1207.062574 605.290909 
L 1272.942149 605.290909 
" style="fill:none;stroke:#d62728;stroke-linecap:square;stroke-width:1.5;"/>
   </g>
   <g id="line2d_35">
    <path clip-path="url(#p69b2b66a8f)" d="M 811.785124 182.377515 
L 877.664699 205.89695 
L 943.544274 194.703048 
L 1009.423849 198.813553 
L 1075.303424 198.740311 
L 1141.182999 197.674592 
L 1207.062574 188.97278 
L 1272.942149 201.426985 
" style="fill:none;stroke:#9467bd;stroke-linecap:square;stroke-width:5;"/>
   </g>
   <g id="patch_10">
    <path d="M 788.727273 630 
L 788.727273 86.4 
" style="fill:none;stroke:#000000;stroke-linecap:square;stroke-linejoin:miter;stroke-width:0.8;"/>
   </g>
   <g id="patch_11">
    <path d="M 1296 630 
L 1296 86.4 
" style="fill:none;stroke:#000000;stroke-linecap:square;stroke-linejoin:miter;stroke-width:0.8;"/>
   </g>
   <g id="patch_12">
    <path d="M 788.727273 630 
L 1296 630 
" style="fill:none;stroke:#000000;stroke-linecap:square;stroke-linejoin:miter;stroke-width:0.8;"/>
   </g>
   <g id="patch_13">
    <path d="M 788.727273 86.4 
L 1296 86.4 
" style="fill:none;stroke:#000000;stroke-linecap:square;stroke-linejoin:miter;stroke-width:0.8;"/>
   </g>
   <g id="legend_1">
    <g id="patch_14">
     <path d="M 1084.999392 166.283971 
L 1287.6 166.283971 
Q 1290 166.283971 1290 163.883971 
L 1290 94.8 
Q 1290 92.4 1287.6 92.4 
L 1084.999392 92.4 
Q 1082.599392 92.4 1082.599392 94.8 
L 1082.599392 163.883971 
Q 1082.599392 166.283971 1084.999392 166.283971 
z
" style="fill:#ffffff;opacity:0.8;stroke:#cccccc;stroke-linejoin:miter;"/>
    </g>
    <g id="line2d_36">
     <path d="M 1087.399392 102.118125 
L 1111.399392 102.118125 
" style="fill:none;stroke:#d62728;stroke-linecap:square;stroke-width:1.5;"/>
    </g>
    <g id="line2d_37"/>
    <g id="text_32">
     <!-- Distance of Means -->
     <g transform="translate(1120.999392 106.318125)scale(0.12 -0.12)">
      <defs>
       <path d="M 5.203125 68 
L 5.203125 65.390625 
C 12.09375 65.390625 13.203125 65.390625 13.203125 60.90625 
L 13.203125 7.078125 
C 13.203125 2.59375 12.09375 2.59375 5.203125 2.59375 
L 5.203125 0 
L 37 0 
C 53.09375 0 66 14.734375 66 33.4375 
C 66 52.25 53.296875 68 37 68 
z
M 23.796875 2.59375 
C 19.796875 2.59375 19.59375 3.09375 19.59375 6.46875 
L 19.59375 61.5 
C 19.59375 64.890625 19.796875 65.390625 23.796875 65.390625 
L 35 65.390625 
C 43.296875 65.390625 58.59375 60.515625 58.59375 33.4375 
C 58.59375 19.40625 54.5 13.734375 52.59375 11.046875 
C 50.203125 7.96875 44.5 2.59375 35 2.59375 
z
" id="CMR17-68"/>
       <path d="M 15.5 61.890625 
C 15.5 64.09375 13.703125 66 11.40625 66 
C 9.203125 66 7.296875 64.1875 7.296875 61.890625 
C 7.296875 59.6875 9.09375 57.796875 11.40625 57.796875 
C 13.59375 57.796875 15.5 59.59375 15.5 61.890625 
z
M 3.796875 42.890625 
L 3.796875 40.296875 
C 9.40625 40.296875 10.203125 39.6875 10.203125 34.859375 
L 10.203125 6.921875 
C 10.203125 3.09375 9.796875 2.59375 3.40625 2.59375 
L 3.40625 0 
C 5.796875 0.1875 10.09375 0.1875 12.59375 0.1875 
C 15 0.1875 19.09375 0.1875 21.40625 0 
L 21.40625 2.59375 
C 15.5 2.59375 15.296875 3.203125 15.296875 6.8125 
L 15.296875 44 
z
" id="CMR17-105"/>
       <path d="M 30.90625 42 
C 30.90625 43.796875 30.796875 43.890625 30.203125 43.890625 
C 29.796875 43.890625 29.703125 43.796875 28.5 42.296875 
C 28.203125 41.890625 27.296875 40.890625 27 40.5 
C 23.796875 43.890625 19.296875 44 17.59375 44 
C 6.5 44 2.5 38.1875 2.5 32.390625 
C 2.5 23.390625 12.703125 21.296875 15.59375 20.6875 
C 21.90625 19.390625 24.09375 19 26.203125 17.1875 
C 27.5 16 29.703125 13.796875 29.703125 10.1875 
C 29.703125 6 27.296875 0.59375 18.09375 0.59375 
C 9.40625 0.59375 6.296875 7.1875 4.5 16 
C 4.203125 17.390625 4.203125 17.5 3.40625 17.5 
C 2.59375 17.5 2.5 17.390625 2.5 15.390625 
L 2.5 1 
C 2.5 -0.8125 2.59375 -0.90625 3.203125 -0.90625 
C 3.703125 -0.90625 3.796875 -0.8125 4.296875 0 
C 4.90625 0.890625 6.40625 3.296875 7 4.296875 
C 9 1.59375 12.5 -1 18.09375 -1 
C 28 -1 33.296875 4.390625 33.296875 12.1875 
C 33.296875 17.296875 30.59375 20 29.296875 21.1875 
C 26.296875 24.296875 22.796875 25 18.59375 25.796875 
C 13.09375 27 6.09375 28.390625 6.09375 34.5 
C 6.09375 37.09375 7.5 42.59375 17.59375 42.59375 
C 28.296875 42.59375 28.90625 32.59375 29.09375 29.390625 
C 29.203125 28.890625 29.703125 28.796875 30 28.796875 
C 30.90625 28.796875 30.90625 29.09375 30.90625 30.796875 
z
" id="CMR17-115"/>
       <path d="M 15.09375 40.390625 
L 29.09375 40.390625 
L 29.09375 43 
L 15.09375 43 
L 15.09375 62 
L 13.296875 62 
C 13.09375 51.4375 9.59375 42.1875 1.09375 41.984375 
L 1.09375 40.390625 
L 9.796875 40.390625 
L 9.796875 12.15625 
C 9.796875 10.234375 9.796875 -1 21.40625 -1 
C 27.296875 -1 30.703125 4.8125 30.703125 12.25 
L 30.703125 17.984375 
L 28.90625 17.984375 
L 28.90625 12.34375 
C 28.90625 5.421875 26.203125 0.796875 22 0.796875 
C 19.09375 0.796875 15.09375 2.796875 15.09375 11.953125 
z
" id="CMR17-116"/>
       <path d="M 36 25.875 
C 36 32 36 35.546875 31.796875 39.59375 
C 28.09375 42.984375 23.796875 44 20.40625 44 
C 12.5 44 6.796875 37.625 6.796875 30.890625 
C 6.796875 27.1875 9.796875 27 10.40625 27 
C 11.703125 27 14 27.796875 14 30.59375 
C 14 33.09375 12.09375 34.1875 10.40625 34.1875 
C 10 34.1875 9.5 34.09375 9.203125 34 
C 11.296875 40.53125 16.703125 42.390625 20.203125 42.390625 
C 25.203125 42.390625 30.703125 37.828125 30.703125 29.296875 
L 30.703125 25.5 
C 24.796875 25.296875 17.703125 24.5 12.09375 21.453125 
C 5.796875 17.921875 4 12.84375 4 9 
C 4 1.203125 13 -1 18.296875 -1 
C 23.796875 -1 28.90625 2.109375 31.09375 7.890625 
C 31.296875 3.421875 34.09375 -0.609375 38.5 -0.609375 
C 40.59375 -0.609375 45.90625 0.796875 45.90625 8.796875 
L 45.90625 14.46875 
L 44.09375 14.46875 
L 44.09375 8.703125 
C 44.09375 2.515625 41.40625 1.703125 40.09375 1.703125 
C 36 1.703125 36 6.96875 36 11.4375 
z
M 30.703125 13.859375 
C 30.703125 5.046875 24.5 0.59375 19 0.59375 
C 14 0.59375 10.09375 4.34375 10.09375 9 
C 10.09375 12.046875 11.40625 17.40625 17.203125 20.65625 
C 22 23.390625 27.5 23.796875 30.703125 24 
z
" id="CMR17-97"/>
       <path d="M 41.5 30.53125 
C 41.5 35.65625 40.5 44 28.703125 44 
C 20.796875 44 16.703125 37.875 15.203125 33.84375 
L 15.09375 33.84375 
L 15.09375 44 
L 3.296875 42.890625 
L 3.296875 40.28125 
C 9.203125 40.28125 10.09375 39.6875 10.09375 34.859375 
L 10.09375 6.921875 
C 10.09375 3.09375 9.703125 2.59375 3.296875 2.59375 
L 3.296875 0 
C 5.703125 0.1875 10.09375 0.1875 12.703125 0.1875 
C 15.296875 0.1875 19.796875 0.1875 22.203125 0 
L 22.203125 2.59375 
C 15.796875 2.59375 15.40625 3 15.40625 6.921875 
L 15.40625 26.21875 
C 15.40625 35.453125 21 42.390625 28 42.390625 
C 35.40625 42.390625 36.203125 35.765625 36.203125 30.9375 
L 36.203125 6.921875 
C 36.203125 3.09375 35.796875 2.59375 29.40625 2.59375 
L 29.40625 0 
C 31.796875 0.1875 36.203125 0.1875 38.796875 0.1875 
C 41.40625 0.1875 45.90625 0.1875 48.296875 0 
L 48.296875 2.59375 
C 41.90625 2.59375 41.5 3 41.5 6.921875 
z
" id="CMR17-110"/>
       <path d="M 34.90625 35 
C 33 35 30.203125 35 30.203125 31.484375 
C 30.203125 28.6875 32.5 27.890625 33.796875 27.890625 
C 34.5 27.890625 37.40625 28.1875 37.40625 31.6875 
C 37.40625 38.6875 30.59375 44 22.90625 44 
C 12.296875 44 3.296875 34.390625 3.296875 21.546875 
C 3.296875 8.140625 12.703125 -1 22.90625 -1 
C 35.296875 -1 38.40625 10.5625 38.40625 11.671875 
C 38.40625 12.078125 38.296875 12.375 37.59375 12.375 
C 36.90625 12.375 36.796875 12.28125 36.40625 10.96875 
C 33.796875 2.8125 28.09375 0.796875 23.796875 0.796875 
C 17.40625 0.796875 9.703125 6.734375 9.703125 21.640625 
C 9.703125 36.84375 17.09375 42.1875 23 42.1875 
C 26.90625 42.1875 32.703125 40.34375 34.90625 35 
z
" id="CMR17-99"/>
       <path d="M 38.09375 23.484375 
C 38.5 23.890625 38.5 24.09375 38.5 25.09375 
C 38.5 35.171875 33.09375 44 21.703125 44 
C 11.09375 44 2.703125 33.984375 2.703125 21.78125 
C 2.703125 8.65625 12.203125 -1 22.796875 -1 
C 34 -1 38.40625 9.671875 38.40625 11.796875 
C 38.40625 12.5 37.796875 12.5 37.59375 12.5 
C 36.90625 12.5 36.796875 12.296875 36.40625 11.078125 
C 34.203125 4.21875 28.703125 0.796875 23.5 0.796875 
C 19.203125 0.796875 14.90625 3.21875 12.203125 7.65625 
C 9.09375 12.796875 9.09375 18.75 9.09375 23.484375 
z
M 9.203125 25 
C 9.90625 39.234375 17.59375 42.390625 21.59375 42.390625 
C 28.40625 42.390625 33 36.0625 33.09375 25 
z
" id="CMR17-101"/>
       <path d="M 43.09375 21.1875 
C 43.09375 34 33.796875 44 22.90625 44 
C 12 44 2.703125 34 2.703125 21.1875 
C 2.703125 8.59375 12 -1 22.90625 -1 
C 33.796875 -1 43.09375 8.59375 43.09375 21.1875 
z
M 22.90625 0.796875 
C 18.203125 0.796875 14.203125 3.59375 11.90625 7.5 
C 9.40625 12 9.09375 17.59375 9.09375 22 
C 9.09375 26.1875 9.296875 31.390625 11.90625 35.890625 
C 13.90625 39.1875 17.796875 42.390625 22.90625 42.390625 
C 27.40625 42.390625 31.203125 39.890625 33.59375 36.390625 
C 36.703125 31.6875 36.703125 25.09375 36.703125 22 
C 36.703125 18.09375 36.5 12.09375 33.796875 7.296875 
C 31 2.6875 26.703125 0.796875 22.90625 0.796875 
z
" id="CMR17-111"/>
       <path d="M 15.296875 40.390625 
L 26.703125 40.390625 
L 26.703125 43 
L 15.09375 43 
L 15.09375 55.296875 
C 15.09375 63.6875 19.296875 68.390625 23.59375 68.390625 
C 24.90625 68.390625 26.40625 68.171875 27.40625 67.796875 
C 26.59375 67.59375 24.5 66.890625 24.5 64.390625 
C 24.5 61.796875 26.5 61 27.90625 61 
C 29.296875 61 31.296875 61.796875 31.296875 64.390625 
C 31.296875 68.015625 27.703125 70 23.703125 70 
C 18 70 10.203125 65.796875 10.203125 55.09375 
L 10.203125 43 
L 2.203125 43 
L 2.203125 40.390625 
L 10.203125 40.390625 
L 10.203125 6.890625 
C 10.203125 3.09375 9.796875 2.59375 3.40625 2.59375 
L 3.40625 0 
C 5.796875 0.1875 10.40625 0.1875 13 0.1875 
C 15.90625 0.1875 21 0.1875 23.703125 0 
L 23.703125 2.59375 
C 16.5 2.59375 15.296875 2.59375 15.296875 7.09375 
z
" id="CMR17-102"/>
       <path d="M 20.90625 66.390625 
C 20.296875 67.890625 20.203125 68 18.09375 68 
L 5.296875 68 
L 5.296875 65.390625 
C 12.203125 65.390625 13.296875 65.390625 13.296875 60.90625 
L 13.296875 9.75 
C 13.296875 7.265625 13.296875 2.59375 5.296875 2.59375 
L 5.296875 0 
C 7.59375 0.1875 11.796875 0.1875 14.296875 0.1875 
C 16.796875 0.1875 21 0.1875 23.296875 0 
L 23.296875 2.59375 
C 15.296875 2.59375 15.296875 7.265625 15.296875 9.75 
L 15.296875 64.984375 
L 15.40625 64.984375 
L 38.90625 1.59375 
C 39.296875 0.59375 39.5 0 40.296875 0 
C 41.09375 0 41.296875 0.59375 41.703125 1.59375 
L 65.40625 65.484375 
L 65.5 65.484375 
L 65.5 7.078125 
C 65.5 2.59375 64.40625 2.59375 57.5 2.59375 
L 57.5 0 
C 60.203125 0.1875 65.59375 0.1875 68.5 0.1875 
C 71.40625 0.1875 76.90625 0.1875 79.59375 0 
L 79.59375 2.59375 
C 72.703125 2.59375 71.59375 2.59375 71.59375 7.078125 
L 71.59375 60.90625 
C 71.59375 65.390625 72.703125 65.390625 79.59375 65.390625 
L 79.59375 68 
L 66.90625 68 
C 64.796875 68 64.703125 67.890625 64.09375 66.390625 
L 42.5 8.0625 
z
" id="CMR17-77"/>
      </defs>
      <use transform="scale(0.996264)" xlink:href="#CMR17-68"/>
      <use transform="translate(70.393556 0)scale(0.996264)" xlink:href="#CMR17-105"/>
      <use transform="translate(95.264614 0)scale(0.996264)" xlink:href="#CMR17-115"/>
      <use transform="translate(131.065952 0)scale(0.996264)" xlink:href="#CMR17-116"/>
      <use transform="translate(166.34672 0)scale(0.996264)" xlink:href="#CMR17-97"/>
      <use transform="translate(212.037197 0)scale(0.996264)" xlink:href="#CMR17-110"/>
      <use transform="translate(262.932567 0)scale(0.996264)" xlink:href="#CMR17-99"/>
      <use transform="translate(303.418227 0)scale(0.996264)" xlink:href="#CMR17-101"/>
      <use transform="translate(373.979854 0)scale(0.996264)" xlink:href="#CMR17-111"/>
      <use transform="translate(419.670331 0)scale(0.996264)" xlink:href="#CMR17-102"/>
      <use transform="translate(477.21981 0)scale(0.996264)" xlink:href="#CMR17-77"/>
      <use transform="translate(561.90675 0)scale(0.996264)" xlink:href="#CMR17-101"/>
      <use transform="translate(602.392411 0)scale(0.996264)" xlink:href="#CMR17-97"/>
      <use transform="translate(648.082888 0)scale(0.996264)" xlink:href="#CMR17-110"/>
      <use transform="translate(698.978258 0)scale(0.996264)" xlink:href="#CMR17-115"/>
     </g>
    </g>
    <g id="line2d_38">
     <path d="M 1087.399392 119.731875 
L 1111.399392 119.731875 
" style="fill:none;stroke:#d62728;stroke-dasharray:5.55,2.4;stroke-dashoffset:0;stroke-width:1.5;"/>
    </g>
    <g id="line2d_39"/>
    <g id="text_33">
     <!-- Gaussian Wasserstein Distance -->
     <g transform="translate(1120.999392 123.931875)scale(0.12 -0.12)">
      <defs>
       <path d="M 62.09375 19.65625 
C 62.09375 23.484375 62.40625 24 68.59375 24 
L 68.59375 26.59375 
C 66.203125 26.390625 60.796875 26.390625 58.09375 26.390625 
C 55.296875 26.390625 47.5 26.5 43.703125 26.59375 
L 43.703125 24 
L 46.703125 24 
C 55.296875 24 55.5 22.875 55.5 19.25 
L 55.5 12.59375 
C 55.5 1.5 42.5 0.59375 39.40625 0.59375 
C 29.09375 0.59375 12.203125 7.75 12.203125 34.046875 
C 12.203125 60.34375 28.796875 67.390625 38.5 67.390625 
C 49.796875 67.390625 58 57.515625 59.90625 43.515625 
C 60.09375 42.3125 60.09375 42.109375 61 42.109375 
C 62.09375 42.109375 62.09375 42.3125 62.09375 44.125 
L 62.09375 67.984375 
C 62.09375 69.796875 62 69.890625 61.40625 69.890625 
C 61 69.890625 60.90625 69.796875 60.203125 68.59375 
L 55.796875 60.140625 
C 50.90625 66.390625 44.90625 70 37.203125 70 
C 20.09375 70 4.59375 54.796875 4.59375 34.046875 
C 4.59375 13.40625 19.796875 -2 37.40625 -2 
C 45.5 -2 53.40625 0.890625 56.5 6.640625 
C 58.203125 2.515625 61 -0.3125 61.5 -0.3125 
C 62 -0.3125 62.09375 -0.203125 62.09375 1.59375 
z
" id="CMR17-71"/>
       <path d="M 29.40625 42.890625 
L 29.40625 40.296875 
C 35.296875 40.296875 36.203125 39.6875 36.203125 34.828125 
L 36.203125 16.453125 
C 36.203125 7.96875 31.703125 0.59375 24.296875 0.59375 
C 16.09375 0.59375 15.40625 5.546875 15.40625 10.796875 
L 15.40625 44 
L 3.296875 42.890625 
L 3.296875 40.296875 
C 7.296875 40.296875 10 40.296875 10.09375 36.25 
L 10.09375 16.859375 
C 10.09375 10.09375 10.09375 5.75 12.703125 2.921875 
C 14 1.609375 16.5 -1 23.703125 -1 
C 32.203125 -1 35.5 6.25 36.296875 8.375 
L 36.40625 8.375 
L 36.40625 -1 
L 48.296875 -0.203125 
L 48.296875 2.40625 
C 42.40625 2.40625 41.5 3.015625 41.5 7.859375 
L 41.5 44 
z
" id="CMR17-117"/>
       <path d="M 86.296875 58.984375 
C 87.203125 61.6875 88.703125 65.203125 94.5 65.390625 
L 94.5 68 
C 92.796875 67.890625 89.296875 67.796875 87.5 67.796875 
C 85 67.796875 80.59375 67.796875 78.203125 68 
L 78.203125 65.390625 
C 82.703125 65.296875 84.59375 62.796875 84.59375 60.390625 
C 84.59375 59.6875 84.5 59.28125 84.09375 58.1875 
L 68.59375 8.703125 
L 52.296875 60.78125 
C 52 61.796875 51.90625 62.1875 51.90625 62.59375 
C 51.90625 65.390625 56.296875 65.390625 58.203125 65.390625 
L 58.203125 68 
C 55.296875 67.796875 50.296875 67.796875 47.203125 67.796875 
C 44.703125 67.796875 40.203125 67.796875 37.90625 68 
L 37.90625 65.390625 
C 42.5 65.390625 43.703125 65.09375 44.703125 63.296875 
C 45.09375 62.390625 46.703125 57.1875 46.703125 56.875 
C 46.703125 56.484375 46.5 55.875 46.40625 55.578125 
L 31.703125 8.8125 
L 15.40625 60.78125 
C 14.90625 62.1875 14.90625 62.390625 14.90625 62.59375 
C 14.90625 65.390625 19.296875 65.390625 21.296875 65.390625 
L 21.296875 68 
C 18.40625 67.796875 13.40625 67.796875 10.296875 67.796875 
C 7.703125 67.796875 3.296875 67.796875 0.90625 68 
L 0.90625 65.390625 
C 6.90625 65.390625 7.296875 64.796875 8.296875 61.59375 
L 27.796875 -0.3125 
C 28.296875 -1.8125 28.296875 -2 29.203125 -2 
C 30 -2 30.296875 -1.8125 30.703125 -0.40625 
L 47.703125 53.875 
L 64.703125 -0.40625 
C 65.09375 -1.8125 65.40625 -2 66.203125 -2 
C 67.09375 -2 67.09375 -1.8125 67.59375 -0.3125 
z
" id="CMR17-87"/>
       <path d="M 15 23.703125 
C 15 33.34375 19.09375 42.390625 26.59375 42.390625 
C 27.296875 42.390625 28 42.296875 28.703125 41.984375 
C 28.703125 41.984375 26.5 41.28125 26.5 38.671875 
C 26.5 36.265625 28.40625 35.265625 29.90625 35.265625 
C 31.09375 35.265625 33.296875 35.96875 33.296875 38.78125 
C 33.296875 41.984375 30.09375 44 26.703125 44 
C 19.09375 44 15.796875 36.5625 14.796875 33.046875 
L 14.703125 33.046875 
L 14.703125 44 
L 3.09375 42.890625 
L 3.09375 40.28125 
C 9 40.28125 9.90625 39.6875 9.90625 34.859375 
L 9.90625 6.921875 
C 9.90625 3.09375 9.5 2.59375 3.09375 2.59375 
L 3.09375 0 
C 5.5 0.1875 10.09375 0.1875 12.703125 0.1875 
C 15.59375 0.1875 20.703125 0.1875 23.40625 0 
L 23.40625 2.59375 
C 16.203125 2.59375 15 2.59375 15 7.109375 
z
" id="CMR17-114"/>
      </defs>
      <use transform="scale(0.996264)" xlink:href="#CMR17-71"/>
      <use transform="translate(72.355346 0)scale(0.996264)" xlink:href="#CMR17-97"/>
      <use transform="translate(118.045823 0)scale(0.996264)" xlink:href="#CMR17-117"/>
      <use transform="translate(168.941193 0)scale(0.996264)" xlink:href="#CMR17-115"/>
      <use transform="translate(204.74253 0)scale(0.996264)" xlink:href="#CMR17-115"/>
      <use transform="translate(240.543868 0)scale(0.996264)" xlink:href="#CMR17-105"/>
      <use transform="translate(265.414927 0)scale(0.996264)" xlink:href="#CMR17-97"/>
      <use transform="translate(311.105404 0)scale(0.996264)" xlink:href="#CMR17-110"/>
      <use transform="translate(392.07674 0)scale(0.996264)" xlink:href="#CMR17-87"/>
      <use transform="translate(479.366134 0)scale(0.996264)" xlink:href="#CMR17-97"/>
      <use transform="translate(525.056611 0)scale(0.996264)" xlink:href="#CMR17-115"/>
      <use transform="translate(560.857949 0)scale(0.996264)" xlink:href="#CMR17-115"/>
      <use transform="translate(596.659287 0)scale(0.996264)" xlink:href="#CMR17-101"/>
      <use transform="translate(637.144947 0)scale(0.996264)" xlink:href="#CMR17-114"/>
      <use transform="translate(672.425715 0)scale(0.996264)" xlink:href="#CMR17-115"/>
      <use transform="translate(708.227053 0)scale(0.996264)" xlink:href="#CMR17-116"/>
      <use transform="translate(743.50782 0)scale(0.996264)" xlink:href="#CMR17-101"/>
      <use transform="translate(783.993481 0)scale(0.996264)" xlink:href="#CMR17-105"/>
      <use transform="translate(808.864539 0)scale(0.996264)" xlink:href="#CMR17-110"/>
      <use transform="translate(889.835875 0)scale(0.996264)" xlink:href="#CMR17-68"/>
      <use transform="translate(960.229431 0)scale(0.996264)" xlink:href="#CMR17-105"/>
      <use transform="translate(985.10049 0)scale(0.996264)" xlink:href="#CMR17-115"/>
      <use transform="translate(1020.901827 0)scale(0.996264)" xlink:href="#CMR17-116"/>
      <use transform="translate(1056.182595 0)scale(0.996264)" xlink:href="#CMR17-97"/>
      <use transform="translate(1101.873072 0)scale(0.996264)" xlink:href="#CMR17-110"/>
      <use transform="translate(1152.768442 0)scale(0.996264)" xlink:href="#CMR17-99"/>
      <use transform="translate(1193.254103 0)scale(0.996264)" xlink:href="#CMR17-101"/>
     </g>
    </g>
    <g id="line2d_40">
     <path d="M 1087.399392 137.345625 
L 1111.399392 137.345625 
" style="fill:none;stroke:#d62728;stroke-linecap:square;stroke-width:1.5;"/>
    </g>
    <g id="line2d_41"/>
    <g id="text_34">
     <!-- Distance of Covariances -->
     <g transform="translate(1120.999392 141.545625)scale(0.12 -0.12)">
      <defs>
       <path d="M 62.09375 67.984375 
C 62.09375 69.796875 62 69.890625 61.40625 69.890625 
C 61 69.890625 60.90625 69.796875 60.203125 68.59375 
L 55.796875 60.140625 
C 50.90625 66.390625 44.90625 70 37.203125 70 
C 20.09375 70 4.59375 54.796875 4.59375 34.046875 
C 4.59375 13.078125 20.09375 -2 37.296875 -2 
C 52.59375 -2 62.09375 11.578125 62.09375 23.15625 
C 62.09375 24.171875 62.09375 24.578125 61.203125 24.578125 
C 60.40625 24.578125 60.40625 24.265625 60.296875 23.359375 
C 59.5 9.25 49.5 0.59375 38.703125 0.59375 
C 28.5 0.59375 12.203125 7.84375 12.203125 34.046875 
C 12.203125 60.34375 28.796875 67.390625 38.5 67.390625 
C 49.796875 67.390625 58 57.515625 59.90625 43.515625 
C 60.09375 42.296875 60.09375 42.109375 61 42.109375 
C 62.09375 42.109375 62.09375 42.296875 62.09375 44.125 
z
" id="CMR17-67"/>
       <path d="M 39.09375 33.953125 
C 40 36.171875 41.59375 40.1875 47.40625 40.390625 
L 47.40625 43 
C 45.5 42.890625 43 42.796875 41.09375 42.796875 
C 39 42.796875 35.703125 42.796875 33.703125 43 
L 33.703125 40.390625 
C 36.203125 40.1875 37.59375 38.984375 37.59375 36.375 
C 37.59375 35.46875 37.59375 35.265625 37 33.859375 
L 26 5.921875 
L 14.09375 36.0625 
C 13.5 37.375 13.5 37.578125 13.5 37.984375 
C 13.5 40.390625 16.796875 40.390625 18.296875 40.390625 
L 18.296875 43 
C 15.90625 42.796875 11.5 42.796875 9 42.796875 
C 6.296875 42.796875 3.203125 42.796875 1 43 
L 1 40.390625 
C 4.796875 40.390625 6.90625 40.390625 8.09375 37.28125 
L 22.59375 0.6875 
C 23.203125 -0.8125 23.296875 -1 24.203125 -1 
C 25.09375 -1 25.203125 -0.8125 25.796875 0.6875 
z
" id="CMR17-118"/>
      </defs>
      <use transform="scale(0.996264)" xlink:href="#CMR17-68"/>
      <use transform="translate(70.393556 0)scale(0.996264)" xlink:href="#CMR17-105"/>
      <use transform="translate(95.264614 0)scale(0.996264)" xlink:href="#CMR17-115"/>
      <use transform="translate(131.065952 0)scale(0.996264)" xlink:href="#CMR17-116"/>
      <use transform="translate(166.34672 0)scale(0.996264)" xlink:href="#CMR17-97"/>
      <use transform="translate(212.037197 0)scale(0.996264)" xlink:href="#CMR17-110"/>
      <use transform="translate(262.932567 0)scale(0.996264)" xlink:href="#CMR17-99"/>
      <use transform="translate(303.418227 0)scale(0.996264)" xlink:href="#CMR17-101"/>
      <use transform="translate(373.979854 0)scale(0.996264)" xlink:href="#CMR17-111"/>
      <use transform="translate(419.670331 0)scale(0.996264)" xlink:href="#CMR17-102"/>
      <use transform="translate(477.21981 0)scale(0.996264)" xlink:href="#CMR17-67"/>
      <use transform="translate(543.72969 0)scale(0.996264)" xlink:href="#CMR17-111"/>
      <use transform="translate(586.817714 0)scale(0.996264)" xlink:href="#CMR17-118"/>
      <use transform="translate(629.905813 0)scale(0.996264)" xlink:href="#CMR17-97"/>
      <use transform="translate(675.59629 0)scale(0.996264)" xlink:href="#CMR17-114"/>
      <use transform="translate(710.877058 0)scale(0.996264)" xlink:href="#CMR17-105"/>
      <use transform="translate(735.748116 0)scale(0.996264)" xlink:href="#CMR17-97"/>
      <use transform="translate(781.438593 0)scale(0.996264)" xlink:href="#CMR17-110"/>
      <use transform="translate(832.333963 0)scale(0.996264)" xlink:href="#CMR17-99"/>
      <use transform="translate(872.819624 0)scale(0.996264)" xlink:href="#CMR17-101"/>
      <use transform="translate(913.305284 0)scale(0.996264)" xlink:href="#CMR17-115"/>
     </g>
    </g>
    <g id="line2d_42">
     <path d="M 1087.399392 154.959375 
L 1111.399392 154.959375 
" style="fill:none;stroke:#9467bd;stroke-linecap:square;stroke-width:5;"/>
    </g>
    <g id="line2d_43"/>
    <g id="text_35">
     <!-- Estimated Wasserstein Distance -->
     <g transform="translate(1120.999392 159.159375)scale(0.12 -0.12)">
      <defs>
       <path d="M 60.703125 25.21875 
L 58.90625 25.21875 
C 56.703125 10.5625 55.40625 2.59375 37.796875 2.59375 
L 23.90625 2.59375 
C 19.90625 2.59375 19.703125 3.09375 19.703125 6.484375 
L 19.703125 34 
L 29.09375 34 
C 38.5 34 39.40625 30.609375 39.40625 22.328125 
L 41.203125 22.328125 
L 41.203125 48.21875 
L 39.40625 48.21875 
C 39.40625 39.96875 38.5 36.59375 29.09375 36.59375 
L 19.703125 36.59375 
L 19.703125 61.3125 
C 19.703125 64.703125 19.90625 65.1875 23.90625 65.1875 
L 37.59375 65.1875 
C 53.09375 65.1875 54.90625 59.03125 56.296875 45.828125 
L 58.09375 45.828125 
L 55.703125 67.796875 
L 5.09375 67.796875 
L 5.09375 65.1875 
C 12 65.1875 13.09375 65.1875 13.09375 60.71875 
L 13.09375 7.078125 
C 13.09375 2.59375 12 2.59375 5.09375 2.59375 
L 5.09375 0 
L 57.09375 0 
z
" id="CMR17-69"/>
       <path d="M 67.59375 30.53125 
C 67.59375 35.5625 66.703125 44 54.796875 44 
C 48 44 43.296875 39.375 41.5 33.953125 
L 41.40625 33.953125 
C 40.203125 42.1875 34.296875 44 28.703125 44 
C 20.796875 44 16.703125 37.875 15.203125 33.84375 
L 15.09375 33.84375 
L 15.09375 44 
L 3.296875 42.890625 
L 3.296875 40.28125 
C 9.203125 40.28125 10.09375 39.6875 10.09375 34.859375 
L 10.09375 6.921875 
C 10.09375 3.09375 9.703125 2.59375 3.296875 2.59375 
L 3.296875 0 
C 5.703125 0.1875 10.09375 0.1875 12.703125 0.1875 
C 15.296875 0.1875 19.796875 0.1875 22.203125 0 
L 22.203125 2.59375 
C 15.796875 2.59375 15.40625 3 15.40625 6.921875 
L 15.40625 26.21875 
C 15.40625 35.453125 21 42.390625 28 42.390625 
C 35.40625 42.390625 36.203125 35.765625 36.203125 30.9375 
L 36.203125 6.921875 
C 36.203125 3.09375 35.796875 2.59375 29.40625 2.59375 
L 29.40625 0 
C 31.796875 0.1875 36.203125 0.1875 38.796875 0.1875 
C 41.40625 0.1875 45.90625 0.1875 48.296875 0 
L 48.296875 2.59375 
C 41.90625 2.59375 41.5 3 41.5 6.921875 
L 41.5 26.21875 
C 41.5 35.453125 47.09375 42.390625 54.09375 42.390625 
C 61.5 42.390625 62.296875 35.765625 62.296875 30.9375 
L 62.296875 6.921875 
C 62.296875 3.09375 61.90625 2.59375 55.5 2.59375 
L 55.5 0 
C 57.90625 0.1875 62.296875 0.1875 64.90625 0.1875 
C 67.5 0.1875 72 0.1875 74.40625 0 
L 74.40625 2.59375 
C 68 2.59375 67.59375 3 67.59375 6.921875 
z
" id="CMR17-109"/>
       <path d="M 29.203125 67.890625 
L 29.203125 65.296875 
C 35.09375 65.296875 36 64.703125 36 60.046875 
L 36 37.046875 
C 35.59375 37.546875 31.5 44 23.40625 44 
C 13.203125 44 3.296875 34.8125 3.296875 21.5 
C 3.296875 8.265625 12.59375 -1 22.40625 -1 
C 30.90625 -1 35.296875 5.640625 35.796875 6.34375 
L 35.796875 -1 
L 47.90625 -0.203125 
L 47.90625 2.40625 
C 42 2.40625 41.09375 3.015625 41.09375 7.859375 
L 41.09375 69 
z
M 35.796875 11.90625 
C 35.796875 8.875 34 6.140625 31.703125 4.125 
C 28.296875 1.09375 24.90625 0.59375 23 0.59375 
C 20.09375 0.59375 9.703125 2.109375 9.703125 21.390625 
C 9.703125 41.1875 21.296875 42.390625 23.90625 42.390625 
C 28.5 42.390625 32.203125 39.765625 34.5 36.140625 
C 35.796875 34.015625 35.796875 33.703125 35.796875 31.890625 
z
" id="CMR17-100"/>
      </defs>
      <use transform="scale(0.996264)" xlink:href="#CMR17-69"/>
      <use transform="translate(62.586301 0)scale(0.996264)" xlink:href="#CMR17-115"/>
      <use transform="translate(98.387638 0)scale(0.996264)" xlink:href="#CMR17-116"/>
      <use transform="translate(133.668406 0)scale(0.996264)" xlink:href="#CMR17-105"/>
      <use transform="translate(158.539464 0)scale(0.996264)" xlink:href="#CMR17-109"/>
      <use transform="translate(235.459054 0)scale(0.996264)" xlink:href="#CMR17-97"/>
      <use transform="translate(281.149531 0)scale(0.996264)" xlink:href="#CMR17-116"/>
      <use transform="translate(316.430299 0)scale(0.996264)" xlink:href="#CMR17-101"/>
      <use transform="translate(356.91596 0)scale(0.996264)" xlink:href="#CMR17-100"/>
      <use transform="translate(437.887296 0)scale(0.996264)" xlink:href="#CMR17-87"/>
      <use transform="translate(525.17669 0)scale(0.996264)" xlink:href="#CMR17-97"/>
      <use transform="translate(570.867167 0)scale(0.996264)" xlink:href="#CMR17-115"/>
      <use transform="translate(606.668505 0)scale(0.996264)" xlink:href="#CMR17-115"/>
      <use transform="translate(642.469843 0)scale(0.996264)" xlink:href="#CMR17-101"/>
      <use transform="translate(682.955503 0)scale(0.996264)" xlink:href="#CMR17-114"/>
      <use transform="translate(718.236271 0)scale(0.996264)" xlink:href="#CMR17-115"/>
      <use transform="translate(754.037609 0)scale(0.996264)" xlink:href="#CMR17-116"/>
      <use transform="translate(789.318376 0)scale(0.996264)" xlink:href="#CMR17-101"/>
      <use transform="translate(829.804037 0)scale(0.996264)" xlink:href="#CMR17-105"/>
      <use transform="translate(854.675095 0)scale(0.996264)" xlink:href="#CMR17-110"/>
      <use transform="translate(935.646431 0)scale(0.996264)" xlink:href="#CMR17-68"/>
      <use transform="translate(1006.039987 0)scale(0.996264)" xlink:href="#CMR17-105"/>
      <use transform="translate(1030.911046 0)scale(0.996264)" xlink:href="#CMR17-115"/>
      <use transform="translate(1066.712383 0)scale(0.996264)" xlink:href="#CMR17-116"/>
      <use transform="translate(1101.993151 0)scale(0.996264)" xlink:href="#CMR17-97"/>
      <use transform="translate(1147.683628 0)scale(0.996264)" xlink:href="#CMR17-110"/>
      <use transform="translate(1198.578998 0)scale(0.996264)" xlink:href="#CMR17-99"/>
      <use transform="translate(1239.064659 0)scale(0.996264)" xlink:href="#CMR17-101"/>
     </g>
    </g>
   </g>
  </g>
 </g>
 <defs>
  <clipPath id="p85b00e7eee">
   <rect height="543.6" width="455.584751" x="205.843988" y="86.4"/>
  </clipPath>
  <clipPath id="p69b2b66a8f">
   <rect height="543.6" width="507.272727" x="788.727273" y="86.4"/>
  </clipPath>
 </defs>
</svg>
